<?xml version="1.0" standalone="no"?>
<!DOCTYPE svg PUBLIC "-//W3C//DTD SVG 1.1//EN" "http://www.w3.org/Graphics/SVG/1.1/DTD/svg11.dtd" >
<svg xmlns="http://www.w3.org/2000/svg" xmlns:xlink="http://www.w3.org/1999/xlink" version="1.1">
<metadata>
Created by FontForge 20170731 at Thu Mar 26 18:39:17 2020
 By Aleksey,,,
Copyright (c) 2020 by Tripadvisor LLC and Colophon Foundry. All rights reserved.
</metadata>
<defs>
<font id="TripSans-Regular" horiz-adv-x="600" >
  <font-face 
    font-family="Trip Sans"
    font-weight="400"
    font-stretch="normal"
    units-per-em="1000"
    panose-1="0 0 0 0 0 0 0 0 0 0"
    ascent="800"
    descent="-200"
    x-height="494"
    cap-height="700"
    bbox="-177 -256 1066 1006"
    underline-thickness="50"
    underline-position="-225"
    unicode-range="U+0020-1F989"
  />
<missing-glyph horiz-adv-x="364" 
d="M33 0v666h265v-666h-265zM66 33h199v600h-199v-600z" />
    <glyph glyph-name="fi" unicode="fi" horiz-adv-x="556" 
d="M90 0v551q0 47 16.5 80t48.5 51t78 18h56v-75h-43q-38 0 -56 -19.5t-18 -57.5v-548h-82zM17 426v68h272v-68h-272zM396 0v494h82v-494h-82zM437 578q-25 0 -43 18t-18 43q0 26 18 43.5t43 17.5q26 0 43.5 -17.5t17.5 -43.5q0 -25 -17.5 -43t-43.5 -18z" />
    <glyph glyph-name="fl" unicode="fl" horiz-adv-x="556" 
d="M90 0v551q0 47 16.5 80t48.5 51t78 18h56v-75h-43q-38 0 -56 -19.5t-18 -57.5v-548h-82zM17 426v68h272v-68h-272zM396 0v700h82v-700h-82z" />
    <glyph glyph-name="f_f" unicode="ff" horiz-adv-x="641" 
d="M90 0v551q0 47 16.5 80t48.5 51t78 18h56v-75h-43q-38 0 -56 -19.5t-18 -57.5v-548h-82zM17 426v68h272v-68h-272zM413 0v551q0 47 16.5 80t48.5 51t78 18h56v-75h-43q-38 0 -56 -19.5t-18 -57.5v-548h-82zM340 426v68h272v-68h-272z" />
    <glyph glyph-name=".notdef" horiz-adv-x="364" 
d="M33 0v666h265v-666h-265zM66 33h199v600h-199v-600z" />
    <glyph glyph-name=".null" horiz-adv-x="0" 
 />
    <glyph glyph-name="nonmarkingreturn" horiz-adv-x="333" 
 />
    <glyph glyph-name="space" unicode=" " horiz-adv-x="220" 
 />
    <glyph glyph-name="exclam" unicode="!" horiz-adv-x="246" 
d="M93 190l-14 510h88l-14 -510h-60zM123 -9q-25 0 -41.5 17t-16.5 41q0 25 16.5 42t41.5 17t41.5 -17t16.5 -42q0 -24 -16.5 -41t-41.5 -17z" />
    <glyph glyph-name="quotedbl" unicode="&#x22;" horiz-adv-x="390" 
d="M78 502v198h72v-198h-72zM240 502v198h72v-198h-72z" />
    <glyph glyph-name="numbersign" unicode="#" horiz-adv-x="626" 
d="M111 0l23 198h-94v76h102l18 152h-120v76h128l23 198h82l-23 -198h160l23 198h82l-23 -198h94v-76h-102l-18 -152h120v-76h-128l-23 -198h-82l23 198h-160l-23 -198h-82zM224 274h160l18 152h-160z" />
    <glyph glyph-name="dollar" unicode="$" horiz-adv-x="567" 
d="M284 -14q-75 0 -129.5 28.5t-84.5 79t-30 115.5h86q0 -67 45.5 -106t112.5 -39q73 0 113 32.5t40 96.5q0 50 -36 78.5t-98 47.5l-70 21q-79 23 -126 71t-47 124q0 52 30 92.5t80.5 63.5t111.5 23q71 0 121 -26.5t76.5 -72t26.5 -101.5h-85q0 56 -38.5 90t-100.5 34
q-64 0 -101 -27.5t-37 -73.5q0 -43 28 -72.5t95 -50.5l88 -28q50 -15 87.5 -41t59 -62.5t21.5 -84.5q0 -58 -28 -106.5t-81.5 -77t-129.5 -28.5zM248 -108v914h74v-914h-74z" />
    <glyph glyph-name="percent" unicode="%" horiz-adv-x="770" 
d="M130 53l-42 42l552 552l42 -42zM560 -14q-52 0 -91 23t-61 62t-22 87t22 87t61 62t91 23t91 -23t61 -62t22 -87t-22 -87t-61 -62t-91 -23zM560 50q45 0 74.5 30.5t29.5 77.5t-29.5 77.5t-74.5 30.5t-74.5 -30.5t-29.5 -77.5t29.5 -77.5t74.5 -30.5zM210 370q-52 0 -91 23
t-61 62t-22 87t22 87t61 62t91 23t91 -23t61 -62t22 -87t-22 -87t-61 -62t-91 -23zM210 434q45 0 74.5 30.5t29.5 77.5t-29.5 77.5t-74.5 30.5t-74.5 -30.5t-29.5 -77.5t29.5 -77.5t74.5 -30.5z" />
    <glyph glyph-name="ampersand" unicode="&#x26;" horiz-adv-x="639" 
d="M230 -14q-55 0 -100.5 24t-72.5 68.5t-27 105.5q0 55 26 96t64.5 70t75.5 45l81 36q59 26 83.5 53t24.5 69q0 38 -26 61.5t-64 23.5q-37 0 -65.5 -24.5t-28.5 -68.5q0 -34 19.5 -67.5t41.5 -59.5l350 -418h-106l-309 369q-30 36 -55 77.5t-25 96.5q0 49 23 87.5t63 61
t90 22.5q51 0 89 -20.5t59.5 -55t21.5 -77.5q0 -70 -40 -115.5t-101 -73.5l-85 -39q-58 -27 -89.5 -60.5t-31.5 -83.5q0 -57 35 -91t92 -34q45 0 85 24t76 63l31 33l107 111l48 -54l-105 -110l-24 -25q-37 -38 -70.5 -65t-71 -41t-89.5 -14z" />
    <glyph glyph-name="quotesingle" unicode="'" horiz-adv-x="228" 
d="M78 502v198h72v-198h-72z" />
    <glyph glyph-name="parenleft" unicode="(" horiz-adv-x="258" 
d="M161 -136q-34 53 -62 124t-45.5 153.5t-17.5 168.5t17.5 168.5t45.5 154t62 123.5h75q-52 -89 -86 -205.5t-34 -240.5t34 -240.5t86 -205.5h-75z" />
    <glyph glyph-name="parenright" unicode=")" horiz-adv-x="258" 
d="M22 -136q53 89 86.5 205.5t33.5 240.5t-33.5 240.5t-86.5 205.5h75q34 -52 62 -123.5t45.5 -154t17.5 -168.5t-17.5 -168.5t-45.5 -153.5t-62 -124h-75z" />
    <glyph glyph-name="asterisk" unicode="*" horiz-adv-x="358" 
d="M236 397l-77 135l20 14l19 15l105 -116zM122 397l-67 48l105 116l19 -15l20 -14zM172 523l-152 32l25 78l142 -64l-8 -23zM155 546l-17 154h82l-17 -154h-24h-24zM186 523l-7 23l-8 23l142 64l25 -78z" />
    <glyph glyph-name="plus" unicode="+" horiz-adv-x="482" 
d="M35 315v70h412v-70h-412zM206 144v412h70v-412h-70z" />
    <glyph glyph-name="comma" unicode="," horiz-adv-x="256" 
d="M68 -117v48h8q29 0 45 14.5t19 49.5q-6 -4 -19 -4q-22 0 -38.5 16.5t-16.5 41.5t16.5 42t41.5 17q32 0 49 -24.5t17 -68.5q0 -66 -28.5 -99t-81.5 -33h-12z" />
    <glyph glyph-name="hyphen" unicode="-" horiz-adv-x="288" 
d="M15 300v70h258v-70h-258z" />
    <glyph glyph-name="period" unicode="." horiz-adv-x="248" 
d="M124 -9q-25 0 -41.5 17t-16.5 41q0 25 16.5 41.5t41.5 16.5t41.5 -16.5t16.5 -41.5q0 -24 -16.5 -41t-41.5 -17z" />
    <glyph glyph-name="slash" unicode="/" horiz-adv-x="400" 
d="M20 -60l280 820h80l-280 -820h-80z" />
    <glyph glyph-name="zero" unicode="0" horiz-adv-x="614" 
d="M312 -14q-52 0 -100.5 22t-87 67t-61.5 113.5t-23 161.5t23 161.5t61.5 113.5t87 67t100.5 22q69 0 128.5 -39.5t96.5 -120t37 -204.5t-37 -204.5t-96.5 -120t-128.5 -39.5zM312 64q46 0 85.5 28t64 91t24.5 167t-24.5 167t-64 91t-85.5 28t-88 -28t-69 -91t-27 -167
t27 -167t69 -91t88 -28z" />
    <glyph glyph-name="one" unicode="1" horiz-adv-x="341" 
d="M167 0v619h-131v81h217v-700h-86z" />
    <glyph glyph-name="two" unicode="2" horiz-adv-x="527" 
d="M51 0v69l243 257q47 49 68 91.5t21 88.5q0 58 -34 94t-87 36q-59 0 -91.5 -35.5t-37.5 -89.5h-83q3 58 29 103.5t72.5 72.5t112.5 27q63 0 108.5 -26.5t70.5 -72t25 -103.5q0 -44 -13 -82.5t-38 -75.5t-60 -75l-184 -198h303v-81h-425z" />
    <glyph glyph-name="three" unicode="3" horiz-adv-x="525" 
d="M253 -14q-75 0 -125 32t-75.5 82t-25.5 104h83q3 -37 19.5 -69t48 -51.5t76.5 -19.5q64 0 104 36t40 103q0 56 -38.5 90.5t-101.5 34.5h-40v73h40q56 0 90.5 32t34.5 85t-35 86t-97 33q-57 0 -94 -34.5t-42 -86.5h-79q2 55 29 100t75 71.5t111 26.5q65 0 113 -25
t75 -67.5t27 -95.5q0 -37 -14.5 -68.5t-37 -54.5t-45.5 -35q48 -18 82 -60.5t34 -105.5q0 -60 -28.5 -109t-80.5 -78t-123 -29z" />
    <glyph glyph-name="four" unicode="4" horiz-adv-x="531" 
d="M352 0v183h-320v48l313 469h93v-445h71v-72h-71v-183h-86zM140 255h212v259q0 15 1.5 33t2.5 34z" />
    <glyph glyph-name="five" unicode="5" horiz-adv-x="557" 
d="M276 -14q-72 0 -123.5 30.5t-79 79.5t-27.5 105h84q1 -39 20.5 -70.5t52.5 -50t75 -18.5q74 0 113 47t39 116q0 68 -38.5 115.5t-113.5 47.5q-45 0 -84.5 -26t-60.5 -68h-81l38 406h399v-76h-354l31 39l-36 -322l-14 18q16 42 65 72.5t115 30.5q70 0 119 -30.5t75 -84
t26 -122.5t-31 -123t-85 -85t-124 -31z" />
    <glyph glyph-name="six" unicode="6" 
d="M297 -14q-74 0 -129 32.5t-85 86.5t-30 120q0 51 13.5 92.5t37 80t52.5 79.5l157 223h96l-216 -304l-36 -15q34 37 73.5 56t92.5 19q60 0 109 -29.5t78 -81.5t29 -120q0 -69 -32.5 -123t-87.5 -85t-122 -31zM297 62q43 0 78 19.5t56.5 55.5t21.5 84q0 49 -21.5 84.5
t-56.5 55t-78 19.5q-42 0 -78 -19.5t-58 -55t-22 -84.5q0 -48 22 -84t58 -55.5t78 -19.5z" />
    <glyph glyph-name="seven" unicode="7" horiz-adv-x="516" 
d="M143 0l254 624h-359v76h448v-68l-255 -632h-88z" />
    <glyph glyph-name="eight" unicode="8" horiz-adv-x="532" 
d="M266 -14q-72 0 -122.5 29t-76.5 76t-26 102q0 62 31.5 110t80.5 69q-37 21 -64.5 59.5t-27.5 99.5q0 53 27.5 94.5t74 65t103.5 23.5q58 0 104 -23.5t73.5 -65t27.5 -94.5q0 -61 -27.5 -99.5t-64.5 -59.5q50 -21 81 -69t31 -110q0 -55 -26 -102t-76 -76t-123 -29zM266 64
q63 0 101 38.5t38 95.5q0 59 -37.5 97.5t-101.5 38.5q-63 0 -100.5 -38.5t-37.5 -97.5q0 -57 37.5 -95.5t100.5 -38.5zM266 407q55 0 89.5 32.5t34.5 83.5t-34.5 83.5t-89.5 32.5q-54 0 -88.5 -32.5t-34.5 -83.5t34 -83.5t89 -32.5z" />
    <glyph glyph-name="nine" unicode="9" 
d="M191 0l216 304l36 15q-34 -37 -69.5 -56t-91.5 -19q-59 0 -109.5 29.5t-81 82t-30.5 119.5q0 70 32.5 123.5t87.5 84.5t122 31q77 0 131.5 -32t83.5 -86t29 -121q0 -50 -13.5 -91.5t-36.5 -80t-53 -80.5l-157 -223h-96zM303 320q43 0 78.5 19.5t57.5 55.5t22 84
q0 49 -22 84.5t-57.5 55t-78.5 19.5q-42 0 -77.5 -19.5t-57 -55t-21.5 -84.5q0 -48 21.5 -84t57 -55.5t77.5 -19.5z" />
    <glyph glyph-name="colon" unicode=":" horiz-adv-x="248" 
d="M124 -9q-25 0 -41.5 17t-16.5 41q0 25 16.5 41.5t41.5 16.5t41.5 -16.5t16.5 -41.5q0 -24 -16.5 -41t-41.5 -17zM124 372q-25 0 -41.5 17t-16.5 41q0 25 16.5 41.5t41.5 16.5t41.5 -16.5t16.5 -41.5q0 -24 -16.5 -41t-41.5 -17z" />
    <glyph glyph-name="semicolon" unicode=";" horiz-adv-x="256" 
d="M68 -117v48h8q29 0 45 14.5t19 49.5q-6 -4 -19 -4q-22 0 -38.5 16.5t-16.5 41.5t16.5 42t41.5 17q32 0 49 -24.5t17 -68.5q0 -66 -28.5 -99t-81.5 -33h-12zM124 372q-25 0 -41.5 17t-16.5 41q0 25 16.5 41.5t41.5 16.5t41.5 -16.5t16.5 -41.5q0 -24 -16.5 -41t-41.5 -17z
" />
    <glyph glyph-name="less" unicode="&#x3c;" horiz-adv-x="482" 
d="M447 117l-412 194v78l412 194v-76l-341 -157l341 -157v-76z" />
    <glyph glyph-name="equal" unicode="=" horiz-adv-x="482" 
d="M35 429v70h412v-70h-412zM35 201v70h412v-70h-412z" />
    <glyph glyph-name="greater" unicode="&#x3e;" horiz-adv-x="482" 
d="M35 117v76l341 157l-341 157v76l412 -194v-78z" />
    <glyph glyph-name="question" unicode="?" horiz-adv-x="490" 
d="M205 190v30q0 48 9.5 77.5t31 53t56.5 51.5q37 29 53.5 58t16.5 63q0 50 -34.5 82.5t-92.5 32.5q-56 0 -94.5 -34.5t-40.5 -92.5h-78q0 53 26 99t74 75t113 29q61 0 106.5 -24t71 -65t25.5 -94q0 -55 -23.5 -96t-70.5 -79q-26 -21 -43 -39t-25.5 -40t-8.5 -56v-31h-72z
M245 -9q-25 0 -41.5 17t-16.5 41q0 25 16.5 42t41.5 17t41.5 -17t16.5 -42q0 -24 -16.5 -41t-41.5 -17z" />
    <glyph glyph-name="at" unicode="@" horiz-adv-x="942" 
d="M482 -174q-84 0 -160.5 28t-137 84t-95.5 139t-35 193q0 100 34.5 181.5t94.5 140.5t136.5 90.5t160.5 31.5q96 0 172.5 -29.5t130.5 -82.5t82.5 -124t28.5 -155q0 -82 -21 -140t-59 -88t-91 -30q-51 0 -81 29t-40 66q-19 -38 -59.5 -66.5t-94.5 -28.5q-59 0 -102.5 27.5
t-66.5 74t-23 103.5t25.5 103.5t69 74t97.5 27.5q48 0 80.5 -17.5t51.5 -44.5v50h78v-224q0 -49 19.5 -74.5t49.5 -25.5q44 0 66.5 44t22.5 130q0 107 -45 180t-121 110t-170 37q-62 0 -123 -23t-111 -69.5t-80 -116t-30 -161.5t30 -161.5t80 -116t111.5 -69.5t124.5 -23
q50 0 93 7.5t84.5 23.5t84.5 41v-82q-39 -20 -79.5 -34.5t-85 -22t-97.5 -7.5zM458 139q51 0 86.5 36t35.5 95t-35.5 95t-86.5 36t-86.5 -36t-35.5 -95t35.5 -95t86.5 -36z" />
    <glyph glyph-name="A" unicode="A" horiz-adv-x="654" 
d="M9 0l269 700h98l269 -700h-89l-211 557q-5 14 -9 24.5t-9 23.5q-4 -13 -8.5 -23.5t-9.5 -24.5l-211 -557h-89zM135 182v78h384v-78h-384z" />
    <glyph glyph-name="B" unicode="B" horiz-adv-x="602" 
d="M88 0v700h237q57 0 98.5 -22t64 -60t22.5 -85q0 -57 -29.5 -93.5t-66.5 -51.5q56 -22 91 -67.5t35 -116.5q0 -59 -29 -105.5t-79 -72.5t-112 -26h-232zM174 78h144q60 0 98 35.5t38 96.5q0 62 -38 97.5t-98 35.5h-144v-265zM174 417h142q46 0 78 26.5t32 77.5
q0 50 -32 76.5t-78 26.5h-142v-207z" />
    <glyph glyph-name="C" unicode="C" horiz-adv-x="744" 
d="M384 -14q-66 0 -127 24t-109.5 71t-77 114.5t-28.5 154.5t28.5 154.5t77 114.5t110 71t126.5 24q82 0 149.5 -31.5t112.5 -89t58 -137.5h-86q-13 57 -47.5 97.5t-83 61.5t-103.5 21q-65 0 -123.5 -32.5t-95.5 -96t-37 -157.5q0 -93 37 -157t95.5 -96.5t123.5 -32.5
q85 0 150 47.5t84 133.5h86q-13 -80 -59 -138t-113.5 -89.5t-147.5 -31.5z" />
    <glyph glyph-name="D" unicode="D" horiz-adv-x="664" 
d="M88 0v700h190q99 0 176.5 -41t122.5 -119.5t45 -189.5t-45 -189.5t-122.5 -119.5t-176.5 -41h-190zM174 78h98q76 0 135.5 31t94 91.5t34.5 149.5t-34.5 149.5t-94 91.5t-135.5 31h-98v-544z" />
    <glyph glyph-name="E" unicode="E" horiz-adv-x="554" 
d="M88 0v700h411v-78h-325v-211h274v-78h-274v-255h328v-78h-414z" />
    <glyph glyph-name="F" unicode="F" horiz-adv-x="557" 
d="M88 0v700h411v-78h-325v-247h262v-78h-262v-297h-86z" />
    <glyph glyph-name="G" unicode="G" horiz-adv-x="749" 
d="M384 -14q-66 0 -127 24t-109.5 71t-77 114.5t-28.5 154.5t28.5 154.5t77 114.5t110 71t126.5 24q80 0 145.5 -27.5t109.5 -79t56 -122.5h-86q-12 48 -45.5 81.5t-80 51.5t-99.5 18q-65 0 -123.5 -32.5t-95.5 -96t-37 -157.5q0 -93 37 -157t95.5 -96.5t123.5 -32.5
q115 0 177.5 64t66.5 188l42 -38h-263v74h300v-27q0 -83 -24.5 -146.5t-68 -106.5t-102.5 -64.5t-128 -21.5z" />
    <glyph glyph-name="H" unicode="H" horiz-adv-x="756" 
d="M88 0v700h86v-288h408v288h86v-700h-86v334h-408v-334h-86z" />
    <glyph glyph-name="I" unicode="I" horiz-adv-x="262" 
d="M88 0v700h86v-700h-86z" />
    <glyph glyph-name="J" unicode="J" horiz-adv-x="559" 
d="M264 -14q-59 0 -108.5 25.5t-78.5 76.5t-29 127v40h86v-45q0 -67 36 -106.5t94 -39.5t93.5 39.5t35.5 106.5v490h86v-478q0 -78 -29 -130.5t-77.5 -79t-108.5 -26.5z" />
    <glyph glyph-name="K" unicode="K" horiz-adv-x="572" 
d="M446 0l-277 339v26l271 335h107l-282 -346l287 -354h-106zM88 0v700h86v-700h-86z" />
    <glyph glyph-name="L" unicode="L" horiz-adv-x="554" 
d="M88 0v700h86v-622h328v-78h-414z" />
    <glyph glyph-name="M" unicode="M" horiz-adv-x="836" 
d="M418 0v115q5 21 11 39.5t12 33.5l211 512h96v-700h-82v438q0 28 2 51.5t4 51.5l-222 -541h-32zM88 0v700h96l211 -512q6 -15 12.5 -33.5t10.5 -39.5v-115h-32l-222 541q2 -28 4 -51.5t2 -51.5v-438h-82z" />
    <glyph glyph-name="N" unicode="N" horiz-adv-x="730" 
d="M88 0v700h84l389 -569q-1 26 -1 47v47v475h82v-700h-83l-391 569q2 -26 2 -47v-47v-475h-82z" />
    <glyph glyph-name="O" unicode="O" horiz-adv-x="784" 
d="M392 -14q-68 0 -131 24t-112.5 71t-78 114.5t-28.5 154.5t28.5 154.5t78 114.5t112.5 71t131 24t131 -24t112.5 -71t78 -114.5t28.5 -154.5t-28.5 -154.5t-78 -114.5t-112.5 -71t-131 -24zM392 64q50 0 97 18.5t85 54.5t60 89.5t22 123.5t-22 123.5t-60 89.5t-85 54.5
t-97 18.5t-97 -18.5t-85 -54.5t-60 -89.5t-22 -123.5t22 -123.5t60 -89.5t85 -54.5t97 -18.5z" />
    <glyph glyph-name="P" unicode="P" horiz-adv-x="591" 
d="M88 0v700h236q63 0 113 -26t79 -73.5t29 -112.5t-29 -112.5t-79 -73.5t-113 -26h-150v-276h-86zM174 352h145q61 0 100.5 36t39.5 100t-39.5 100t-100.5 36h-145v-272z" />
    <glyph glyph-name="Q" unicode="Q" horiz-adv-x="784" 
d="M392 0q-68 0 -131 24t-112.5 69.5t-78 112t-28.5 151.5t28.5 151.5t78 112t112.5 69.5t131 24t131 -24t112.5 -69t78 -109t28.5 -144q0 -103 -43 -176t-110 -114h153v-78h-350zM392 78q50 0 97 18t85 53.5t60 87.5t22 120t-22 120t-60 87.5t-85 53.5t-97 18
q-67 0 -127.5 -32t-98.5 -94t-38 -153t38 -153t98.5 -94t127.5 -32z" />
    <glyph glyph-name="R" unicode="R" horiz-adv-x="615" 
d="M88 0v700h239q68 0 119.5 -27t80.5 -74t29 -109q0 -56 -24 -100t-67 -71.5t-101 -34.5l-16 -4h-174v-280h-86zM486 0l-159 310l89 8l163 -318h-93zM174 356h148q70 0 109 35.5t39 98.5t-39 98.5t-109 35.5h-148v-268z" />
    <glyph glyph-name="S" unicode="S" horiz-adv-x="567" 
d="M285 -14q-70 0 -122 28t-80.5 77.5t-28.5 113.5h86q0 -65 43 -103t106 -38q65 0 103 35t38 96q0 33 -17.5 56t-47 39.5t-67.5 28.5l-69 23q-72 24 -116.5 69.5t-44.5 116.5q0 56 28 97.5t76.5 65t109.5 23.5q69 0 117.5 -25t74 -68.5t25.5 -99.5h-85q0 51 -36.5 84
t-95.5 33t-93.5 -30.5t-34.5 -69.5t26.5 -69.5t87.5 -51.5l95 -33q47 -16 81.5 -41.5t53 -60.5t18.5 -81q0 -58 -27 -107t-78.5 -78.5t-125.5 -29.5z" />
    <glyph glyph-name="T" unicode="T" horiz-adv-x="590" 
d="M252 0v700h86v-700h-86zM40 622v78h510v-78h-510z" />
    <glyph glyph-name="U" unicode="U" horiz-adv-x="656" 
d="M328 -14q-68 0 -124.5 29t-90 87t-33.5 143v455h84v-466q0 -51 21.5 -89.5t59 -59.5t83.5 -21q47 0 84 21t58.5 59.5t21.5 89.5v466h84v-455q0 -85 -33.5 -143t-90 -87t-124.5 -29z" />
    <glyph glyph-name="V" unicode="V" horiz-adv-x="642" 
d="M272 0l-264 700h92l202 -556q5 -14 10 -27t9 -27q5 14 9.5 27t9.5 27l201 556h93l-264 -700h-98z" />
    <glyph glyph-name="W" unicode="W" horiz-adv-x="876" 
d="M190 0l-178 700h94l124 -530q4 -13 7 -26.5t6 -34.5q3 21 6 34.5t7 26.5l133 530h98l133 -530q4 -13 7 -26.5t6 -34.5q3 21 6 34.5t7 26.5l124 530h94l-178 -700h-104l-127 500q-4 19 -8.5 37t-8.5 37q-4 -19 -8 -37t-9 -37l-127 -500h-104z" />
    <glyph glyph-name="X" unicode="X" horiz-adv-x="610" 
d="M16 0l246 391l31 26q8 18 16 31t15 26l139 226h101l-216 -343l-30 -35q-7 -16 -15.5 -30.5t-16.5 -25.5l-166 -266h-104zM490 0l-168 266q-7 11 -15.5 25.5t-16.5 30.5l-31 40l-210 338h102l137 -226q8 -12 15.5 -25.5t14.5 -30.5l28 -30l248 -388h-104z" />
    <glyph glyph-name="Y" unicode="Y" horiz-adv-x="560" 
d="M237 0v291l-218 409h98l138 -269q8 -15 13 -27t12 -32q7 20 12.5 32t12.5 27l138 269h98l-218 -409v-291h-86z" />
    <glyph glyph-name="Z" unicode="Z" horiz-adv-x="605" 
d="M49 0v78l389 544h-371v78h469v-78l-390 -544h408v-78h-505z" />
    <glyph glyph-name="bracketleft" unicode="[" horiz-adv-x="290" 
d="M40 -136v892h206v-76h-122v-740h122v-76h-206z" />
    <glyph glyph-name="backslash" unicode="\" horiz-adv-x="400" 
d="M300 -60l-280 820h80l280 -820h-80z" />
    <glyph glyph-name="bracketright" unicode="]" horiz-adv-x="290" 
d="M44 -136v76h122v740h-122v76h206v-892h-206z" />
    <glyph glyph-name="asciicircum" unicode="^" horiz-adv-x="482" 
d="M36 431l166 269h78l166 -269h-79l-126 207l-126 -207h-79z" />
    <glyph glyph-name="underscore" unicode="_" horiz-adv-x="398" 
d="M15 -85v70h368v-70h-368z" />
    <glyph glyph-name="grave" unicode="`" 
d="M142 567l-102 133h118l56 -133h-72z" />
    <glyph glyph-name="a" unicode="a" horiz-adv-x="632" 
d="M290 -14q-70 0 -126.5 34.5t-89 93.5t-32.5 133t34.5 133t91.5 93.5t124 34.5q65 0 112 -24.5t74 -61.5v72h76v-494h-76v85q-27 -42 -74 -70.5t-114 -28.5zM301 60q47 0 87 23t65 65t25 99t-25 99t-65 65t-87 23q-48 0 -88.5 -23t-64.5 -65t-24 -99t24 -99t64.5 -65
t88.5 -23z" />
    <glyph glyph-name="b" unicode="b" horiz-adv-x="632" 
d="M342 -14q-61 0 -111.5 27t-76.5 68v-81h-76v700h82v-281q23 34 73 61.5t114 27.5q68 0 123 -34.5t87.5 -93.5t32.5 -133t-33.5 -133t-90 -93.5t-124.5 -34.5zM331 60q49 0 89 23t64 65t24 99t-24 99t-64 65t-89 23q-46 0 -86.5 -23t-65.5 -65t-25 -99t25 -99t65.5 -65
t86.5 -23z" />
    <glyph glyph-name="c" unicode="c" horiz-adv-x="571" 
d="M294 -14q-72 0 -129 34t-90 93t-33 134t33 134t90.5 93t128.5 34q65 0 114.5 -22t80 -61.5t39.5 -93.5h-82q-13 44 -52 73.5t-100 29.5q-46 0 -85 -22.5t-62 -64.5t-23 -100t23.5 -100t62.5 -64.5t84 -22.5q62 0 99 28.5t53 74.5h82q-12 -54 -43 -93.5t-79 -61.5
t-112 -22z" />
    <glyph glyph-name="d" unicode="d" horiz-adv-x="632" 
d="M290 -14q-70 0 -126.5 34.5t-89 93.5t-32.5 133q0 56 20 103.5t54.5 82.5t79.5 55t96 20q65 0 111 -25t69 -57v274h82v-700h-76v85q-27 -42 -74 -70.5t-114 -28.5zM301 60q47 0 87 23t65 65t25 99t-25 99t-65 65t-87 23q-48 0 -88.5 -23t-64.5 -65t-24 -99t24 -99
t64.5 -65t88.5 -23z" />
    <glyph glyph-name="e" unicode="e" horiz-adv-x="577" 
d="M291 -14q-73 0 -129.5 33.5t-88 92.5t-31.5 135t33 135t89 92.5t126 33.5q74 0 128.5 -30.5t84.5 -86t30 -131.5v-26h-439v66h393l-32 -17q-4 72 -48.5 113.5t-117.5 41.5q-71 0 -118 -51t-47 -142v-9q0 -56 22.5 -96t60.5 -61t84 -21q62 0 101 30t54 75h78
q-22 -77 -82 -127t-151 -50z" />
    <glyph glyph-name="f" unicode="f" horiz-adv-x="318" 
d="M90 0v551q0 47 16.5 80t48.5 51t78 18h56v-75h-43q-38 0 -56 -19.5t-18 -57.5v-548h-82zM17 426v68h272v-68h-272z" />
    <glyph glyph-name="g" unicode="g" horiz-adv-x="610" 
d="M295 -214q-70 0 -121.5 24.5t-79.5 65.5t-31 90h82q5 -46 42.5 -76t105.5 -30q72 0 114.5 37.5t42.5 110.5v91q-26 -38 -68.5 -62.5t-106.5 -24.5t-117 32t-84.5 88t-31.5 128q0 54 19 99.5t52 79t76 51.5t91 18q59 0 106.5 -24.5t69.5 -63.5v74h76v-484
q0 -66 -31 -116.5t-84.5 -79t-121.5 -28.5zM290 86q46 0 83.5 22t60 61.5t22.5 90.5q0 52 -22.5 91t-60 61t-83.5 22q-45 0 -83 -22t-60.5 -61t-22.5 -91q0 -51 22.5 -90.5t60.5 -61.5t83 -22z" />
    <glyph glyph-name="h" unicode="h" horiz-adv-x="569" 
d="M78 0v700h82v-272q17 30 58.5 55t99.5 25q80 0 127 -53t47 -139v-316h-82v306q0 62 -36 96t-88 34t-89 -34t-37 -96v-306h-82z" />
    <glyph glyph-name="i" unicode="i" horiz-adv-x="238" 
d="M78 0v494h82v-494h-82zM119 578q-25 0 -43 18t-18 43q0 26 18 43.5t43 17.5q26 0 43.5 -17.5t17.5 -43.5q0 -25 -17.5 -43t-43.5 -18z" />
    <glyph glyph-name="j" unicode="j" horiz-adv-x="238" 
d="M-16 -200v74h36q31 0 44.5 15.5t13.5 46.5v558h82v-564q0 -61 -32 -95.5t-92 -34.5h-52zM119 578q-25 0 -43 18t-18 43q0 26 18 43.5t43 17.5q26 0 43.5 -17.5t17.5 -43.5q0 -25 -17.5 -43t-43.5 -18z" />
    <glyph glyph-name="k" unicode="k" horiz-adv-x="482" 
d="M78 0v700h82v-700h-82zM353 0l-205 257h98l205 -257h-98zM148 257l195 237h99l-196 -237h-98z" />
    <glyph glyph-name="l" unicode="l" horiz-adv-x="238" 
d="M78 0v700h82v-700h-82z" />
    <glyph glyph-name="m" unicode="m" horiz-adv-x="789" 
d="M78 0v494h77v-60q15 32 48.5 53t82.5 21q50 0 82.5 -20.5t48.5 -52.5q20 29 55 51t93 22q71 0 109 -48t38 -121v-339h-82v335q0 43 -25.5 72t-71.5 29t-71.5 -29t-25.5 -72v-335h-82v335q0 43 -25 72t-71 29t-72 -29t-26 -72v-335h-82z" />
    <glyph glyph-name="n" unicode="n" horiz-adv-x="557" 
d="M78 0v494h77v-69q17 32 56.5 57.5t99.5 25.5q81 0 125 -51t44 -130v-327h-82v308q0 61 -36 94.5t-83 33.5q-46 0 -82.5 -33.5t-36.5 -94.5v-308h-82z" />
    <glyph glyph-name="o" unicode="o" horiz-adv-x="606" 
d="M303 -14q-75 0 -134 34.5t-93 93.5t-34 133t34 133t93 93.5t134 34.5q76 0 134.5 -34.5t92.5 -93.5t34 -133t-34 -133t-92.5 -93.5t-134.5 -34.5zM303 60q49 0 89.5 22.5t65 64.5t24.5 100t-24.5 100t-65 64.5t-89.5 22.5q-48 0 -89 -22.5t-65.5 -64.5t-24.5 -100
t24.5 -100t65.5 -64.5t89 -22.5z" />
    <glyph glyph-name="p" unicode="p" horiz-adv-x="632" 
d="M78 -200v694h76v-84q26 41 75.5 69.5t112.5 28.5q71 0 127 -34.5t88.5 -93.5t32.5 -133q0 -55 -20 -103t-54.5 -83t-79.5 -55t-96 -20q-67 0 -111.5 27t-68.5 59v-272h-82zM331 60q49 0 89 23t64 65t24 99t-24 99t-64 65t-89 23q-46 0 -86.5 -23t-65.5 -65t-25 -99
t25 -99t65.5 -65t86.5 -23z" />
    <glyph glyph-name="q" unicode="q" horiz-adv-x="632" 
d="M472 -200v274q-25 -36 -69.5 -62t-112.5 -26q-67 0 -123.5 34.5t-90.5 93.5t-34 133t33.5 133t90.5 93.5t127 34.5q65 0 112.5 -28t72.5 -67v81h76v-694h-82zM301 60q47 0 87 23t65 65t25 99t-25 99t-65 65t-87 23q-48 0 -88.5 -23t-64.5 -65t-24 -99t24 -99t64.5 -65
t88.5 -23z" />
    <glyph glyph-name="r" unicode="r" horiz-adv-x="375" 
d="M78 0v494h76v-70h6v-424h-82zM160 340l-6 84q8 37 32.5 53.5t58.5 16.5h91v-76h-99q-77 0 -77 -78z" />
    <glyph glyph-name="s" unicode="s" horiz-adv-x="455" 
d="M230 -14q-57 0 -98.5 22.5t-63.5 62t-22 89.5h82q0 -43 27 -72.5t75 -29.5q44 0 71.5 22.5t27.5 56.5q0 32 -19.5 49.5t-64.5 30.5l-73 21q-51 15 -82.5 48.5t-31.5 84.5q0 43 23.5 73.5t62 47t84.5 16.5q50 0 87 -19t58 -52t21 -74h-78q0 32 -25.5 53.5t-62.5 21.5
q-38 0 -64 -16.5t-26 -46.5q0 -28 19.5 -45t62.5 -30l73 -22q51 -15 84.5 -46.5t33.5 -87.5q0 -46 -24 -81.5t-64.5 -56t-92.5 -20.5z" />
    <glyph glyph-name="t" unicode="t" horiz-adv-x="342" 
d="M221 0q-59 0 -91 35t-32 95v490h82v-483q0 -61 59 -61h58v-76h-76zM25 426v68h272v-68h-272z" />
    <glyph glyph-name="u" unicode="u" horiz-adv-x="557" 
d="M246 -14q-51 0 -89 24t-59 66t-21 97v321h82v-308q0 -61 34.5 -94.5t84.5 -33.5t84.5 33.5t34.5 94.5v308h82v-494h-77v69q-17 -33 -55.5 -58t-100.5 -25z" />
    <glyph glyph-name="v" unicode="v" horiz-adv-x="482" 
d="M194 0l-174 494h87l116 -349q5 -14 9.5 -28.5t8.5 -32.5q5 18 9.5 32.5t8.5 28.5l116 349h87l-174 -494h-94z" />
    <glyph glyph-name="w" unicode="w" horiz-adv-x="692" 
d="M152 0l-130 494h87l76 -341q3 -15 7 -29.5t8 -37.5q4 23 7 37.5t7 29.5l90 341h84l90 -341q4 -15 7 -29.5t7 -37.5q5 23 8.5 37.5t6.5 29.5l76 341h87l-130 -494h-94l-88 331q-3 12 -6 25.5t-6 32.5q-3 -19 -6 -32.5t-6 -25.5l-88 -331h-94z" />
    <glyph glyph-name="x" unicode="x" horiz-adv-x="472" 
d="M13 0l188 274l27 25l133 195h92l-175 -252l-31 -34l-139 -208h-95zM367 0l-148 211l-21 31l-178 252h96l131 -191l22 -33l190 -270h-92z" />
    <glyph glyph-name="y" unicode="y" horiz-adv-x="501" 
d="M48 -200v76h58q24 0 36.5 8.5t21.5 30.5l34 85l-186 494h91l122 -328q5 -15 9 -30.5t8 -36.5v0v0l152 395h90l-241 -605q-17 -43 -46.5 -66t-79.5 -23h-69z" />
    <glyph glyph-name="z" unicode="z" horiz-adv-x="480" 
d="M44 0v68l287 358h-279v68h371v-68l-286 -358h299v-68h-392z" />
    <glyph glyph-name="braceleft" unicode="{" horiz-adv-x="370" 
d="M257 -136q-67 0 -102 35t-35 102v206q0 33 -16.5 49t-48.5 16h-21v76h21q32 0 48.5 16t16.5 49v206q0 67 35 102t102 35h69v-76h-68q-54 0 -54 -54v-226q0 -45 -15 -63t-41 -27q26 -9 41 -27t15 -63v-226q0 -54 54 -54h68v-76h-69z" />
    <glyph glyph-name="bar" unicode="|" horiz-adv-x="240" 
d="M78 -136v892h84v-892h-84z" />
    <glyph glyph-name="braceright" unicode="}" horiz-adv-x="370" 
d="M44 -136v76h68q54 0 54 54v226q0 45 15.5 63t40.5 27q-25 9 -40.5 27t-15.5 63v226q0 54 -54 54h-68v76h69q67 0 102 -35t35 -102v-206q0 -33 17 -49t48 -16h21v-76h-21q-31 0 -48 -16t-17 -49v-206q0 -67 -35 -102t-102 -35h-69z" />
    <glyph glyph-name="asciitilde" unicode="~" horiz-adv-x="482" 
d="M329 288q-34 0 -64 13.5t-56 27t-49 13.5q-22 0 -34 -14t-12 -36h-72q0 62 32.5 91t78.5 29q35 0 64.5 -13.5t56 -27t48.5 -13.5q23 0 34.5 14t11.5 36h72q0 -61 -32.5 -90.5t-78.5 -29.5z" />
    <glyph glyph-name="uni00A0" unicode="&#xa0;" horiz-adv-x="220" 
 />
    <glyph glyph-name="exclamdown" unicode="&#xa1;" horiz-adv-x="246" 
d="M79 -200l14 509h60l14 -509h-88zM123 391q-25 0 -41.5 17t-16.5 42q0 24 16.5 41t41.5 17t41.5 -17t16.5 -41q0 -25 -16.5 -42t-41.5 -17z" />
    <glyph glyph-name="cent" unicode="&#xa2;" horiz-adv-x="571" 
d="M294 89q-72 0 -129 34t-90 93t-33 134t33 134t90.5 93t128.5 34q65 0 114.5 -21.5t80 -61.5t39.5 -94h-82q-13 44 -52 73.5t-100 29.5q-46 0 -85 -22.5t-62 -64.5t-23 -100t23.5 -100t62.5 -64.5t84 -22.5q62 0 99 28.5t53 74.5h82q-12 -54 -43 -93.5t-79 -61.5t-112 -22
zM259 0v700h74v-700h-74z" />
    <glyph glyph-name="sterling" unicode="&#xa3;" horiz-adv-x="571" 
d="M30 0v78h15q37 0 55.5 21t18.5 62v339q0 65 27 113t74 74.5t106 26.5q60 0 104.5 -25t70 -67.5t26.5 -96.5h-78q-4 48 -36.5 79.5t-86.5 31.5q-52 0 -86.5 -31.5t-34.5 -98.5v-335q0 -34 -10.5 -55t-32.5 -38h369v-78h-501zM32 301v72h364v-72h-364z" />
    <glyph glyph-name="currency" unicode="&#xa4;" horiz-adv-x="658" 
d="M329 107q-67 0 -120.5 32.5t-85 88t-31.5 122.5q0 68 31.5 123t85 87.5t120.5 32.5t120.5 -32.5t85 -87.5t31.5 -123q0 -67 -31.5 -122.5t-85 -88t-120.5 -32.5zM91 57l-55 55l142 142l55 -55zM178 446l-142 142l55 55l142 -142zM329 185q68 0 111.5 46t43.5 119
q0 74 -43.5 119.5t-111.5 45.5q-67 0 -111 -45.5t-44 -119.5q0 -73 44 -119t111 -46zM567 57l-142 142l55 55l142 -142zM480 446l-55 55l142 142l55 -55z" />
    <glyph glyph-name="yen" unicode="&#xa5;" horiz-adv-x="560" 
d="M237 0v286l-222 414h98l142 -278q8 -15 13 -27t12 -32q7 20 12.5 32t12.5 27l142 278h98l-222 -414v-286h-86zM58 146v72h444v-72h-444zM58 286v72h444v-72h-444z" />
    <glyph glyph-name="brokenbar" unicode="&#xa6;" horiz-adv-x="240" 
d="M78 366v390h84v-390h-84zM78 -136v390h84v-390h-84z" />
    <glyph glyph-name="section" unicode="&#xa7;" horiz-adv-x="537" 
d="M383 151l-66 35q41 10 66.5 35.5t25.5 56.5q0 38 -29 58.5t-75 30.5l-79 17q-44 10 -80 31.5t-57.5 54.5t-21.5 77q0 50 28 87.5t75 58.5t104 21q64 0 110.5 -22t71.5 -61t25 -90h-85q0 44 -35.5 70.5t-86.5 26.5q-55 0 -88 -23.5t-33 -61.5q0 -39 26 -59.5t86 -34.5
l81 -18q59 -13 99.5 -51t40.5 -101q0 -38 -15 -64.5t-38.5 -44.5t-49.5 -29zM266 -134q-64 0 -110.5 22t-71.5 61t-25 90h85q0 -43 35.5 -70t86.5 -27q55 0 88 23.5t33 61.5q0 39 -26 60t-86 34l-81 18q-59 14 -99.5 51.5t-40.5 100.5q0 38 15 65t38.5 44.5t49.5 28.5
l66 -35q-41 -10 -66.5 -35t-25.5 -57q0 -37 29 -58t75 -31l79 -17q44 -9 80 -31t57.5 -55t21.5 -77q0 -50 -28 -87.5t-74.5 -58.5t-104.5 -21z" />
    <glyph glyph-name="dieresis" unicode="&#xa8;" 
d="M81 584q-22 0 -38.5 16t-16.5 39q0 24 16.5 39.5t38.5 15.5q24 0 39.5 -15.5t15.5 -39.5q0 -23 -15.5 -39t-39.5 -16zM241 584q-23 0 -39 16t-16 39q0 24 16 39.5t39 15.5t39 -15.5t16 -39.5q0 -23 -16 -39t-39 -16z" />
    <glyph glyph-name="copyright" unicode="&#xa9;" horiz-adv-x="798" 
d="M399 -14q-75 0 -140 26.5t-114 75.5t-77 115.5t-28 146.5t28 146.5t77 115.5t114 75.5t140 26.5t140 -26.5t114 -75.5t77 -115.5t28 -146.5t-28 -146.5t-77 -115.5t-114 -75.5t-140 -26.5zM400 149q-57 0 -101 26.5t-68.5 72t-24.5 102.5q0 58 25.5 103t69.5 71.5
t99 26.5q77 0 123.5 -38.5t56.5 -101.5h-70q-10 34 -38 54t-72 20q-48 0 -85 -33.5t-37 -101.5q0 -45 17.5 -75t45.5 -45t59 -15q46 0 71.5 19t38.5 55h70q-13 -63 -59.5 -101.5t-120.5 -38.5zM399 58q79 0 143.5 37t103 103t38.5 152t-38.5 152t-103 103t-143.5 37
t-143.5 -37t-103 -103t-38.5 -152t38.5 -152t103 -103t143.5 -37z" />
    <glyph glyph-name="ordfeminine" unicode="&#xaa;" horiz-adv-x="436" 
d="M197 343q-50 0 -88.5 25t-60.5 66.5t-22 90.5q0 50 23 91t62 66t88 25q44 0 74.5 -14.5t49.5 -37.5v45h60v-350h-60v58q-19 -28 -49.5 -46.5t-76.5 -18.5zM207 403q31 0 57 15.5t42.5 43t16.5 63.5q0 56 -35 89t-81 33t-80.5 -33t-34.5 -89q0 -55 34.5 -88.5t80.5 -33.5z
" />
    <glyph glyph-name="guillemotleft" unicode="&#xab;" horiz-adv-x="490" 
d="M365 83l-142 203v8l142 203h91l-141 -207l141 -207h-91zM181 83l-142 203v8l142 203h91l-141 -207l141 -207h-91z" />
    <glyph glyph-name="logicalnot" unicode="&#xac;" horiz-adv-x="482" 
d="M377 144v171h-342v70h412v-241h-70z" />
    <glyph glyph-name="uni00AD" unicode="&#xad;" horiz-adv-x="288" 
d="M15 300v70h258v-70h-258z" />
    <glyph glyph-name="registered" unicode="&#xae;" horiz-adv-x="362" 
d="M181 415q-40 0 -73 19.5t-52.5 52.5t-19.5 73t19.5 73t52.5 52.5t73 19.5t73 -19.5t52.5 -52.5t19.5 -73t-19.5 -73t-52.5 -52.5t-73 -19.5zM215 485l-35 66l28 2l35 -68h-28zM181 443q33 0 59.5 15.5t42 42.5t15.5 59q0 33 -15.5 59.5t-42 42t-59.5 15.5
q-32 0 -59 -15.5t-42.5 -42t-15.5 -59.5q0 -32 15.5 -59t42.5 -42.5t59 -15.5zM133 485v150h55q23 0 36 -12t13 -33q0 -18 -10.5 -30t-30.5 -14l-10 -1h-27v-60h-26zM159 568h28q11 0 17.5 6t6.5 16q0 11 -6.5 16.5t-17.5 5.5h-28v-44z" />
    <glyph glyph-name="macron" unicode="&#xaf;" 
d="M50 604v66h242v-66h-242z" />
    <glyph glyph-name="degree" unicode="&#xb0;" horiz-adv-x="352" 
d="M176 434q-41 0 -73 18.5t-50.5 50t-18.5 71.5t18.5 71.5t50.5 50t73 18.5t73 -18.5t50.5 -50t18.5 -71.5t-18.5 -71.5t-50.5 -50t-73 -18.5zM176 490q35 0 58.5 23.5t23.5 60.5q0 38 -23.5 61t-58.5 23t-58.5 -23t-23.5 -61q0 -37 23.5 -60.5t58.5 -23.5z" />
    <glyph glyph-name="plusminus" unicode="&#xb1;" horiz-adv-x="482" 
d="M35 355v70h412v-70h-412zM206 184v412h70v-412h-70zM35 0v70h412v-70h-412z" />
    <glyph glyph-name="uni00B2" unicode="&#xb2;" horiz-adv-x="282" 
d="M23 350v47l122 125q20 20 29.5 37.5t9.5 38.5q0 23 -13.5 36.5t-34.5 13.5q-24 0 -37 -14t-15 -37h-61q2 48 32 79t82 31t81.5 -29.5t29.5 -76.5q0 -33 -14.5 -59.5t-43.5 -56.5l-74 -77h136v-58h-229z" />
    <glyph glyph-name="uni00B3" unicode="&#xb3;" horiz-adv-x="290" 
d="M141 343q-59 0 -90 34.5t-31 80.5h63q2 -25 17 -40.5t41 -15.5q27 0 42.5 14t15.5 39q0 24 -16.5 37.5t-42.5 13.5h-19v51h19q23 0 37.5 12.5t14.5 33.5q0 20 -13 33t-39 13q-22 0 -37 -13.5t-17 -33.5h-61q2 43 32.5 74t82.5 31q54 0 84 -27.5t30 -69.5q0 -25 -13.5 -45
t-31.5 -31q23 -8 39 -28.5t16 -52.5t-15.5 -57t-43 -39t-64.5 -14z" />
    <glyph glyph-name="acute" unicode="&#xb4;" 
d="M40 567l56 133h118l-102 -133h-72z" />
    <glyph glyph-name="mu" unicode="&#xb5;" horiz-adv-x="608" 
d="M77 -200v694h82v-308q0 -61 34.5 -94.5t84.5 -33.5t84.5 33.5t34.5 94.5v308h82v-357q0 -61 59 -61h25v-76h-43q-43 0 -71.5 19t-41.5 53q-25 -38 -61 -62t-92 -24q-29 0 -53.5 9t-41.5 23v-218h-82z" />
    <glyph glyph-name="paragraph" unicode="&#xb6;" horiz-adv-x="629" 
d="M297 -120v396h-30q-62 0 -112.5 26t-79.5 73.5t-29 112.5t29 112.5t79.5 73.5t112.5 26h116v-820h-86zM455 -120v820h86v-820h-86z" />
    <glyph glyph-name="periodcentered" unicode="&#xb7;" horiz-adv-x="248" 
d="M124 292q-25 0 -41.5 17t-16.5 41q0 25 16.5 41.5t41.5 16.5t41.5 -16.5t16.5 -41.5q0 -24 -16.5 -41t-41.5 -17z" />
    <glyph glyph-name="cedilla" unicode="&#xb8;" 
d="M89 -228q-21 0 -39 3t-30 7v52q11 -4 25.5 -7t31.5 -3q29 0 42.5 10.5t13.5 29.5q0 18 -13.5 28.5t-35.5 10.5h-64v20l35 102h57l-29 -93l-31 4q17 5 32 8t31 3q35 0 58 -23t23 -61q0 -50 -33 -70.5t-74 -20.5z" />
    <glyph glyph-name="uni00B9" unicode="&#xb9;" horiz-adv-x="191" 
d="M89 350v290h-67v60h131v-350h-64z" />
    <glyph glyph-name="ordmasculine" unicode="&#xba;" horiz-adv-x="415" 
d="M208 343q-54 0 -95 24.5t-64 66t-23 91.5q0 51 23 92t64 65.5t95 24.5t94.5 -24.5t63.5 -65.5t23 -92q0 -50 -23 -91.5t-63.5 -66t-94.5 -24.5zM208 403q47 0 81 33.5t34 88.5q0 56 -34 89t-81 33q-48 0 -82 -33t-34 -89q0 -55 34 -88.5t82 -33.5z" />
    <glyph glyph-name="guillemotright" unicode="&#xbb;" horiz-adv-x="490" 
d="M34 83l141 207l-141 207h91l142 -203v-8l-142 -203h-91zM218 83l141 207l-141 207h91l142 -203v-8l-142 -203h-91z" />
    <glyph glyph-name="onequarter" unicode="&#xbc;" horiz-adv-x="621" 
d="M89 350v290h-67v60h131v-350h-64zM56 53l-42 42l552 552l42 -42zM502 0v86h-155v39l149 225h70v-215h39v-49h-39v-86h-64zM418 135h84v99q0 8 0.5 17t1.5 16z" />
    <glyph glyph-name="onehalf" unicode="&#xbd;" horiz-adv-x="673" 
d="M89 350v290h-67v60h131v-350h-64zM56 53l-42 42l552 552l42 -42zM414 0v47l122 125q20 20 29.5 37.5t9.5 38.5q0 23 -13.5 36.5t-34.5 13.5q-24 0 -37 -14t-15 -37h-61q2 48 32 79t82 31t81.5 -29.5t29.5 -76.5q0 -33 -14.5 -59.5t-43.5 -56.5l-74 -77h136v-58h-229z" />
    <glyph glyph-name="threequarters" unicode="&#xbe;" horiz-adv-x="690" 
d="M141 343q-59 0 -90 34.5t-31 80.5h63q2 -25 17 -40.5t41 -15.5q27 0 42.5 14t15.5 39q0 24 -16.5 37.5t-42.5 13.5h-19v51h19q23 0 37.5 12.5t14.5 33.5q0 20 -13 33t-39 13q-22 0 -37 -13.5t-17 -33.5h-61q2 43 32.5 74t82.5 31q54 0 84 -27.5t30 -69.5q0 -25 -13.5 -45
t-31.5 -31q23 -8 39 -28.5t16 -52.5t-15.5 -57t-43 -39t-64.5 -14zM125 53l-42 42l552 552l42 -42zM571 0v86h-155v39l149 225h70v-215h39v-49h-39v-86h-64zM487 135h84v99q0 8 0.5 17t1.5 16z" />
    <glyph glyph-name="questiondown" unicode="&#xbf;" horiz-adv-x="490" 
d="M245 -214q-61 0 -106.5 24t-71 65.5t-25.5 93.5q0 56 23.5 96.5t70.5 78.5q26 21 43 39t25.5 40.5t8.5 55.5v30h72v-29q0 -47 -9.5 -77t-31 -53.5t-56.5 -51.5q-37 -29 -53.5 -58t-16.5 -63q0 -50 34.5 -82.5t92.5 -32.5q56 0 95 34.5t40 92.5h78q0 -52 -26 -98.5
t-74 -75.5t-113 -29zM245 391q-25 0 -41.5 17t-16.5 42q0 24 16.5 41t41.5 17t41.5 -17t16.5 -41q0 -25 -16.5 -42t-41.5 -17z" />
    <glyph glyph-name="Agrave" unicode="&#xc0;" horiz-adv-x="654" 
d="M9 0l269 700h98l269 -700h-89l-211 557q-5 14 -9 24.5t-9 23.5q-4 -13 -8.5 -23.5t-9.5 -24.5l-211 -557h-89zM135 182v78h384v-78h-384zM292 773l-102 133h118l56 -133h-72z" />
    <glyph glyph-name="Aacute" unicode="&#xc1;" horiz-adv-x="654" 
d="M9 0l269 700h98l269 -700h-89l-211 557q-5 14 -9 24.5t-9 23.5q-4 -13 -8.5 -23.5t-9.5 -24.5l-211 -557h-89zM135 182v78h384v-78h-384zM292 773l56 133h118l-102 -133h-72z" />
    <glyph glyph-name="Acircumflex" unicode="&#xc2;" horiz-adv-x="654" 
d="M9 0l269 700h98l269 -700h-89l-211 557q-5 14 -9 24.5t-9 23.5q-4 -13 -8.5 -23.5t-9.5 -24.5l-211 -557h-89zM135 182v78h384v-78h-384zM194 773l99 133h70l99 -133h-70l-64 69l-64 -69h-70z" />
    <glyph glyph-name="Atilde" unicode="&#xc3;" horiz-adv-x="654" 
d="M9 0l269 700h98l269 -700h-89l-211 557q-5 14 -9 24.5t-9 23.5q-4 -13 -8.5 -23.5t-9.5 -24.5l-211 -557h-89zM135 182v78h384v-78h-384zM404 777q-26 0 -45.5 9t-35 20t-29.5 20t-30 9q-21 0 -33.5 -14.5t-12.5 -35.5h-72q0 51 27.5 86t78.5 35q26 0 45.5 -9t35 -20
t29.5 -20t30 -9q21 0 33.5 14.5t12.5 35.5h72q0 -51 -27.5 -86t-78.5 -35z" />
    <glyph glyph-name="Adieresis" unicode="&#xc4;" horiz-adv-x="654" 
d="M9 0l269 700h98l269 -700h-89l-211 557q-5 14 -9 24.5t-9 23.5q-4 -13 -8.5 -23.5t-9.5 -24.5l-211 -557h-89zM135 182v78h384v-78h-384zM248 790q-22 0 -38.5 16t-16.5 39q0 24 16.5 39.5t38.5 15.5q24 0 39.5 -15.5t15.5 -39.5q0 -23 -15.5 -39t-39.5 -16zM408 790
q-23 0 -39 16t-16 39q0 24 16 39.5t39 15.5t39 -15.5t16 -39.5q0 -23 -16 -39t-39 -16z" />
    <glyph glyph-name="Aring" unicode="&#xc5;" horiz-adv-x="654" 
d="M9 0l269 700h98l269 -700h-89l-211 557q-5 14 -9 24.5t-9 23.5q-4 -13 -8.5 -23.5t-9.5 -24.5l-211 -557h-89zM135 182v78h384v-78h-384zM328 766q-33 0 -60 16.5t-43.5 43.5t-16.5 60t16.5 60.5t43.5 43.5t60 16t60 -16t43.5 -43.5t16.5 -60.5t-16.5 -60t-43.5 -43.5
t-60 -16.5zM328 816q29 0 49.5 20.5t20.5 49.5t-20.5 49.5t-49.5 20.5t-49.5 -20.5t-20.5 -49.5t20.5 -49.5t49.5 -20.5z" />
    <glyph glyph-name="AE" unicode="&#xc6;" horiz-adv-x="904" 
d="M9 0l378 700h55v-78h-4l-334 -622h-95zM181 175v78h323v-78h-323zM438 0v700h411v-78h-325v-211h274v-78h-274v-255h328v-78h-414z" />
    <glyph glyph-name="Ccedilla" unicode="&#xc7;" horiz-adv-x="744" 
d="M384 -14q-66 0 -127 24t-109.5 71t-77 114.5t-28.5 154.5t28.5 154.5t77 114.5t110 71t126.5 24q82 0 149.5 -31.5t112.5 -89t58 -137.5h-86q-13 57 -47.5 97.5t-83 61.5t-103.5 21q-65 0 -123.5 -32.5t-95.5 -96t-37 -157.5q0 -93 37 -157t95.5 -96.5t123.5 -32.5
q85 0 150 47.5t84 133.5h86q-13 -80 -59 -138t-113.5 -89.5t-147.5 -31.5zM392 -228q-21 0 -39 3t-30 7v52q11 -4 25.5 -7t31.5 -3q29 0 42.5 10.5t13.5 29.5q0 18 -13.5 28.5t-35.5 10.5h-64v20l35 102h57l-29 -93l-31 4q17 5 32 8t31 3q35 0 58 -23t23 -61
q0 -50 -33 -70.5t-74 -20.5z" />
    <glyph glyph-name="Egrave" unicode="&#xc8;" horiz-adv-x="554" 
d="M88 0v700h411v-78h-325v-211h274v-78h-274v-255h328v-78h-414zM259 773l-102 133h118l56 -133h-72z" />
    <glyph glyph-name="Eacute" unicode="&#xc9;" horiz-adv-x="554" 
d="M88 0v700h411v-78h-325v-211h274v-78h-274v-255h328v-78h-414zM259 773l56 133h118l-102 -133h-72z" />
    <glyph glyph-name="Ecircumflex" unicode="&#xca;" horiz-adv-x="554" 
d="M88 0v700h411v-78h-325v-211h274v-78h-274v-255h328v-78h-414zM161 773l99 133h70l99 -133h-70l-64 69l-64 -69h-70z" />
    <glyph glyph-name="Edieresis" unicode="&#xcb;" horiz-adv-x="554" 
d="M88 0v700h411v-78h-325v-211h274v-78h-274v-255h328v-78h-414zM215 790q-22 0 -38.5 16t-16.5 39q0 24 16.5 39.5t38.5 15.5q24 0 39.5 -15.5t15.5 -39.5q0 -23 -15.5 -39t-39.5 -16zM375 790q-23 0 -39 16t-16 39q0 24 16 39.5t39 15.5t39 -15.5t16 -39.5q0 -23 -16 -39
t-39 -16z" />
    <glyph glyph-name="Igrave" unicode="&#xcc;" horiz-adv-x="262" 
d="M88 0v700h86v-700h-86zM95 773l-102 133h118l56 -133h-72z" />
    <glyph glyph-name="Iacute" unicode="&#xcd;" horiz-adv-x="262" 
d="M88 0v700h86v-700h-86zM95 773l56 133h118l-102 -133h-72z" />
    <glyph glyph-name="Icircumflex" unicode="&#xce;" horiz-adv-x="262" 
d="M88 0v700h86v-700h-86zM-3 773l99 133h70l99 -133h-70l-64 69l-64 -69h-70z" />
    <glyph glyph-name="Idieresis" unicode="&#xcf;" horiz-adv-x="262" 
d="M88 0v700h86v-700h-86zM51 790q-22 0 -38.5 16t-16.5 39q0 24 16.5 39.5t38.5 15.5q24 0 39.5 -15.5t15.5 -39.5q0 -23 -15.5 -39t-39.5 -16zM211 790q-23 0 -39 16t-16 39q0 24 16 39.5t39 15.5t39 -15.5t16 -39.5q0 -23 -16 -39t-39 -16z" />
    <glyph glyph-name="Eth" unicode="&#xd0;" horiz-adv-x="664" 
d="M4 314v72h354v-72h-354zM88 0v700h190q99 0 176.5 -41t122.5 -119.5t45 -189.5t-45 -189.5t-122.5 -119.5t-176.5 -41h-190zM174 78h98q76 0 135.5 31t94 91.5t34.5 149.5t-34.5 149.5t-94 91.5t-135.5 31h-98v-544z" />
    <glyph glyph-name="Ntilde" unicode="&#xd1;" horiz-adv-x="730" 
d="M88 0v700h84l389 -569q-1 26 -1 47v47v475h82v-700h-83l-391 569q2 -26 2 -47v-47v-475h-82zM441 777q-26 0 -45.5 9t-35 20t-29.5 20t-30 9q-21 0 -33.5 -14.5t-12.5 -35.5h-72q0 51 27.5 86t78.5 35q26 0 45.5 -9t35 -20t29.5 -20t30 -9q21 0 33.5 14.5t12.5 35.5h72
q0 -51 -27.5 -86t-78.5 -35z" />
    <glyph glyph-name="Ograve" unicode="&#xd2;" horiz-adv-x="784" 
d="M392 -14q-68 0 -131 24t-112.5 71t-78 114.5t-28.5 154.5t28.5 154.5t78 114.5t112.5 71t131 24t131 -24t112.5 -71t78 -114.5t28.5 -154.5t-28.5 -154.5t-78 -114.5t-112.5 -71t-131 -24zM392 64q50 0 97 18.5t85 54.5t60 89.5t22 123.5t-22 123.5t-60 89.5t-85 54.5
t-97 18.5t-97 -18.5t-85 -54.5t-60 -89.5t-22 -123.5t22 -123.5t60 -89.5t85 -54.5t97 -18.5zM356 773l-102 133h118l56 -133h-72z" />
    <glyph glyph-name="Oacute" unicode="&#xd3;" horiz-adv-x="784" 
d="M392 -14q-68 0 -131 24t-112.5 71t-78 114.5t-28.5 154.5t28.5 154.5t78 114.5t112.5 71t131 24t131 -24t112.5 -71t78 -114.5t28.5 -154.5t-28.5 -154.5t-78 -114.5t-112.5 -71t-131 -24zM392 64q50 0 97 18.5t85 54.5t60 89.5t22 123.5t-22 123.5t-60 89.5t-85 54.5
t-97 18.5t-97 -18.5t-85 -54.5t-60 -89.5t-22 -123.5t22 -123.5t60 -89.5t85 -54.5t97 -18.5zM356 773l56 133h118l-102 -133h-72z" />
    <glyph glyph-name="Ocircumflex" unicode="&#xd4;" horiz-adv-x="784" 
d="M392 -14q-68 0 -131 24t-112.5 71t-78 114.5t-28.5 154.5t28.5 154.5t78 114.5t112.5 71t131 24t131 -24t112.5 -71t78 -114.5t28.5 -154.5t-28.5 -154.5t-78 -114.5t-112.5 -71t-131 -24zM392 64q50 0 97 18.5t85 54.5t60 89.5t22 123.5t-22 123.5t-60 89.5t-85 54.5
t-97 18.5t-97 -18.5t-85 -54.5t-60 -89.5t-22 -123.5t22 -123.5t60 -89.5t85 -54.5t97 -18.5zM258 773l99 133h70l99 -133h-70l-64 69l-64 -69h-70z" />
    <glyph glyph-name="Otilde" unicode="&#xd5;" horiz-adv-x="784" 
d="M392 -14q-68 0 -131 24t-112.5 71t-78 114.5t-28.5 154.5t28.5 154.5t78 114.5t112.5 71t131 24t131 -24t112.5 -71t78 -114.5t28.5 -154.5t-28.5 -154.5t-78 -114.5t-112.5 -71t-131 -24zM392 64q50 0 97 18.5t85 54.5t60 89.5t22 123.5t-22 123.5t-60 89.5t-85 54.5
t-97 18.5t-97 -18.5t-85 -54.5t-60 -89.5t-22 -123.5t22 -123.5t60 -89.5t85 -54.5t97 -18.5zM468 777q-26 0 -45.5 9t-35 20t-29.5 20t-30 9q-21 0 -33.5 -14.5t-12.5 -35.5h-72q0 51 27.5 86t78.5 35q26 0 45.5 -9t35 -20t29.5 -20t30 -9q21 0 33.5 14.5t12.5 35.5h72
q0 -51 -27.5 -86t-78.5 -35z" />
    <glyph glyph-name="Odieresis" unicode="&#xd6;" horiz-adv-x="784" 
d="M392 -14q-68 0 -131 24t-112.5 71t-78 114.5t-28.5 154.5t28.5 154.5t78 114.5t112.5 71t131 24t131 -24t112.5 -71t78 -114.5t28.5 -154.5t-28.5 -154.5t-78 -114.5t-112.5 -71t-131 -24zM392 64q50 0 97 18.5t85 54.5t60 89.5t22 123.5t-22 123.5t-60 89.5t-85 54.5
t-97 18.5t-97 -18.5t-85 -54.5t-60 -89.5t-22 -123.5t22 -123.5t60 -89.5t85 -54.5t97 -18.5zM312 790q-22 0 -38.5 16t-16.5 39q0 24 16.5 39.5t38.5 15.5q24 0 39.5 -15.5t15.5 -39.5q0 -23 -15.5 -39t-39.5 -16zM472 790q-23 0 -39 16t-16 39q0 24 16 39.5t39 15.5
t39 -15.5t16 -39.5q0 -23 -16 -39t-39 -16z" />
    <glyph glyph-name="multiply" unicode="&#xd7;" horiz-adv-x="482" 
d="M99 158l-50 50l142 142l-142 142l50 50l142 -142l142 142l50 -50l-142 -142l142 -142l-50 -50l-142 142z" />
    <glyph glyph-name="Oslash" unicode="&#xd8;" horiz-adv-x="784" 
d="M114 -60l470 820h86l-470 -820h-86zM392 -14q-68 0 -131 24t-112.5 71t-78 114.5t-28.5 154.5t28.5 154.5t78 114.5t112.5 71t131 24t131 -24t112.5 -71t78 -114.5t28.5 -154.5t-28.5 -154.5t-78 -114.5t-112.5 -71t-131 -24zM392 64q50 0 97 18.5t85 54.5t60 89.5
t22 123.5t-22 123.5t-60 89.5t-85 54.5t-97 18.5t-97 -18.5t-85 -54.5t-60 -89.5t-22 -123.5t22 -123.5t60 -89.5t85 -54.5t97 -18.5z" />
    <glyph glyph-name="Ugrave" unicode="&#xd9;" horiz-adv-x="656" 
d="M328 -14q-68 0 -124.5 29t-90 87t-33.5 143v455h84v-466q0 -51 21.5 -89.5t59 -59.5t83.5 -21q47 0 84 21t58.5 59.5t21.5 89.5v466h84v-455q0 -85 -33.5 -143t-90 -87t-124.5 -29zM292 773l-102 133h118l56 -133h-72z" />
    <glyph glyph-name="Uacute" unicode="&#xda;" horiz-adv-x="656" 
d="M328 -14q-68 0 -124.5 29t-90 87t-33.5 143v455h84v-466q0 -51 21.5 -89.5t59 -59.5t83.5 -21q47 0 84 21t58.5 59.5t21.5 89.5v466h84v-455q0 -85 -33.5 -143t-90 -87t-124.5 -29zM292 773l56 133h118l-102 -133h-72z" />
    <glyph glyph-name="Ucircumflex" unicode="&#xdb;" horiz-adv-x="656" 
d="M328 -14q-68 0 -124.5 29t-90 87t-33.5 143v455h84v-466q0 -51 21.5 -89.5t59 -59.5t83.5 -21q47 0 84 21t58.5 59.5t21.5 89.5v466h84v-455q0 -85 -33.5 -143t-90 -87t-124.5 -29zM194 773l99 133h70l99 -133h-70l-64 69l-64 -69h-70z" />
    <glyph glyph-name="Udieresis" unicode="&#xdc;" horiz-adv-x="656" 
d="M328 -14q-68 0 -124.5 29t-90 87t-33.5 143v455h84v-466q0 -51 21.5 -89.5t59 -59.5t83.5 -21q47 0 84 21t58.5 59.5t21.5 89.5v466h84v-455q0 -85 -33.5 -143t-90 -87t-124.5 -29zM248 790q-22 0 -38.5 16t-16.5 39q0 24 16.5 39.5t38.5 15.5q24 0 39.5 -15.5
t15.5 -39.5q0 -23 -15.5 -39t-39.5 -16zM408 790q-23 0 -39 16t-16 39q0 24 16 39.5t39 15.5t39 -15.5t16 -39.5q0 -23 -16 -39t-39 -16z" />
    <glyph glyph-name="Yacute" unicode="&#xdd;" horiz-adv-x="560" 
d="M237 0v291l-218 409h98l138 -269q8 -15 13 -27t12 -32q7 20 12.5 32t12.5 27l138 269h98l-218 -409v-291h-86zM244 773l56 133h118l-102 -133h-72z" />
    <glyph glyph-name="Thorn" unicode="&#xde;" horiz-adv-x="591" 
d="M88 0v700h86v-138h150q63 0 113 -26t79 -73.5t29 -112.5t-29 -112.5t-79 -73.5t-113 -26h-150v-138h-86zM174 214h145q61 0 100.5 36t39.5 100t-39.5 100t-100.5 36h-145v-272z" />
    <glyph glyph-name="germandbls" unicode="&#xdf;" horiz-adv-x="564" 
d="M78 0v531q0 58 26.5 99t70 62.5t93.5 21.5q59 0 101 -21.5t64.5 -60.5t22.5 -91q0 -47 -26.5 -84.5t-59.5 -55.5q38 -12 69.5 -36t50.5 -62t19 -93q0 -62 -28 -109.5t-78.5 -74t-118.5 -26.5h-62v76h62q61 0 102 37t41 99t-41 99t-102 37h-62v75h36q51 0 84.5 31.5
t33.5 80.5q0 48 -30.5 76.5t-77.5 28.5q-45 0 -76.5 -29t-31.5 -80v-531h-82z" />
    <glyph glyph-name="agrave" unicode="&#xe0;" horiz-adv-x="632" 
d="M290 -14q-70 0 -126.5 34.5t-89 93.5t-32.5 133t34.5 133t91.5 93.5t124 34.5q65 0 112 -24.5t74 -61.5v72h76v-494h-76v85q-27 -42 -74 -70.5t-114 -28.5zM301 60q47 0 87 23t65 65t25 99t-25 99t-65 65t-87 23q-48 0 -88.5 -23t-64.5 -65t-24 -99t24 -99t64.5 -65
t88.5 -23zM280 567l-102 133h118l56 -133h-72z" />
    <glyph glyph-name="aacute" unicode="&#xe1;" horiz-adv-x="632" 
d="M290 -14q-70 0 -126.5 34.5t-89 93.5t-32.5 133t34.5 133t91.5 93.5t124 34.5q65 0 112 -24.5t74 -61.5v72h76v-494h-76v85q-27 -42 -74 -70.5t-114 -28.5zM301 60q47 0 87 23t65 65t25 99t-25 99t-65 65t-87 23q-48 0 -88.5 -23t-64.5 -65t-24 -99t24 -99t64.5 -65
t88.5 -23zM280 567l56 133h118l-102 -133h-72z" />
    <glyph glyph-name="acircumflex" unicode="&#xe2;" horiz-adv-x="632" 
d="M290 -14q-70 0 -126.5 34.5t-89 93.5t-32.5 133t34.5 133t91.5 93.5t124 34.5q65 0 112 -24.5t74 -61.5v72h76v-494h-76v85q-27 -42 -74 -70.5t-114 -28.5zM301 60q47 0 87 23t65 65t25 99t-25 99t-65 65t-87 23q-48 0 -88.5 -23t-64.5 -65t-24 -99t24 -99t64.5 -65
t88.5 -23zM182 567l99 133h70l99 -133h-70l-64 69l-64 -69h-70z" />
    <glyph glyph-name="atilde" unicode="&#xe3;" horiz-adv-x="632" 
d="M290 -14q-70 0 -126.5 34.5t-89 93.5t-32.5 133t34.5 133t91.5 93.5t124 34.5q65 0 112 -24.5t74 -61.5v72h76v-494h-76v85q-27 -42 -74 -70.5t-114 -28.5zM301 60q47 0 87 23t65 65t25 99t-25 99t-65 65t-87 23q-48 0 -88.5 -23t-64.5 -65t-24 -99t24 -99t64.5 -65
t88.5 -23zM392 571q-26 0 -45.5 9t-35 20t-29.5 20t-30 9q-21 0 -33.5 -14.5t-12.5 -35.5h-72q0 51 27.5 86t78.5 35q26 0 45.5 -9t35 -20t29.5 -20t30 -9q21 0 33.5 14.5t12.5 35.5h72q0 -51 -27.5 -86t-78.5 -35z" />
    <glyph glyph-name="adieresis" unicode="&#xe4;" horiz-adv-x="632" 
d="M290 -14q-70 0 -126.5 34.5t-89 93.5t-32.5 133t34.5 133t91.5 93.5t124 34.5q65 0 112 -24.5t74 -61.5v72h76v-494h-76v85q-27 -42 -74 -70.5t-114 -28.5zM301 60q47 0 87 23t65 65t25 99t-25 99t-65 65t-87 23q-48 0 -88.5 -23t-64.5 -65t-24 -99t24 -99t64.5 -65
t88.5 -23zM236 584q-22 0 -38.5 16t-16.5 39q0 24 16.5 39.5t38.5 15.5q24 0 39.5 -15.5t15.5 -39.5q0 -23 -15.5 -39t-39.5 -16zM396 584q-23 0 -39 16t-16 39q0 24 16 39.5t39 15.5t39 -15.5t16 -39.5q0 -23 -16 -39t-39 -16z" />
    <glyph glyph-name="aring" unicode="&#xe5;" horiz-adv-x="632" 
d="M290 -14q-70 0 -126.5 34.5t-89 93.5t-32.5 133t34.5 133t91.5 93.5t124 34.5q65 0 112 -24.5t74 -61.5v72h76v-494h-76v85q-27 -42 -74 -70.5t-114 -28.5zM301 60q47 0 87 23t65 65t25 99t-25 99t-65 65t-87 23q-48 0 -88.5 -23t-64.5 -65t-24 -99t24 -99t64.5 -65
t88.5 -23zM316 560q-33 0 -60 16.5t-43.5 43.5t-16.5 60t16.5 60.5t43.5 43.5t60 16t60 -16t43.5 -43.5t16.5 -60.5t-16.5 -60t-43.5 -43.5t-60 -16.5zM316 610q29 0 49.5 20.5t20.5 49.5t-20.5 49.5t-49.5 20.5t-49.5 -20.5t-20.5 -49.5t20.5 -49.5t49.5 -20.5z" />
    <glyph glyph-name="ae" unicode="&#xe6;" horiz-adv-x="1007" 
d="M290 -14q-70 0 -126.5 34.5t-89 93.5t-32.5 133t34.5 133t91.5 93.5t124 34.5q65 0 112 -24.5t74 -61.5v72h76v-72q25 38 72.5 62t110.5 24q65 0 116 -30.5t80.5 -86t29.5 -131.5v-26h-409q1 -55 23.5 -94.5t60 -60.5t83.5 -21q62 0 101 30t54 75h78q-22 -77 -82 -127
t-151 -50q-55 0 -99 22.5t-68 56.5v-65h-76v85q-27 -42 -74 -70.5t-114 -28.5zM301 60q47 0 87 23t65 65t25 99t-25 99t-65 65t-87 23q-48 0 -88.5 -23t-64.5 -65t-24 -99t24 -99t64.5 -65t88.5 -23zM559 300h324q-8 65 -52 101.5t-112 36.5q-60 0 -103 -36.5t-57 -101.5z
" />
    <glyph glyph-name="ccedilla" unicode="&#xe7;" horiz-adv-x="571" 
d="M294 -14q-72 0 -129 34t-90 93t-33 134t33 134t90.5 93t128.5 34q65 0 114.5 -22t80 -61.5t39.5 -93.5h-82q-13 44 -52 73.5t-100 29.5q-46 0 -85 -22.5t-62 -64.5t-23 -100t23.5 -100t62.5 -64.5t84 -22.5q62 0 99 28.5t53 74.5h82q-12 -54 -43 -93.5t-79 -61.5
t-112 -22zM302 -228q-21 0 -39 3t-30 7v52q11 -4 25.5 -7t31.5 -3q29 0 42.5 10.5t13.5 29.5q0 18 -13.5 28.5t-35.5 10.5h-64v20l35 102h57l-29 -93l-31 4q17 5 32 8t31 3q35 0 58 -23t23 -61q0 -50 -33 -70.5t-74 -20.5z" />
    <glyph glyph-name="egrave" unicode="&#xe8;" horiz-adv-x="577" 
d="M291 -14q-73 0 -129.5 33.5t-88 92.5t-31.5 135t33 135t89 92.5t126 33.5q74 0 128.5 -30.5t84.5 -86t30 -131.5v-26h-439v66h393l-32 -17q-4 72 -48.5 113.5t-117.5 41.5q-71 0 -118 -51t-47 -142v-9q0 -56 22.5 -96t60.5 -61t84 -21q62 0 101 30t54 75h78
q-22 -77 -82 -127t-151 -50zM253 567l-102 133h118l56 -133h-72z" />
    <glyph glyph-name="eacute" unicode="&#xe9;" horiz-adv-x="577" 
d="M291 -14q-73 0 -129.5 33.5t-88 92.5t-31.5 135t33 135t89 92.5t126 33.5q74 0 128.5 -30.5t84.5 -86t30 -131.5v-26h-439v66h393l-32 -17q-4 72 -48.5 113.5t-117.5 41.5q-71 0 -118 -51t-47 -142v-9q0 -56 22.5 -96t60.5 -61t84 -21q62 0 101 30t54 75h78
q-22 -77 -82 -127t-151 -50zM253 567l56 133h118l-102 -133h-72z" />
    <glyph glyph-name="ecircumflex" unicode="&#xea;" horiz-adv-x="577" 
d="M291 -14q-73 0 -129.5 33.5t-88 92.5t-31.5 135t33 135t89 92.5t126 33.5q74 0 128.5 -30.5t84.5 -86t30 -131.5v-26h-439v66h393l-32 -17q-4 72 -48.5 113.5t-117.5 41.5q-71 0 -118 -51t-47 -142v-9q0 -56 22.5 -96t60.5 -61t84 -21q62 0 101 30t54 75h78
q-22 -77 -82 -127t-151 -50zM155 567l99 133h70l99 -133h-70l-64 69l-64 -69h-70z" />
    <glyph glyph-name="edieresis" unicode="&#xeb;" horiz-adv-x="577" 
d="M291 -14q-73 0 -129.5 33.5t-88 92.5t-31.5 135t33 135t89 92.5t126 33.5q74 0 128.5 -30.5t84.5 -86t30 -131.5v-26h-439v66h393l-32 -17q-4 72 -48.5 113.5t-117.5 41.5q-71 0 -118 -51t-47 -142v-9q0 -56 22.5 -96t60.5 -61t84 -21q62 0 101 30t54 75h78
q-22 -77 -82 -127t-151 -50zM209 584q-22 0 -38.5 16t-16.5 39q0 24 16.5 39.5t38.5 15.5q24 0 39.5 -15.5t15.5 -39.5q0 -23 -15.5 -39t-39.5 -16zM369 584q-23 0 -39 16t-16 39q0 24 16 39.5t39 15.5t39 -15.5t16 -39.5q0 -23 -16 -39t-39 -16z" />
    <glyph glyph-name="igrave" unicode="&#xec;" horiz-adv-x="238" 
d="M78 0v494h82v-494h-82zM83 567l-102 133h118l56 -133h-72z" />
    <glyph glyph-name="iacute" unicode="&#xed;" horiz-adv-x="238" 
d="M78 0v494h82v-494h-82zM83 567l56 133h118l-102 -133h-72z" />
    <glyph glyph-name="icircumflex" unicode="&#xee;" horiz-adv-x="238" 
d="M78 0v494h82v-494h-82zM-15 567l99 133h70l99 -133h-70l-64 69l-64 -69h-70z" />
    <glyph glyph-name="idieresis" unicode="&#xef;" horiz-adv-x="238" 
d="M78 0v494h82v-494h-82zM39 584q-22 0 -38.5 16t-16.5 39q0 24 16.5 39.5t38.5 15.5q24 0 39.5 -15.5t15.5 -39.5q0 -23 -15.5 -39t-39.5 -16zM199 584q-23 0 -39 16t-16 39q0 24 16 39.5t39 15.5t39 -15.5t16 -39.5q0 -23 -16 -39t-39 -16z" />
    <glyph glyph-name="eth" unicode="&#xf0;" horiz-adv-x="570" 
d="M284 -14q-68 0 -123 31t-87 85t-32 123q0 68 33 120t85 81.5t109 29.5q68 0 116 -29.5t69 -70.5l-4 -22q-18 75 -59.5 136.5t-100 107.5t-128.5 72l36 64q69 -25 129 -68t105 -101.5t70.5 -130t25.5 -152.5q0 -86 -29.5 -148t-84 -95t-130.5 -33zM284 60q45 0 81.5 20
t58.5 56t22 85t-22 85t-58.5 56t-81.5 20q-44 0 -80.5 -20t-58 -56t-21.5 -85t21.5 -85t58 -56t80.5 -20zM200 483l-31 63l284 138l31 -63z" />
    <glyph glyph-name="ntilde" unicode="&#xf1;" horiz-adv-x="557" 
d="M78 0v494h77v-69q17 32 56.5 57.5t99.5 25.5q81 0 125 -51t44 -130v-327h-82v308q0 61 -36 94.5t-83 33.5q-46 0 -82.5 -33.5t-36.5 -94.5v-308h-82zM355 571q-26 0 -45.5 9t-35 20t-29.5 20t-30 9q-21 0 -33.5 -14.5t-12.5 -35.5h-72q0 51 27.5 86t78.5 35q26 0 45.5 -9
t35 -20t29.5 -20t30 -9q21 0 33.5 14.5t12.5 35.5h72q0 -51 -27.5 -86t-78.5 -35z" />
    <glyph glyph-name="ograve" unicode="&#xf2;" horiz-adv-x="606" 
d="M303 -14q-75 0 -134 34.5t-93 93.5t-34 133t34 133t93 93.5t134 34.5q76 0 134.5 -34.5t92.5 -93.5t34 -133t-34 -133t-92.5 -93.5t-134.5 -34.5zM303 60q49 0 89.5 22.5t65 64.5t24.5 100t-24.5 100t-65 64.5t-89.5 22.5q-48 0 -89 -22.5t-65.5 -64.5t-24.5 -100
t24.5 -100t65.5 -64.5t89 -22.5zM267 567l-102 133h118l56 -133h-72z" />
    <glyph glyph-name="oacute" unicode="&#xf3;" horiz-adv-x="606" 
d="M303 -14q-75 0 -134 34.5t-93 93.5t-34 133t34 133t93 93.5t134 34.5q76 0 134.5 -34.5t92.5 -93.5t34 -133t-34 -133t-92.5 -93.5t-134.5 -34.5zM303 60q49 0 89.5 22.5t65 64.5t24.5 100t-24.5 100t-65 64.5t-89.5 22.5q-48 0 -89 -22.5t-65.5 -64.5t-24.5 -100
t24.5 -100t65.5 -64.5t89 -22.5zM267 567l56 133h118l-102 -133h-72z" />
    <glyph glyph-name="ocircumflex" unicode="&#xf4;" horiz-adv-x="606" 
d="M303 -14q-75 0 -134 34.5t-93 93.5t-34 133t34 133t93 93.5t134 34.5q76 0 134.5 -34.5t92.5 -93.5t34 -133t-34 -133t-92.5 -93.5t-134.5 -34.5zM303 60q49 0 89.5 22.5t65 64.5t24.5 100t-24.5 100t-65 64.5t-89.5 22.5q-48 0 -89 -22.5t-65.5 -64.5t-24.5 -100
t24.5 -100t65.5 -64.5t89 -22.5zM169 567l99 133h70l99 -133h-70l-64 69l-64 -69h-70z" />
    <glyph glyph-name="otilde" unicode="&#xf5;" horiz-adv-x="606" 
d="M303 -14q-75 0 -134 34.5t-93 93.5t-34 133t34 133t93 93.5t134 34.5q76 0 134.5 -34.5t92.5 -93.5t34 -133t-34 -133t-92.5 -93.5t-134.5 -34.5zM303 60q49 0 89.5 22.5t65 64.5t24.5 100t-24.5 100t-65 64.5t-89.5 22.5q-48 0 -89 -22.5t-65.5 -64.5t-24.5 -100
t24.5 -100t65.5 -64.5t89 -22.5zM379 571q-26 0 -45.5 9t-35 20t-29.5 20t-30 9q-21 0 -33.5 -14.5t-12.5 -35.5h-72q0 51 27.5 86t78.5 35q26 0 45.5 -9t35 -20t29.5 -20t30 -9q21 0 33.5 14.5t12.5 35.5h72q0 -51 -27.5 -86t-78.5 -35z" />
    <glyph glyph-name="odieresis" unicode="&#xf6;" horiz-adv-x="606" 
d="M303 -14q-75 0 -134 34.5t-93 93.5t-34 133t34 133t93 93.5t134 34.5q76 0 134.5 -34.5t92.5 -93.5t34 -133t-34 -133t-92.5 -93.5t-134.5 -34.5zM303 60q49 0 89.5 22.5t65 64.5t24.5 100t-24.5 100t-65 64.5t-89.5 22.5q-48 0 -89 -22.5t-65.5 -64.5t-24.5 -100
t24.5 -100t65.5 -64.5t89 -22.5zM223 584q-22 0 -38.5 16t-16.5 39q0 24 16.5 39.5t38.5 15.5q24 0 39.5 -15.5t15.5 -39.5q0 -23 -15.5 -39t-39.5 -16zM383 584q-23 0 -39 16t-16 39q0 24 16 39.5t39 15.5t39 -15.5t16 -39.5q0 -23 -16 -39t-39 -16z" />
    <glyph glyph-name="divide" unicode="&#xf7;" horiz-adv-x="482" 
d="M241 446q-25 0 -41.5 17t-16.5 41q0 25 16.5 41.5t41.5 16.5t41.5 -16.5t16.5 -41.5q0 -24 -16.5 -41t-41.5 -17zM241 138q-25 0 -41.5 17t-16.5 41q0 25 16.5 41.5t41.5 16.5t41.5 -16.5t16.5 -41.5q0 -24 -16.5 -41t-41.5 -17zM35 315v70h412v-70h-412z" />
    <glyph glyph-name="oslash" unicode="&#xf8;" horiz-adv-x="606" 
d="M73 -54l378 602h82l-378 -602h-82zM303 -14q-75 0 -134 34.5t-93 93.5t-34 133t34 133t93 93.5t134 34.5q76 0 134.5 -34.5t92.5 -93.5t34 -133t-34 -133t-92.5 -93.5t-134.5 -34.5zM303 60q49 0 89.5 22.5t65 64.5t24.5 100t-24.5 100t-65 64.5t-89.5 22.5
q-48 0 -89 -22.5t-65.5 -64.5t-24.5 -100t24.5 -100t65.5 -64.5t89 -22.5z" />
    <glyph glyph-name="ugrave" unicode="&#xf9;" horiz-adv-x="557" 
d="M246 -14q-51 0 -89 24t-59 66t-21 97v321h82v-308q0 -61 34.5 -94.5t84.5 -33.5t84.5 33.5t34.5 94.5v308h82v-494h-77v69q-17 -33 -55.5 -58t-100.5 -25zM242 567l-102 133h118l56 -133h-72z" />
    <glyph glyph-name="uacute" unicode="&#xfa;" horiz-adv-x="557" 
d="M246 -14q-51 0 -89 24t-59 66t-21 97v321h82v-308q0 -61 34.5 -94.5t84.5 -33.5t84.5 33.5t34.5 94.5v308h82v-494h-77v69q-17 -33 -55.5 -58t-100.5 -25zM242 567l56 133h118l-102 -133h-72z" />
    <glyph glyph-name="ucircumflex" unicode="&#xfb;" horiz-adv-x="557" 
d="M246 -14q-51 0 -89 24t-59 66t-21 97v321h82v-308q0 -61 34.5 -94.5t84.5 -33.5t84.5 33.5t34.5 94.5v308h82v-494h-77v69q-17 -33 -55.5 -58t-100.5 -25zM144 567l99 133h70l99 -133h-70l-64 69l-64 -69h-70z" />
    <glyph glyph-name="udieresis" unicode="&#xfc;" horiz-adv-x="557" 
d="M246 -14q-51 0 -89 24t-59 66t-21 97v321h82v-308q0 -61 34.5 -94.5t84.5 -33.5t84.5 33.5t34.5 94.5v308h82v-494h-77v69q-17 -33 -55.5 -58t-100.5 -25zM198 584q-22 0 -38.5 16t-16.5 39q0 24 16.5 39.5t38.5 15.5q24 0 39.5 -15.5t15.5 -39.5q0 -23 -15.5 -39
t-39.5 -16zM358 584q-23 0 -39 16t-16 39q0 24 16 39.5t39 15.5t39 -15.5t16 -39.5q0 -23 -16 -39t-39 -16z" />
    <glyph glyph-name="yacute" unicode="&#xfd;" horiz-adv-x="501" 
d="M48 -200v76h58q24 0 36.5 8.5t21.5 30.5l34 85l-186 494h91l122 -328q5 -15 9 -30.5t8 -36.5v0v0l152 395h90l-241 -605q-17 -43 -46.5 -66t-79.5 -23h-69zM213 567l56 133h118l-102 -133h-72z" />
    <glyph glyph-name="thorn" unicode="&#xfe;" horiz-adv-x="632" 
d="M78 -200v900h82v-283q24 38 73 64.5t109 26.5q71 0 127 -34.5t88.5 -93.5t32.5 -133q0 -55 -20 -103t-54.5 -83t-79.5 -55t-96 -20q-67 0 -111.5 27t-68.5 59v-272h-82zM331 60q49 0 89 23t64 65t24 99t-24 99t-64 65t-89 23q-46 0 -86.5 -23t-65.5 -65t-25 -99t25 -99
t65.5 -65t86.5 -23z" />
    <glyph glyph-name="ydieresis" unicode="&#xff;" horiz-adv-x="501" 
d="M48 -200v76h58q24 0 36.5 8.5t21.5 30.5l34 85l-186 494h91l122 -328q5 -15 9 -30.5t8 -36.5v0v0l152 395h90l-241 -605q-17 -43 -46.5 -66t-79.5 -23h-69zM169 584q-22 0 -38.5 16t-16.5 39q0 24 16.5 39.5t38.5 15.5q24 0 39.5 -15.5t15.5 -39.5q0 -23 -15.5 -39
t-39.5 -16zM329 584q-23 0 -39 16t-16 39q0 24 16 39.5t39 15.5t39 -15.5t16 -39.5q0 -23 -16 -39t-39 -16z" />
    <glyph glyph-name="Amacron" unicode="&#x100;" horiz-adv-x="654" 
d="M9 0l269 700h98l269 -700h-89l-211 557q-5 14 -9 24.5t-9 23.5q-4 -13 -8.5 -23.5t-9.5 -24.5l-211 -557h-89zM135 182v78h384v-78h-384zM207 810v66h242v-66h-242z" />
    <glyph glyph-name="amacron" unicode="&#x101;" horiz-adv-x="632" 
d="M290 -14q-70 0 -126.5 34.5t-89 93.5t-32.5 133t34.5 133t91.5 93.5t124 34.5q65 0 112 -24.5t74 -61.5v72h76v-494h-76v85q-27 -42 -74 -70.5t-114 -28.5zM301 60q47 0 87 23t65 65t25 99t-25 99t-65 65t-87 23q-48 0 -88.5 -23t-64.5 -65t-24 -99t24 -99t64.5 -65
t88.5 -23zM195 604v66h242v-66h-242z" />
    <glyph glyph-name="Abreve" unicode="&#x102;" horiz-adv-x="654" 
d="M9 0l269 700h98l269 -700h-89l-211 557q-5 14 -9 24.5t-9 23.5q-4 -13 -8.5 -23.5t-9.5 -24.5l-211 -557h-89zM135 182v78h384v-78h-384zM328 780q-38 0 -66.5 17t-44 46t-15.5 63h58q0 -32 18.5 -52t49.5 -20t49.5 20t18.5 52h58q0 -34 -15.5 -63t-44 -46t-66.5 -17z
" />
    <glyph glyph-name="abreve" unicode="&#x103;" horiz-adv-x="632" 
d="M290 -14q-70 0 -126.5 34.5t-89 93.5t-32.5 133t34.5 133t91.5 93.5t124 34.5q65 0 112 -24.5t74 -61.5v72h76v-494h-76v85q-27 -42 -74 -70.5t-114 -28.5zM301 60q47 0 87 23t65 65t25 99t-25 99t-65 65t-87 23q-48 0 -88.5 -23t-64.5 -65t-24 -99t24 -99t64.5 -65
t88.5 -23zM316 574q-38 0 -66.5 17t-44 46t-15.5 63h58q0 -32 18.5 -52t49.5 -20t49.5 20t18.5 52h58q0 -34 -15.5 -63t-44 -46t-66.5 -17z" />
    <glyph glyph-name="Aogonek" unicode="&#x104;" horiz-adv-x="654" 
d="M9 0l269 700h98l269 -700h-89l-211 557q-5 14 -9 24.5t-9 23.5q-4 -13 -8.5 -23.5t-9.5 -24.5l-211 -557h-89zM135 182v78h384v-78h-384zM590 -200q-40 0 -67 25.5t-27 67.5q0 41 23.5 72t54.5 43l71 -8q-28 -16 -49.5 -36.5t-21.5 -47.5q0 -21 12 -33t31 -12
q14 0 23.5 2.5t19.5 6.5v-67q-15 -6 -31 -9.5t-39 -3.5z" />
    <glyph glyph-name="aogonek" unicode="&#x105;" horiz-adv-x="632" 
d="M290 -14q-70 0 -126.5 34.5t-89 93.5t-32.5 133t34.5 133t91.5 93.5t124 34.5q65 0 112 -24.5t74 -61.5v72h76v-494h-76v85q-27 -42 -74 -70.5t-114 -28.5zM301 60q47 0 87 23t65 65t25 99t-25 99t-65 65t-87 23q-48 0 -88.5 -23t-64.5 -65t-24 -99t24 -99t64.5 -65
t88.5 -23zM499 -200q-40 0 -67 25.5t-27 67.5q0 41 23.5 72t54.5 43l71 -8q-28 -16 -49.5 -36.5t-21.5 -47.5q0 -21 12 -33t31 -12q14 0 23.5 2.5t19.5 6.5v-67q-15 -6 -31 -9.5t-39 -3.5z" />
    <glyph glyph-name="Cacute" unicode="&#x106;" horiz-adv-x="744" 
d="M384 -14q-66 0 -127 24t-109.5 71t-77 114.5t-28.5 154.5t28.5 154.5t77 114.5t110 71t126.5 24q82 0 149.5 -31.5t112.5 -89t58 -137.5h-86q-13 57 -47.5 97.5t-83 61.5t-103.5 21q-65 0 -123.5 -32.5t-95.5 -96t-37 -157.5q0 -93 37 -157t95.5 -96.5t123.5 -32.5
q85 0 150 47.5t84 133.5h86q-13 -80 -59 -138t-113.5 -89.5t-147.5 -31.5zM348 773l56 133h118l-102 -133h-72z" />
    <glyph glyph-name="cacute" unicode="&#x107;" horiz-adv-x="571" 
d="M294 -14q-72 0 -129 34t-90 93t-33 134t33 134t90.5 93t128.5 34q65 0 114.5 -22t80 -61.5t39.5 -93.5h-82q-13 44 -52 73.5t-100 29.5q-46 0 -85 -22.5t-62 -64.5t-23 -100t23.5 -100t62.5 -64.5t84 -22.5q62 0 99 28.5t53 74.5h82q-12 -54 -43 -93.5t-79 -61.5
t-112 -22zM258 567l56 133h118l-102 -133h-72z" />
    <glyph glyph-name="Ccaron" unicode="&#x10c;" horiz-adv-x="744" 
d="M384 -14q-66 0 -127 24t-109.5 71t-77 114.5t-28.5 154.5t28.5 154.5t77 114.5t110 71t126.5 24q82 0 149.5 -31.5t112.5 -89t58 -137.5h-86q-13 57 -47.5 97.5t-83 61.5t-103.5 21q-65 0 -123.5 -32.5t-95.5 -96t-37 -157.5q0 -93 37 -157t95.5 -96.5t123.5 -32.5
q85 0 150 47.5t84 133.5h86q-13 -80 -59 -138t-113.5 -89.5t-147.5 -31.5zM349 773l-99 133h70l64 -69l64 69h70l-99 -133h-70z" />
    <glyph glyph-name="ccaron" unicode="&#x10d;" horiz-adv-x="571" 
d="M294 -14q-72 0 -129 34t-90 93t-33 134t33 134t90.5 93t128.5 34q65 0 114.5 -22t80 -61.5t39.5 -93.5h-82q-13 44 -52 73.5t-100 29.5q-46 0 -85 -22.5t-62 -64.5t-23 -100t23.5 -100t62.5 -64.5t84 -22.5q62 0 99 28.5t53 74.5h82q-12 -54 -43 -93.5t-79 -61.5
t-112 -22zM259 567l-99 133h70l64 -69l64 69h70l-99 -133h-70z" />
    <glyph glyph-name="Dcaron" unicode="&#x10e;" horiz-adv-x="664" 
d="M88 0v700h190q99 0 176.5 -41t122.5 -119.5t45 -189.5t-45 -189.5t-122.5 -119.5t-176.5 -41h-190zM174 78h98q76 0 135.5 31t94 91.5t34.5 149.5t-34.5 149.5t-94 91.5t-135.5 31h-98v-544zM257 773l-99 133h70l64 -69l64 69h70l-99 -133h-70z" />
    <glyph glyph-name="dcaron" unicode="&#x10f;" horiz-adv-x="712" 
d="M290 -14q-70 0 -126.5 34.5t-89 93.5t-32.5 133q0 56 20 103.5t54.5 82.5t79.5 55t96 20q65 0 111 -25t69 -57v274h82v-700h-76v85q-27 -42 -74 -70.5t-114 -28.5zM301 60q47 0 87 23t65 65t25 99t-25 99t-65 65t-87 23q-48 0 -88.5 -23t-64.5 -65t-24 -99t24 -99
t64.5 -65t88.5 -23zM622 498v48h8q28 0 44 12t19 43q-6 -4 -19 -4q-22 0 -38.5 16.5t-16.5 41.5t16.5 42t41.5 17q30 0 49 -21t19 -68q0 -62 -31 -94.5t-80 -32.5h-12z" />
    <glyph glyph-name="Dcroat" unicode="&#x110;" horiz-adv-x="664" 
d="M4 314v72h354v-72h-354zM88 0v700h190q99 0 176.5 -41t122.5 -119.5t45 -189.5t-45 -189.5t-122.5 -119.5t-176.5 -41h-190zM174 78h98q76 0 135.5 31t94 91.5t34.5 149.5t-34.5 149.5t-94 91.5t-135.5 31h-98v-544z" />
    <glyph glyph-name="dcroat" unicode="&#x111;" horiz-adv-x="632" 
d="M320 562v70h312v-70h-312zM290 -14q-70 0 -126.5 34.5t-89 93.5t-32.5 133q0 56 20 103.5t54.5 82.5t79.5 55t96 20q65 0 111 -25t69 -57v274h82v-700h-76v85q-27 -42 -74 -70.5t-114 -28.5zM301 60q47 0 87 23t65 65t25 99t-25 99t-65 65t-87 23q-48 0 -88.5 -23
t-64.5 -65t-24 -99t24 -99t64.5 -65t88.5 -23z" />
    <glyph glyph-name="Emacron" unicode="&#x112;" horiz-adv-x="554" 
d="M88 0v700h411v-78h-325v-211h274v-78h-274v-255h328v-78h-414zM174 810v66h242v-66h-242z" />
    <glyph glyph-name="emacron" unicode="&#x113;" horiz-adv-x="577" 
d="M291 -14q-73 0 -129.5 33.5t-88 92.5t-31.5 135t33 135t89 92.5t126 33.5q74 0 128.5 -30.5t84.5 -86t30 -131.5v-26h-439v66h393l-32 -17q-4 72 -48.5 113.5t-117.5 41.5q-71 0 -118 -51t-47 -142v-9q0 -56 22.5 -96t60.5 -61t84 -21q62 0 101 30t54 75h78
q-22 -77 -82 -127t-151 -50zM168 604v66h242v-66h-242z" />
    <glyph glyph-name="Edotaccent" unicode="&#x116;" horiz-adv-x="554" 
d="M88 0v700h411v-78h-325v-211h274v-78h-274v-255h328v-78h-414zM295 784q-25 0 -43 18t-18 43q0 26 18 43.5t43 17.5q26 0 43.5 -17.5t17.5 -43.5q0 -25 -17.5 -43t-43.5 -18z" />
    <glyph glyph-name="edotaccent" unicode="&#x117;" horiz-adv-x="577" 
d="M291 -14q-73 0 -129.5 33.5t-88 92.5t-31.5 135t33 135t89 92.5t126 33.5q74 0 128.5 -30.5t84.5 -86t30 -131.5v-26h-439v66h393l-32 -17q-4 72 -48.5 113.5t-117.5 41.5q-71 0 -118 -51t-47 -142v-9q0 -56 22.5 -96t60.5 -61t84 -21q62 0 101 30t54 75h78
q-22 -77 -82 -127t-151 -50zM289 578q-25 0 -43 18t-18 43q0 26 18 43.5t43 17.5q26 0 43.5 -17.5t17.5 -43.5q0 -25 -17.5 -43t-43.5 -18z" />
    <glyph glyph-name="Eogonek" unicode="&#x118;" horiz-adv-x="554" 
d="M88 0v700h411v-78h-325v-211h274v-78h-274v-255h328v-78h-414zM447 -200q-40 0 -67 25.5t-27 67.5q0 41 23.5 72t54.5 43l71 -8q-28 -16 -49.5 -36.5t-21.5 -47.5q0 -21 12 -33t31 -12q14 0 23.5 2.5t19.5 6.5v-67q-15 -6 -31 -9.5t-39 -3.5z" />
    <glyph glyph-name="eogonek" unicode="&#x119;" horiz-adv-x="577" 
d="M291 -14q-73 0 -129.5 33.5t-88 92.5t-31.5 135t33 135t89 92.5t126 33.5q74 0 128.5 -30.5t84.5 -86t30 -131.5v-26h-439v66h393l-32 -17q-4 72 -48.5 113.5t-117.5 41.5q-71 0 -118 -51t-47 -142v-9q0 -56 22.5 -96t60.5 -61t84 -21q62 0 101 30t54 75h78
q-22 -77 -82 -127t-151 -50zM322 -200q-40 0 -67 25.5t-27 67.5q0 41 23.5 72t54.5 43l71 -8q-28 -16 -49.5 -36.5t-21.5 -47.5q0 -21 12 -33t31 -12q14 0 23.5 2.5t19.5 6.5v-67q-15 -6 -31 -9.5t-39 -3.5z" />
    <glyph glyph-name="Ecaron" unicode="&#x11a;" horiz-adv-x="554" 
d="M88 0v700h411v-78h-325v-211h274v-78h-274v-255h328v-78h-414zM260 773l-99 133h70l64 -69l64 69h70l-99 -133h-70z" />
    <glyph glyph-name="ecaron" unicode="&#x11b;" horiz-adv-x="577" 
d="M291 -14q-73 0 -129.5 33.5t-88 92.5t-31.5 135t33 135t89 92.5t126 33.5q74 0 128.5 -30.5t84.5 -86t30 -131.5v-26h-439v66h393l-32 -17q-4 72 -48.5 113.5t-117.5 41.5q-71 0 -118 -51t-47 -142v-9q0 -56 22.5 -96t60.5 -61t84 -21q62 0 101 30t54 75h78
q-22 -77 -82 -127t-151 -50zM254 567l-99 133h70l64 -69l64 69h70l-99 -133h-70z" />
    <glyph glyph-name="Gbreve" unicode="&#x11e;" horiz-adv-x="749" 
d="M384 -14q-66 0 -127 24t-109.5 71t-77 114.5t-28.5 154.5t28.5 154.5t77 114.5t110 71t126.5 24q80 0 145.5 -27.5t109.5 -79t56 -122.5h-86q-12 48 -45.5 81.5t-80 51.5t-99.5 18q-65 0 -123.5 -32.5t-95.5 -96t-37 -157.5q0 -93 37 -157t95.5 -96.5t123.5 -32.5
q115 0 177.5 64t66.5 188l42 -38h-263v74h300v-27q0 -83 -24.5 -146.5t-68 -106.5t-102.5 -64.5t-128 -21.5zM385 780q-38 0 -66.5 17t-44 46t-15.5 63h58q0 -32 18.5 -52t49.5 -20t49.5 20t18.5 52h58q0 -34 -15.5 -63t-44 -46t-66.5 -17z" />
    <glyph glyph-name="gbreve" unicode="&#x11f;" horiz-adv-x="610" 
d="M295 -214q-70 0 -121.5 24.5t-79.5 65.5t-31 90h82q5 -46 42.5 -76t105.5 -30q72 0 114.5 37.5t42.5 110.5v91q-26 -38 -68.5 -62.5t-106.5 -24.5t-117 32t-84.5 88t-31.5 128q0 54 19 99.5t52 79t76 51.5t91 18q59 0 106.5 -24.5t69.5 -63.5v74h76v-484
q0 -66 -31 -116.5t-84.5 -79t-121.5 -28.5zM290 86q46 0 83.5 22t60 61.5t22.5 90.5q0 52 -22.5 91t-60 61t-83.5 22q-45 0 -83 -22t-60.5 -61t-22.5 -91q0 -51 22.5 -90.5t60.5 -61.5t83 -22zM305 574q-38 0 -66.5 17t-44 46t-15.5 63h58q0 -32 18.5 -52t49.5 -20t49.5 20
t18.5 52h58q0 -34 -15.5 -63t-44 -46t-66.5 -17z" />
    <glyph glyph-name="uni0122" unicode="&#x122;" horiz-adv-x="749" 
d="M384 -14q-66 0 -127 24t-109.5 71t-77 114.5t-28.5 154.5t28.5 154.5t77 114.5t110 71t126.5 24q80 0 145.5 -27.5t109.5 -79t56 -122.5h-86q-12 48 -45.5 81.5t-80 51.5t-99.5 18q-65 0 -123.5 -32.5t-95.5 -96t-37 -157.5q0 -93 37 -157t95.5 -96.5t123.5 -32.5
q115 0 177.5 64t66.5 188l42 -38h-263v74h300v-27q0 -83 -24.5 -146.5t-68 -106.5t-102.5 -64.5t-128 -21.5zM327 -256v44h11q27 0 41 12t16 43q-1 -1 -6 -2t-10 -1q-21 0 -34.5 14.5t-13.5 36.5q0 21 14.5 36t35.5 15q29 0 45.5 -20.5t16.5 -60.5q0 -59 -26 -88t-76 -29
h-14z" />
    <glyph glyph-name="uni0123" unicode="&#x123;" horiz-adv-x="610" 
d="M295 -214q-70 0 -121.5 24.5t-79.5 65.5t-31 90h82q5 -46 42.5 -76t105.5 -30q72 0 114.5 37.5t42.5 110.5v91q-26 -38 -68.5 -62.5t-106.5 -24.5t-117 32t-84.5 88t-31.5 128q0 54 19 99.5t52 79t76 51.5t91 18q59 0 106.5 -24.5t69.5 -63.5v74h76v-484
q0 -66 -31 -116.5t-84.5 -79t-121.5 -28.5zM290 86q46 0 83.5 22t60 61.5t22.5 90.5q0 52 -22.5 91t-60 61t-83.5 22q-45 0 -83 -22t-60.5 -61t-22.5 -91q0 -51 22.5 -90.5t60.5 -61.5t83 -22zM363 752v-44h-11q-27 0 -41 -12t-16 -43q1 1 6 2t10 1q21 0 34.5 -14.5
t13.5 -36.5q0 -21 -14.5 -36t-35.5 -15q-29 0 -45.5 20.5t-16.5 60.5q0 59 26 88t76 29h14z" />
    <glyph glyph-name="Imacron" unicode="&#x12a;" horiz-adv-x="262" 
d="M88 0v700h86v-700h-86zM10 810v66h242v-66h-242z" />
    <glyph glyph-name="imacron" unicode="&#x12b;" horiz-adv-x="238" 
d="M78 0v494h82v-494h-82zM-2 604v66h242v-66h-242z" />
    <glyph glyph-name="Iogonek" unicode="&#x12e;" horiz-adv-x="262" 
d="M88 0v700h86v-700h-86zM119 -200q-40 0 -67 25.5t-27 67.5q0 41 23.5 72t54.5 43l71 -8q-28 -16 -49.5 -36.5t-21.5 -47.5q0 -21 12 -33t31 -12q14 0 23.5 2.5t19.5 6.5v-67q-15 -6 -31 -9.5t-39 -3.5z" />
    <glyph glyph-name="iogonek" unicode="&#x12f;" horiz-adv-x="238" 
d="M78 0v494h82v-494h-82zM119 578q-25 0 -43 18t-18 43q0 26 18 43.5t43 17.5q26 0 43.5 -17.5t17.5 -43.5q0 -25 -17.5 -43t-43.5 -18zM105 -200q-40 0 -67 25.5t-27 67.5q0 41 23.5 72t54.5 43l71 -8q-28 -16 -49.5 -36.5t-21.5 -47.5q0 -21 12 -33t31 -12q14 0 23.5 2.5
t19.5 6.5v-67q-15 -6 -31 -9.5t-39 -3.5z" />
    <glyph glyph-name="Idotaccent" unicode="&#x130;" horiz-adv-x="262" 
d="M88 0v700h86v-700h-86zM131 784q-25 0 -43 18t-18 43q0 26 18 43.5t43 17.5q26 0 43.5 -17.5t17.5 -43.5q0 -25 -17.5 -43t-43.5 -18z" />
    <glyph glyph-name="dotlessi" unicode="&#x131;" horiz-adv-x="238" 
d="M78 0v494h82v-494h-82z" />
    <glyph glyph-name="uni0136" unicode="&#x136;" horiz-adv-x="572" 
d="M446 0l-277 339v26l271 335h107l-282 -346l287 -354h-106zM88 0v700h86v-700h-86zM248 -256v44h11q27 0 41 12t16 43q-1 -1 -6 -2t-10 -1q-21 0 -34.5 14.5t-13.5 36.5q0 21 14.5 36t35.5 15q29 0 45.5 -20.5t16.5 -60.5q0 -59 -26 -88t-76 -29h-14z" />
    <glyph glyph-name="uni0137" unicode="&#x137;" horiz-adv-x="482" 
d="M78 0v700h82v-700h-82zM353 0l-205 257h98l205 -257h-98zM148 257l195 237h99l-196 -237h-98zM183 -256v44h11q27 0 41 12t16 43q-1 -1 -6 -2t-10 -1q-21 0 -34.5 14.5t-13.5 36.5q0 21 14.5 36t35.5 15q29 0 45.5 -20.5t16.5 -60.5q0 -59 -26 -88t-76 -29h-14z" />
    <glyph glyph-name="Lacute" unicode="&#x139;" horiz-adv-x="554" 
d="M88 0v700h86v-622h328v-78h-414zM95 773l56 133h118l-102 -133h-72z" />
    <glyph glyph-name="lacute" unicode="&#x13a;" horiz-adv-x="238" 
d="M78 0v700h82v-700h-82zM83 773l56 133h118l-102 -133h-72z" />
    <glyph glyph-name="uni013B" unicode="&#x13b;" horiz-adv-x="554" 
d="M88 0v700h86v-622h328v-78h-414zM219 -256v44h11q27 0 41 12t16 43q-1 -1 -6 -2t-10 -1q-21 0 -34.5 14.5t-13.5 36.5q0 21 14.5 36t35.5 15q29 0 45.5 -20.5t16.5 -60.5q0 -59 -26 -88t-76 -29h-14z" />
    <glyph glyph-name="uni013C" unicode="&#x13c;" horiz-adv-x="238" 
d="M78 0v700h82v-700h-82zM61 -256v44h11q27 0 41 12t16 43q-1 -1 -6 -2t-10 -1q-21 0 -34.5 14.5t-13.5 36.5q0 21 14.5 36t35.5 15q29 0 45.5 -20.5t16.5 -60.5q0 -59 -26 -88t-76 -29h-14z" />
    <glyph glyph-name="Lcaron" unicode="&#x13d;" horiz-adv-x="554" 
d="M88 0v700h86v-622h328v-78h-414zM392 498v48h8q28 0 44 12t19 43q-6 -4 -19 -4q-22 0 -38.5 16.5t-16.5 41.5t16.5 42t41.5 17q30 0 49 -21t19 -68q0 -62 -31 -94.5t-80 -32.5h-12z" />
    <glyph glyph-name="lcaron" unicode="&#x13e;" horiz-adv-x="318" 
d="M78 0v700h82v-700h-82zM228 498v48h8q28 0 44 12t19 43q-6 -4 -19 -4q-22 0 -38.5 16.5t-16.5 41.5t16.5 42t41.5 17q30 0 49 -21t19 -68q0 -62 -31 -94.5t-80 -32.5h-12z" />
    <glyph glyph-name="Lslash" unicode="&#x141;" horiz-adv-x="562" 
d="M14 152v96l310 220v-96zM96 0v700h86v-622h328v-78h-414z" />
    <glyph glyph-name="lslash" unicode="&#x142;" horiz-adv-x="238" 
d="M14 162v98l210 158v-98zM78 0v700h82v-700h-82z" />
    <glyph glyph-name="Nacute" unicode="&#x143;" horiz-adv-x="730" 
d="M88 0v700h84l389 -569q-1 26 -1 47v47v475h82v-700h-83l-391 569q2 -26 2 -47v-47v-475h-82zM329 773l56 133h118l-102 -133h-72z" />
    <glyph glyph-name="nacute" unicode="&#x144;" horiz-adv-x="557" 
d="M78 0v494h77v-69q17 32 56.5 57.5t99.5 25.5q81 0 125 -51t44 -130v-327h-82v308q0 61 -36 94.5t-83 33.5q-46 0 -82.5 -33.5t-36.5 -94.5v-308h-82zM243 567l56 133h118l-102 -133h-72z" />
    <glyph glyph-name="uni0145" unicode="&#x145;" horiz-adv-x="730" 
d="M88 0v700h84l389 -569q-1 26 -1 47v47v475h82v-700h-83l-391 569q2 -26 2 -47v-47v-475h-82zM307 -256v44h11q27 0 41 12t16 43q-1 -1 -6 -2t-10 -1q-21 0 -34.5 14.5t-13.5 36.5q0 21 14.5 36t35.5 15q29 0 45.5 -20.5t16.5 -60.5q0 -59 -26 -88t-76 -29h-14z" />
    <glyph glyph-name="uni0146" unicode="&#x146;" horiz-adv-x="557" 
d="M78 0v494h77v-69q17 32 56.5 57.5t99.5 25.5q81 0 125 -51t44 -130v-327h-82v308q0 61 -36 94.5t-83 33.5q-46 0 -82.5 -33.5t-36.5 -94.5v-308h-82zM221 -256v44h11q27 0 41 12t16 43q-1 -1 -6 -2t-10 -1q-21 0 -34.5 14.5t-13.5 36.5q0 21 14.5 36t35.5 15
q29 0 45.5 -20.5t16.5 -60.5q0 -59 -26 -88t-76 -29h-14z" />
    <glyph glyph-name="Ncaron" unicode="&#x147;" horiz-adv-x="730" 
d="M88 0v700h84l389 -569q-1 26 -1 47v47v475h82v-700h-83l-391 569q2 -26 2 -47v-47v-475h-82zM330 773l-99 133h70l64 -69l64 69h70l-99 -133h-70z" />
    <glyph glyph-name="ncaron" unicode="&#x148;" horiz-adv-x="557" 
d="M78 0v494h77v-69q17 32 56.5 57.5t99.5 25.5q81 0 125 -51t44 -130v-327h-82v308q0 61 -36 94.5t-83 33.5q-46 0 -82.5 -33.5t-36.5 -94.5v-308h-82zM244 567l-99 133h70l64 -69l64 69h70l-99 -133h-70z" />
    <glyph glyph-name="Omacron" unicode="&#x14c;" horiz-adv-x="784" 
d="M392 -14q-68 0 -131 24t-112.5 71t-78 114.5t-28.5 154.5t28.5 154.5t78 114.5t112.5 71t131 24t131 -24t112.5 -71t78 -114.5t28.5 -154.5t-28.5 -154.5t-78 -114.5t-112.5 -71t-131 -24zM392 64q50 0 97 18.5t85 54.5t60 89.5t22 123.5t-22 123.5t-60 89.5t-85 54.5
t-97 18.5t-97 -18.5t-85 -54.5t-60 -89.5t-22 -123.5t22 -123.5t60 -89.5t85 -54.5t97 -18.5zM271 810v66h242v-66h-242z" />
    <glyph glyph-name="omacron" unicode="&#x14d;" horiz-adv-x="606" 
d="M303 -14q-75 0 -134 34.5t-93 93.5t-34 133t34 133t93 93.5t134 34.5q76 0 134.5 -34.5t92.5 -93.5t34 -133t-34 -133t-92.5 -93.5t-134.5 -34.5zM303 60q49 0 89.5 22.5t65 64.5t24.5 100t-24.5 100t-65 64.5t-89.5 22.5q-48 0 -89 -22.5t-65.5 -64.5t-24.5 -100
t24.5 -100t65.5 -64.5t89 -22.5zM182 604v66h242v-66h-242z" />
    <glyph glyph-name="Ohungarumlaut" unicode="&#x150;" horiz-adv-x="784" 
d="M392 -14q-68 0 -131 24t-112.5 71t-78 114.5t-28.5 154.5t28.5 154.5t78 114.5t112.5 71t131 24t131 -24t112.5 -71t78 -114.5t28.5 -154.5t-28.5 -154.5t-78 -114.5t-112.5 -71t-131 -24zM392 64q50 0 97 18.5t85 54.5t60 89.5t22 123.5t-22 123.5t-60 89.5t-85 54.5
t-97 18.5t-97 -18.5t-85 -54.5t-60 -89.5t-22 -123.5t22 -123.5t60 -89.5t85 -54.5t97 -18.5zM438 773l36 133h110l-78 -133h-68zM278 773l36 133h110l-78 -133h-68z" />
    <glyph glyph-name="ohungarumlaut" unicode="&#x151;" horiz-adv-x="606" 
d="M303 -14q-75 0 -134 34.5t-93 93.5t-34 133t34 133t93 93.5t134 34.5q76 0 134.5 -34.5t92.5 -93.5t34 -133t-34 -133t-92.5 -93.5t-134.5 -34.5zM303 60q49 0 89.5 22.5t65 64.5t24.5 100t-24.5 100t-65 64.5t-89.5 22.5q-48 0 -89 -22.5t-65.5 -64.5t-24.5 -100
t24.5 -100t65.5 -64.5t89 -22.5zM349 567l36 133h110l-78 -133h-68zM189 567l36 133h110l-78 -133h-68z" />
    <glyph glyph-name="OE" unicode="&#x152;" horiz-adv-x="1118" 
d="M392 -14q-68 0 -131 24t-112.5 71t-78 114.5t-28.5 154.5t28.5 154.5t78 114.5t112.5 71t131 24q60 0 111.5 -18t89.5 -48.5t59 -68.5v121h411v-78h-325v-211h274v-78h-274v-255h328v-78h-414v124q-46 -71 -115 -104.5t-145 -33.5zM392 64q50 0 97 18.5t85 54.5t60 89.5
t22 123.5t-22 123.5t-60 89.5t-85 54.5t-97 18.5t-97 -18.5t-85 -54.5t-60 -89.5t-22 -123.5t22 -123.5t60 -89.5t85 -54.5t97 -18.5z" />
    <glyph glyph-name="oe" unicode="&#x153;" horiz-adv-x="1017" 
d="M303 -14q-75 0 -134 34.5t-93 93.5t-34 133t34 133t93 93.5t134 34.5q71 0 129 -31.5t90 -82.5q31 50 86 82t122 32q74 0 128.5 -30.5t84.5 -86t30 -131.5v-26h-409q1 -55 23.5 -94.5t60 -60.5t83.5 -21q62 0 101 30t54 75h78q-22 -77 -82 -127t-151 -50q-72 0 -126 31.5
t-86 89.5q-34 -55 -89 -88t-127 -33zM303 60q49 0 89.5 22.5t65 64.5t24.5 100t-24.5 100t-65 64.5t-89.5 22.5q-48 0 -89 -22.5t-65.5 -64.5t-24.5 -100t24.5 -100t65.5 -64.5t89 -22.5zM569 300h324q-8 65 -52 101.5t-112 36.5q-60 0 -103 -36.5t-57 -101.5z" />
    <glyph glyph-name="Racute" unicode="&#x154;" horiz-adv-x="615" 
d="M88 0v700h239q68 0 119.5 -27t80.5 -74t29 -109q0 -56 -24 -100t-67 -71.5t-101 -34.5l-16 -4h-174v-280h-86zM486 0l-159 310l89 8l163 -318h-93zM174 356h148q70 0 109 35.5t39 98.5t-39 98.5t-109 35.5h-148v-268zM272 773l56 133h118l-102 -133h-72z" />
    <glyph glyph-name="racute" unicode="&#x155;" horiz-adv-x="375" 
d="M78 0v494h76v-70h6v-424h-82zM160 340l-6 84q8 37 32.5 53.5t58.5 16.5h91v-76h-99q-77 0 -77 -78zM177 567l56 133h118l-102 -133h-72z" />
    <glyph glyph-name="uni0156" unicode="&#x156;" horiz-adv-x="615" 
d="M88 0v700h239q68 0 119.5 -27t80.5 -74t29 -109q0 -56 -24 -100t-67 -71.5t-101 -34.5l-16 -4h-174v-280h-86zM486 0l-159 310l89 8l163 -318h-93zM174 356h148q70 0 109 35.5t39 98.5t-39 98.5t-109 35.5h-148v-268zM257 -256v44h11q27 0 41 12t16 43q-1 -1 -6 -2
t-10 -1q-21 0 -34.5 14.5t-13.5 36.5q0 21 14.5 36t35.5 15q29 0 45.5 -20.5t16.5 -60.5q0 -59 -26 -88t-76 -29h-14z" />
    <glyph glyph-name="uni0157" unicode="&#x157;" horiz-adv-x="375" 
d="M78 0v494h76v-70h6v-424h-82zM160 340l-6 84q8 37 32.5 53.5t58.5 16.5h91v-76h-99q-77 0 -77 -78zM61 -256v44h11q27 0 41 12t16 43q-1 -1 -6 -2t-10 -1q-21 0 -34.5 14.5t-13.5 36.5q0 21 14.5 36t35.5 15q29 0 45.5 -20.5t16.5 -60.5q0 -59 -26 -88t-76 -29h-14z" />
    <glyph glyph-name="Rcaron" unicode="&#x158;" horiz-adv-x="615" 
d="M88 0v700h239q68 0 119.5 -27t80.5 -74t29 -109q0 -56 -24 -100t-67 -71.5t-101 -34.5l-16 -4h-174v-280h-86zM486 0l-159 310l89 8l163 -318h-93zM174 356h148q70 0 109 35.5t39 98.5t-39 98.5t-109 35.5h-148v-268zM273 773l-99 133h70l64 -69l64 69h70l-99 -133h-70z
" />
    <glyph glyph-name="rcaron" unicode="&#x159;" horiz-adv-x="375" 
d="M78 0v494h76v-70h6v-424h-82zM160 340l-6 84q8 37 32.5 53.5t58.5 16.5h91v-76h-99q-77 0 -77 -78zM178 567l-99 133h70l64 -69l64 69h70l-99 -133h-70z" />
    <glyph glyph-name="Sacute" unicode="&#x15a;" horiz-adv-x="567" 
d="M285 -14q-70 0 -122 28t-80.5 77.5t-28.5 113.5h86q0 -65 43 -103t106 -38q65 0 103 35t38 96q0 33 -17.5 56t-47 39.5t-67.5 28.5l-69 23q-72 24 -116.5 69.5t-44.5 116.5q0 56 28 97.5t76.5 65t109.5 23.5q69 0 117.5 -25t74 -68.5t25.5 -99.5h-85q0 51 -36.5 84
t-95.5 33t-93.5 -30.5t-34.5 -69.5t26.5 -69.5t87.5 -51.5l95 -33q47 -16 81.5 -41.5t53 -60.5t18.5 -81q0 -58 -27 -107t-78.5 -78.5t-125.5 -29.5zM248 773l56 133h118l-102 -133h-72z" />
    <glyph glyph-name="sacute" unicode="&#x15b;" horiz-adv-x="455" 
d="M230 -14q-57 0 -98.5 22.5t-63.5 62t-22 89.5h82q0 -43 27 -72.5t75 -29.5q44 0 71.5 22.5t27.5 56.5q0 32 -19.5 49.5t-64.5 30.5l-73 21q-51 15 -82.5 48.5t-31.5 84.5q0 43 23.5 73.5t62 47t84.5 16.5q50 0 87 -19t58 -52t21 -74h-78q0 32 -25.5 53.5t-62.5 21.5
q-38 0 -64 -16.5t-26 -46.5q0 -28 19.5 -45t62.5 -30l73 -22q51 -15 84.5 -46.5t33.5 -87.5q0 -46 -24 -81.5t-64.5 -56t-92.5 -20.5zM192 567l56 133h118l-102 -133h-72z" />
    <glyph glyph-name="Scedilla" unicode="&#x15e;" horiz-adv-x="567" 
d="M285 -14q-70 0 -122 28t-80.5 77.5t-28.5 113.5h86q0 -65 43 -103t106 -38q65 0 103 35t38 96q0 33 -17.5 56t-47 39.5t-67.5 28.5l-69 23q-72 24 -116.5 69.5t-44.5 116.5q0 56 28 97.5t76.5 65t109.5 23.5q69 0 117.5 -25t74 -68.5t25.5 -99.5h-85q0 51 -36.5 84
t-95.5 33t-93.5 -30.5t-34.5 -69.5t26.5 -69.5t87.5 -51.5l95 -33q47 -16 81.5 -41.5t53 -60.5t18.5 -81q0 -58 -27 -107t-78.5 -78.5t-125.5 -29.5zM292 -228q-21 0 -39 3t-30 7v52q11 -4 25.5 -7t31.5 -3q29 0 42.5 10.5t13.5 29.5q0 18 -13.5 28.5t-35.5 10.5h-64v20
l35 102h57l-29 -93l-31 4q17 5 32 8t31 3q35 0 58 -23t23 -61q0 -50 -33 -70.5t-74 -20.5z" />
    <glyph glyph-name="scedilla" unicode="&#x15f;" horiz-adv-x="455" 
d="M230 -14q-57 0 -98.5 22.5t-63.5 62t-22 89.5h82q0 -43 27 -72.5t75 -29.5q44 0 71.5 22.5t27.5 56.5q0 32 -19.5 49.5t-64.5 30.5l-73 21q-51 15 -82.5 48.5t-31.5 84.5q0 43 23.5 73.5t62 47t84.5 16.5q50 0 87 -19t58 -52t21 -74h-78q0 32 -25.5 53.5t-62.5 21.5
q-38 0 -64 -16.5t-26 -46.5q0 -28 19.5 -45t62.5 -30l73 -22q51 -15 84.5 -46.5t33.5 -87.5q0 -46 -24 -81.5t-64.5 -56t-92.5 -20.5zM236 -228q-21 0 -39 3t-30 7v52q11 -4 25.5 -7t31.5 -3q29 0 42.5 10.5t13.5 29.5q0 18 -13.5 28.5t-35.5 10.5h-64v20l35 102h57l-29 -93
l-31 4q17 5 32 8t31 3q35 0 58 -23t23 -61q0 -50 -33 -70.5t-74 -20.5z" />
    <glyph glyph-name="Scaron" unicode="&#x160;" horiz-adv-x="567" 
d="M285 -14q-70 0 -122 28t-80.5 77.5t-28.5 113.5h86q0 -65 43 -103t106 -38q65 0 103 35t38 96q0 33 -17.5 56t-47 39.5t-67.5 28.5l-69 23q-72 24 -116.5 69.5t-44.5 116.5q0 56 28 97.5t76.5 65t109.5 23.5q69 0 117.5 -25t74 -68.5t25.5 -99.5h-85q0 51 -36.5 84
t-95.5 33t-93.5 -30.5t-34.5 -69.5t26.5 -69.5t87.5 -51.5l95 -33q47 -16 81.5 -41.5t53 -60.5t18.5 -81q0 -58 -27 -107t-78.5 -78.5t-125.5 -29.5zM249 773l-99 133h70l64 -69l64 69h70l-99 -133h-70z" />
    <glyph glyph-name="scaron" unicode="&#x161;" horiz-adv-x="455" 
d="M230 -14q-57 0 -98.5 22.5t-63.5 62t-22 89.5h82q0 -43 27 -72.5t75 -29.5q44 0 71.5 22.5t27.5 56.5q0 32 -19.5 49.5t-64.5 30.5l-73 21q-51 15 -82.5 48.5t-31.5 84.5q0 43 23.5 73.5t62 47t84.5 16.5q50 0 87 -19t58 -52t21 -74h-78q0 32 -25.5 53.5t-62.5 21.5
q-38 0 -64 -16.5t-26 -46.5q0 -28 19.5 -45t62.5 -30l73 -22q51 -15 84.5 -46.5t33.5 -87.5q0 -46 -24 -81.5t-64.5 -56t-92.5 -20.5zM193 567l-99 133h70l64 -69l64 69h70l-99 -133h-70z" />
    <glyph glyph-name="uni0162" unicode="&#x162;" horiz-adv-x="590" 
d="M252 0v700h86v-700h-86zM40 622v78h510v-78h-510zM303 -228q-21 0 -39 3t-30 7v52q11 -4 25.5 -7t31.5 -3q29 0 42.5 10.5t13.5 29.5q0 18 -13.5 28.5t-35.5 10.5h-64v20l35 102h57l-29 -93l-31 4q17 5 32 8t31 3q35 0 58 -23t23 -61q0 -50 -33 -70.5t-74 -20.5z" />
    <glyph glyph-name="uni0163" unicode="&#x163;" horiz-adv-x="342" 
d="M221 0q-59 0 -91 35t-32 95v490h82v-483q0 -61 59 -61h58v-76h-76zM25 426v68h272v-68h-272zM198 -228q-21 0 -39 3t-30 7v52q11 -4 25.5 -7t31.5 -3q29 0 42.5 10.5t13.5 29.5q0 18 -13.5 28.5t-35.5 10.5h-64v20l35 102h57l-29 -93l-31 4q17 5 32 8t31 3q35 0 58 -23
t23 -61q0 -50 -33 -70.5t-74 -20.5z" />
    <glyph glyph-name="Tcaron" unicode="&#x164;" horiz-adv-x="590" 
d="M252 0v700h86v-700h-86zM40 622v78h510v-78h-510zM260 773l-99 133h70l64 -69l64 69h70l-99 -133h-70z" />
    <glyph glyph-name="tcaron" unicode="&#x165;" horiz-adv-x="342" 
d="M221 0q-59 0 -91 35t-32 95v490h82v-483q0 -61 59 -61h58v-76h-76zM25 426v68h272v-68h-272zM234 548v48h8q28 0 44 12t19 43q-6 -4 -19 -4q-22 0 -38.5 16.5t-16.5 41.5t16.5 42t41.5 17q30 0 49 -21t19 -68q0 -62 -31 -94.5t-80 -32.5h-12z" />
    <glyph glyph-name="Umacron" unicode="&#x16a;" horiz-adv-x="656" 
d="M328 -14q-68 0 -124.5 29t-90 87t-33.5 143v455h84v-466q0 -51 21.5 -89.5t59 -59.5t83.5 -21q47 0 84 21t58.5 59.5t21.5 89.5v466h84v-455q0 -85 -33.5 -143t-90 -87t-124.5 -29zM207 810v66h242v-66h-242z" />
    <glyph glyph-name="umacron" unicode="&#x16b;" horiz-adv-x="557" 
d="M246 -14q-51 0 -89 24t-59 66t-21 97v321h82v-308q0 -61 34.5 -94.5t84.5 -33.5t84.5 33.5t34.5 94.5v308h82v-494h-77v69q-17 -33 -55.5 -58t-100.5 -25zM157 604v66h242v-66h-242z" />
    <glyph glyph-name="Uring" unicode="&#x16e;" horiz-adv-x="656" 
d="M328 -14q-68 0 -124.5 29t-90 87t-33.5 143v455h84v-466q0 -51 21.5 -89.5t59 -59.5t83.5 -21q47 0 84 21t58.5 59.5t21.5 89.5v466h84v-455q0 -85 -33.5 -143t-90 -87t-124.5 -29zM328 766q-33 0 -60 16.5t-43.5 43.5t-16.5 60t16.5 60.5t43.5 43.5t60 16t60 -16
t43.5 -43.5t16.5 -60.5t-16.5 -60t-43.5 -43.5t-60 -16.5zM328 816q29 0 49.5 20.5t20.5 49.5t-20.5 49.5t-49.5 20.5t-49.5 -20.5t-20.5 -49.5t20.5 -49.5t49.5 -20.5z" />
    <glyph glyph-name="uring" unicode="&#x16f;" horiz-adv-x="557" 
d="M246 -14q-51 0 -89 24t-59 66t-21 97v321h82v-308q0 -61 34.5 -94.5t84.5 -33.5t84.5 33.5t34.5 94.5v308h82v-494h-77v69q-17 -33 -55.5 -58t-100.5 -25zM278 560q-33 0 -60 16.5t-43.5 43.5t-16.5 60t16.5 60.5t43.5 43.5t60 16t60 -16t43.5 -43.5t16.5 -60.5
t-16.5 -60t-43.5 -43.5t-60 -16.5zM278 610q29 0 49.5 20.5t20.5 49.5t-20.5 49.5t-49.5 20.5t-49.5 -20.5t-20.5 -49.5t20.5 -49.5t49.5 -20.5z" />
    <glyph glyph-name="Uhungarumlaut" unicode="&#x170;" horiz-adv-x="656" 
d="M328 -14q-68 0 -124.5 29t-90 87t-33.5 143v455h84v-466q0 -51 21.5 -89.5t59 -59.5t83.5 -21q47 0 84 21t58.5 59.5t21.5 89.5v466h84v-455q0 -85 -33.5 -143t-90 -87t-124.5 -29zM374 773l36 133h110l-78 -133h-68zM214 773l36 133h110l-78 -133h-68z" />
    <glyph glyph-name="uhungarumlaut" unicode="&#x171;" horiz-adv-x="557" 
d="M246 -14q-51 0 -89 24t-59 66t-21 97v321h82v-308q0 -61 34.5 -94.5t84.5 -33.5t84.5 33.5t34.5 94.5v308h82v-494h-77v69q-17 -33 -55.5 -58t-100.5 -25zM324 567l36 133h110l-78 -133h-68zM164 567l36 133h110l-78 -133h-68z" />
    <glyph glyph-name="Uogonek" unicode="&#x172;" horiz-adv-x="656" 
d="M328 -14q-68 0 -124.5 29t-90 87t-33.5 143v455h84v-466q0 -51 21.5 -89.5t59 -59.5t83.5 -21q47 0 84 21t58.5 59.5t21.5 89.5v466h84v-455q0 -85 -33.5 -143t-90 -87t-124.5 -29zM362 -200q-40 0 -67 25.5t-27 67.5q0 41 23.5 72t54.5 43l71 -8q-28 -16 -49.5 -36.5
t-21.5 -47.5q0 -21 12 -33t31 -12q14 0 23.5 2.5t19.5 6.5v-67q-15 -6 -31 -9.5t-39 -3.5z" />
    <glyph glyph-name="uogonek" unicode="&#x173;" horiz-adv-x="557" 
d="M246 -14q-51 0 -89 24t-59 66t-21 97v321h82v-308q0 -61 34.5 -94.5t84.5 -33.5t84.5 33.5t34.5 94.5v308h82v-494h-77v69q-17 -33 -55.5 -58t-100.5 -25zM424 -200q-40 0 -67 25.5t-27 67.5q0 41 23.5 72t54.5 43l71 -8q-28 -16 -49.5 -36.5t-21.5 -47.5q0 -21 12 -33
t31 -12q14 0 23.5 2.5t19.5 6.5v-67q-15 -6 -31 -9.5t-39 -3.5z" />
    <glyph glyph-name="Ydieresis" unicode="&#x178;" horiz-adv-x="560" 
d="M237 0v291l-218 409h98l138 -269q8 -15 13 -27t12 -32q7 20 12.5 32t12.5 27l138 269h98l-218 -409v-291h-86zM200 790q-22 0 -38.5 16t-16.5 39q0 24 16.5 39.5t38.5 15.5q24 0 39.5 -15.5t15.5 -39.5q0 -23 -15.5 -39t-39.5 -16zM360 790q-23 0 -39 16t-16 39
q0 24 16 39.5t39 15.5t39 -15.5t16 -39.5q0 -23 -16 -39t-39 -16z" />
    <glyph glyph-name="Zacute" unicode="&#x179;" horiz-adv-x="605" 
d="M49 0v78l389 544h-371v78h469v-78l-390 -544h408v-78h-505zM267 773l56 133h118l-102 -133h-72z" />
    <glyph glyph-name="zacute" unicode="&#x17a;" horiz-adv-x="480" 
d="M44 0v68l287 358h-279v68h371v-68l-286 -358h299v-68h-392zM204 567l56 133h118l-102 -133h-72z" />
    <glyph glyph-name="Zdotaccent" unicode="&#x17b;" horiz-adv-x="605" 
d="M49 0v78l389 544h-371v78h469v-78l-390 -544h408v-78h-505zM303 784q-25 0 -43 18t-18 43q0 26 18 43.5t43 17.5q26 0 43.5 -17.5t17.5 -43.5q0 -25 -17.5 -43t-43.5 -18z" />
    <glyph glyph-name="zdotaccent" unicode="&#x17c;" horiz-adv-x="480" 
d="M44 0v68l287 358h-279v68h371v-68l-286 -358h299v-68h-392zM240 578q-25 0 -43 18t-18 43q0 26 18 43.5t43 17.5q26 0 43.5 -17.5t17.5 -43.5q0 -25 -17.5 -43t-43.5 -18z" />
    <glyph glyph-name="Zcaron" unicode="&#x17d;" horiz-adv-x="605" 
d="M49 0v78l389 544h-371v78h469v-78l-390 -544h408v-78h-505zM268 773l-99 133h70l64 -69l64 69h70l-99 -133h-70z" />
    <glyph glyph-name="zcaron" unicode="&#x17e;" horiz-adv-x="480" 
d="M44 0v68l287 358h-279v68h371v-68l-286 -358h299v-68h-392zM205 567l-99 133h70l64 -69l64 69h70l-99 -133h-70z" />
    <glyph glyph-name="florin" unicode="&#x192;" horiz-adv-x="508" 
d="M23 -108v78h65q50 0 70 20.5t26 69.5l58 486q8 68 46.5 111t112.5 43h81v-78h-75q-35 0 -57 -23t-27 -67l-59 -496q-9 -73 -48.5 -108.5t-117.5 -35.5h-75zM94 351v72h364v-72h-364z" />
    <glyph glyph-name="uni0218" unicode="&#x218;" horiz-adv-x="567" 
d="M285 -14q-70 0 -122 28t-80.5 77.5t-28.5 113.5h86q0 -65 43 -103t106 -38q65 0 103 35t38 96q0 33 -17.5 56t-47 39.5t-67.5 28.5l-69 23q-72 24 -116.5 69.5t-44.5 116.5q0 56 28 97.5t76.5 65t109.5 23.5q69 0 117.5 -25t74 -68.5t25.5 -99.5h-85q0 51 -36.5 84
t-95.5 33t-93.5 -30.5t-34.5 -69.5t26.5 -69.5t87.5 -51.5l95 -33q47 -16 81.5 -41.5t53 -60.5t18.5 -81q0 -58 -27 -107t-78.5 -78.5t-125.5 -29.5zM226 -256v44h11q27 0 41 12t16 43q-1 -1 -6 -2t-10 -1q-21 0 -34.5 14.5t-13.5 36.5q0 21 14.5 36t35.5 15
q29 0 45.5 -20.5t16.5 -60.5q0 -59 -26 -88t-76 -29h-14z" />
    <glyph glyph-name="uni0219" unicode="&#x219;" horiz-adv-x="455" 
d="M230 -14q-57 0 -98.5 22.5t-63.5 62t-22 89.5h82q0 -43 27 -72.5t75 -29.5q44 0 71.5 22.5t27.5 56.5q0 32 -19.5 49.5t-64.5 30.5l-73 21q-51 15 -82.5 48.5t-31.5 84.5q0 43 23.5 73.5t62 47t84.5 16.5q50 0 87 -19t58 -52t21 -74h-78q0 32 -25.5 53.5t-62.5 21.5
q-38 0 -64 -16.5t-26 -46.5q0 -28 19.5 -45t62.5 -30l73 -22q51 -15 84.5 -46.5t33.5 -87.5q0 -46 -24 -81.5t-64.5 -56t-92.5 -20.5zM170 -256v44h11q27 0 41 12t16 43q-1 -1 -6 -2t-10 -1q-21 0 -34.5 14.5t-13.5 36.5q0 21 14.5 36t35.5 15q29 0 45.5 -20.5t16.5 -60.5
q0 -59 -26 -88t-76 -29h-14z" />
    <glyph glyph-name="uni021A" unicode="&#x21a;" horiz-adv-x="590" 
d="M252 0v700h86v-700h-86zM40 622v78h510v-78h-510zM237 -256v44h11q27 0 41 12t16 43q-1 -1 -6 -2t-10 -1q-21 0 -34.5 14.5t-13.5 36.5q0 21 14.5 36t35.5 15q29 0 45.5 -20.5t16.5 -60.5q0 -59 -26 -88t-76 -29h-14z" />
    <glyph glyph-name="uni021B" unicode="&#x21b;" horiz-adv-x="342" 
d="M221 0q-59 0 -91 35t-32 95v490h82v-483q0 -61 59 -61h58v-76h-76zM25 426v68h272v-68h-272zM132 -256v44h11q27 0 41 12t16 43q-1 -1 -6 -2t-10 -1q-21 0 -34.5 14.5t-13.5 36.5q0 21 14.5 36t35.5 15q29 0 45.5 -20.5t16.5 -60.5q0 -59 -26 -88t-76 -29h-14z" />
    <glyph glyph-name="circumflex" unicode="&#x2c6;" 
d="M20 567l99 133h70l99 -133h-70l-64 69l-64 -69h-70z" />
    <glyph glyph-name="caron" unicode="&#x2c7;" 
d="M119 567l-99 133h70l64 -69l64 69h70l-99 -133h-70z" />
    <glyph glyph-name="uni02C9" unicode="&#x2c9;" horiz-adv-x="342" 
d="M50 604v66h242v-66h-242z" />
    <glyph glyph-name="breve" unicode="&#x2d8;" 
d="M142 574q-38 0 -66.5 17t-44 46t-15.5 63h58q0 -32 18.5 -52t49.5 -20t49.5 20t18.5 52h58q0 -34 -15.5 -63t-44 -46t-66.5 -17z" />
    <glyph glyph-name="dotaccent" unicode="&#x2d9;" 
d="M119 578q-25 0 -43 18t-18 43q0 26 18 43.5t43 17.5q26 0 43.5 -17.5t17.5 -43.5q0 -25 -17.5 -43t-43.5 -18z" />
    <glyph glyph-name="ring" unicode="&#x2da;" 
d="M155 560q-33 0 -60 16.5t-43.5 43.5t-16.5 60t16.5 60.5t43.5 43.5t60 16t60 -16t43.5 -43.5t16.5 -60.5t-16.5 -60t-43.5 -43.5t-60 -16.5zM155 610q29 0 49.5 20.5t20.5 49.5t-20.5 49.5t-49.5 20.5t-49.5 -20.5t-20.5 -49.5t20.5 -49.5t49.5 -20.5z" />
    <glyph glyph-name="ogonek" unicode="&#x2db;" 
d="M134 -200q-40 0 -67 25.5t-27 67.5q0 41 23.5 72t54.5 43l71 -8q-28 -16 -49.5 -36.5t-21.5 -47.5q0 -21 12 -33t31 -12q14 0 23.5 2.5t19.5 6.5v-67q-15 -6 -31 -9.5t-39 -3.5z" />
    <glyph glyph-name="tilde" unicode="&#x2dc;" 
d="M308 571q-26 0 -45.5 9t-35 20t-29.5 20t-30 9q-21 0 -33.5 -14.5t-12.5 -35.5h-72q0 51 27.5 86t78.5 35q26 0 45.5 -9t35 -20t29.5 -20t30 -9q21 0 33.5 14.5t12.5 35.5h72q0 -51 -27.5 -86t-78.5 -35z" />
    <glyph glyph-name="hungarumlaut" unicode="&#x2dd;" 
d="M200 567l36 133h110l-78 -133h-68zM40 567l36 133h110l-78 -133h-68z" />
    <glyph glyph-name="gravecomb" unicode="&#x300;" horiz-adv-x="0" 
d="M142 567l-102 133h118l56 -133h-72z" />
    <glyph glyph-name="acutecomb" unicode="&#x301;" horiz-adv-x="0" 
d="M40 567l56 133h118l-102 -133h-72z" />
    <glyph glyph-name="uni0302" unicode="&#x302;" horiz-adv-x="0" 
d="M20 567l99 133h70l99 -133h-70l-64 69l-64 -69h-70z" />
    <glyph glyph-name="tildecomb" unicode="&#x303;" horiz-adv-x="0" 
d="M308 571q-26 0 -45.5 9t-35 20t-29.5 20t-30 9q-21 0 -33.5 -14.5t-12.5 -35.5h-72q0 51 27.5 86t78.5 35q26 0 45.5 -9t35 -20t29.5 -20t30 -9q21 0 33.5 14.5t12.5 35.5h72q0 -51 -27.5 -86t-78.5 -35z" />
    <glyph glyph-name="uni0304" unicode="&#x304;" horiz-adv-x="0" 
d="M50 604v66h242v-66h-242z" />
    <glyph glyph-name="uni0306" unicode="&#x306;" horiz-adv-x="0" 
d="M142 574q-38 0 -66.5 17t-44 46t-15.5 63h58q0 -32 18.5 -52t49.5 -20t49.5 20t18.5 52h58q0 -34 -15.5 -63t-44 -46t-66.5 -17z" />
    <glyph glyph-name="uni0307" unicode="&#x307;" horiz-adv-x="0" 
d="M119 578q-25 0 -43 18t-18 43q0 26 18 43.5t43 17.5q26 0 43.5 -17.5t17.5 -43.5q0 -25 -17.5 -43t-43.5 -18z" />
    <glyph glyph-name="uni0308" unicode="&#x308;" horiz-adv-x="0" 
d="M81 584q-22 0 -38.5 16t-16.5 39q0 24 16.5 39.5t38.5 15.5q24 0 39.5 -15.5t15.5 -39.5q0 -23 -15.5 -39t-39.5 -16zM241 584q-23 0 -39 16t-16 39q0 24 16 39.5t39 15.5t39 -15.5t16 -39.5q0 -23 -16 -39t-39 -16z" />
    <glyph glyph-name="uni030A" unicode="&#x30a;" horiz-adv-x="0" 
d="M155 560q-33 0 -60 16.5t-43.5 43.5t-16.5 60t16.5 60.5t43.5 43.5t60 16t60 -16t43.5 -43.5t16.5 -60.5t-16.5 -60t-43.5 -43.5t-60 -16.5zM155 610q29 0 49.5 20.5t20.5 49.5t-20.5 49.5t-49.5 20.5t-49.5 -20.5t-20.5 -49.5t20.5 -49.5t49.5 -20.5z" />
    <glyph glyph-name="uni030B" unicode="&#x30b;" horiz-adv-x="0" 
d="M200 567l36 133h110l-78 -133h-68zM40 567l36 133h110l-78 -133h-68z" />
    <glyph glyph-name="uni030C" unicode="&#x30c;" horiz-adv-x="0" 
d="M119 567l-99 133h70l64 -69l64 69h70l-99 -133h-70z" />
    <glyph glyph-name="uni0312" unicode="&#x312;" horiz-adv-x="0" 
d="M182 752v-44h-11q-27 0 -41 -12t-16 -43q1 1 6 2t10 1q21 0 34.5 -14.5t13.5 -36.5q0 -21 -14.5 -36t-35.5 -15q-29 0 -45.5 20.5t-16.5 60.5q0 59 26 88t76 29h14z" />
    <glyph glyph-name="uni0326" unicode="&#x326;" horiz-adv-x="0" 
d="M66 -256v44h11q27 0 41 12t16 43q-1 -1 -6 -2t-10 -1q-21 0 -34.5 14.5t-13.5 36.5q0 21 14.5 36t35.5 15q29 0 45.5 -20.5t16.5 -60.5q0 -59 -26 -88t-76 -29h-14z" />
    <glyph glyph-name="uni0327" unicode="&#x327;" horiz-adv-x="0" 
d="M89 -228q-21 0 -39 3t-30 7v52q11 -4 25.5 -7t31.5 -3q29 0 42.5 10.5t13.5 29.5q0 18 -13.5 28.5t-35.5 10.5h-64v20l35 102h57l-29 -93l-31 4q17 5 32 8t31 3q35 0 58 -23t23 -61q0 -50 -33 -70.5t-74 -20.5z" />
    <glyph glyph-name="uni0328" unicode="&#x328;" horiz-adv-x="0" 
d="M134 -200q-40 0 -67 25.5t-27 67.5q0 41 23.5 72t54.5 43l71 -8q-28 -16 -49.5 -36.5t-21.5 -47.5q0 -21 12 -33t31 -12q14 0 23.5 2.5t19.5 6.5v-67q-15 -6 -31 -9.5t-39 -3.5z" />
    <glyph glyph-name="pi" unicode="&#x3c0;" horiz-adv-x="642" 
d="M521 0q-59 0 -91 35t-32 95v323h82v-316q0 -61 59 -61h58v-76h-76zM130 0v453h82v-453h-82zM25 426v68h572v-68h-572z" />
    <glyph glyph-name="endash" unicode="&#x2013;" horiz-adv-x="421" 
d="M15 300v70h391v-70h-391z" />
    <glyph glyph-name="emdash" unicode="&#x2014;" horiz-adv-x="668" 
d="M15 300v70h638v-70h-638z" />
    <glyph glyph-name="quoteleft" unicode="&#x2018;" horiz-adv-x="256" 
d="M132 489q-31 0 -48.5 25t-17.5 68q0 44 13 73.5t37.5 44t59.5 14.5h12v-48h-8q-28 0 -44.5 -14.5t-19.5 -49.5q6 4 19 4q23 0 39 -16.5t16 -41.5t-16.5 -42t-41.5 -17z" />
    <glyph glyph-name="quoteright" unicode="&#x2019;" horiz-adv-x="256" 
d="M68 489v48h8q29 0 45 14.5t19 49.5q-6 -4 -19 -4q-22 0 -38.5 16.5t-16.5 41.5t16.5 42t41.5 17q32 0 49 -24.5t17 -68.5q0 -66 -28.5 -99t-81.5 -33h-12z" />
    <glyph glyph-name="quotesinglbase" unicode="&#x201a;" horiz-adv-x="256" 
d="M68 -112v48h8q29 0 45 14.5t19 49.5q-6 -4 -19 -4q-22 0 -38.5 16.5t-16.5 41.5t16.5 42t41.5 17q32 0 49 -24.5t17 -68.5q0 -66 -28.5 -99t-81.5 -33h-12z" />
    <glyph glyph-name="quotedblleft" unicode="&#x201c;" horiz-adv-x="427" 
d="M303 489q-31 0 -48.5 25t-17.5 68q0 44 13 73.5t37.5 44t59.5 14.5h12v-48h-8q-28 0 -44.5 -14.5t-19.5 -49.5q6 4 19 4q23 0 39 -16.5t16 -41.5t-16.5 -42t-41.5 -17zM132 489q-31 0 -48.5 25t-17.5 68q0 44 13 73.5t37.5 44t59.5 14.5h12v-48h-8q-28 0 -44.5 -14.5
t-19.5 -49.5q6 4 19 4q23 0 39 -16.5t16 -41.5t-16.5 -42t-41.5 -17z" />
    <glyph glyph-name="quotedblright" unicode="&#x201d;" horiz-adv-x="427" 
d="M239 489v48h8q29 0 45 14.5t19 49.5q-6 -4 -19 -4q-22 0 -38.5 16.5t-16.5 41.5t16.5 42t41.5 17q32 0 49 -24.5t17 -68.5q0 -66 -28.5 -99t-81.5 -33h-12zM68 489v48h8q29 0 45 14.5t19 49.5q-6 -4 -19 -4q-22 0 -38.5 16.5t-16.5 41.5t16.5 42t41.5 17q32 0 49 -24.5
t17 -68.5q0 -66 -28.5 -99t-81.5 -33h-12z" />
    <glyph glyph-name="quotedblbase" unicode="&#x201e;" horiz-adv-x="427" 
d="M68 -112v48h8q29 0 45 14.5t19 49.5q-6 -4 -19 -4q-22 0 -38.5 16.5t-16.5 41.5t16.5 42t41.5 17q32 0 49 -24.5t17 -68.5q0 -66 -28.5 -99t-81.5 -33h-12zM239 -112v48h8q29 0 45 14.5t19 49.5q-6 -4 -19 -4q-22 0 -38.5 16.5t-16.5 41.5t16.5 42t41.5 17q32 0 49 -24.5
t17 -68.5q0 -66 -28.5 -99t-81.5 -33h-12z" />
    <glyph glyph-name="dagger" unicode="&#x2020;" horiz-adv-x="314" 
d="M122 286v414h70v-414h-70zM40 552v66h234v-66h-234z" />
    <glyph glyph-name="daggerdbl" unicode="&#x2021;" horiz-adv-x="314" 
d="M122 286v414h70v-414h-70zM40 368v66h234v-66h-234zM40 552v66h234v-66h-234z" />
    <glyph glyph-name="bullet" unicode="&#x2022;" horiz-adv-x="380" 
d="M190 185q-34 0 -62.5 17t-45.5 45.5t-17 62.5q0 35 17 63t45.5 45t62.5 17q35 0 63 -17t45 -45t17 -63q0 -34 -17 -62.5t-45 -45.5t-63 -17z" />
    <glyph glyph-name="ellipsis" unicode="&#x2026;" horiz-adv-x="708" 
d="M354 -9q-25 0 -41.5 17t-16.5 41q0 25 16.5 41.5t41.5 16.5t41.5 -16.5t16.5 -41.5q0 -24 -16.5 -41t-41.5 -17zM584 -9q-25 0 -41.5 17t-16.5 41q0 25 16.5 41.5t41.5 16.5t41.5 -16.5t16.5 -41.5q0 -24 -16.5 -41t-41.5 -17zM124 -9q-25 0 -41.5 17t-16.5 41
q0 25 16.5 41.5t41.5 16.5t41.5 -16.5t16.5 -41.5q0 -24 -16.5 -41t-41.5 -17z" />
    <glyph glyph-name="perthousand" unicode="&#x2030;" horiz-adv-x="1048" 
d="M130 53l-42 42l552 552l42 -42zM560 -14q-52 0 -91 23t-61 62t-22 87t22 87t61 62t91 23t91 -23t61 -62t22 -87t-22 -87t-61 -62t-91 -23zM560 50q45 0 74.5 30.5t29.5 77.5t-29.5 77.5t-74.5 30.5t-74.5 -30.5t-29.5 -77.5t29.5 -77.5t74.5 -30.5zM210 370q-52 0 -91 23
t-61 62t-22 87t22 87t61 62t91 23t91 -23t61 -62t22 -87t-22 -87t-61 -62t-91 -23zM210 434q45 0 74.5 30.5t29.5 77.5t-29.5 77.5t-74.5 30.5t-74.5 -30.5t-29.5 -77.5t29.5 -77.5t74.5 -30.5zM838 -14q-52 0 -91 23t-61 62t-22 87t22 87t61 62t91 23t91 -23t61 -62t22 -87
t-22 -87t-61 -62t-91 -23zM838 50q45 0 74.5 30.5t29.5 77.5t-29.5 77.5t-74.5 30.5t-74.5 -30.5t-29.5 -77.5t29.5 -77.5t74.5 -30.5z" />
    <glyph glyph-name="guilsinglleft" unicode="&#x2039;" horiz-adv-x="306" 
d="M181 83l-142 203v8l142 203h91l-141 -207l141 -207h-91z" />
    <glyph glyph-name="guilsinglright" unicode="&#x203a;" horiz-adv-x="306" 
d="M34 83l141 207l-141 207h91l142 -203v-8l-142 -203h-91z" />
    <glyph glyph-name="fraction" unicode="&#x2044;" horiz-adv-x="240" 
d="M-135 53l-42 42l552 552l42 -42z" />
    <glyph glyph-name="uni2070" unicode="&#x2070;" horiz-adv-x="324" 
d="M162 343q-58 0 -97 46.5t-39 135.5t39 135.5t97 46.5q59 0 97.5 -46.5t38.5 -135.5t-38.5 -135.5t-97.5 -46.5zM162 402q31 0 51.5 28.5t20.5 94.5t-20.5 94.5t-51.5 28.5t-51.5 -28.5t-20.5 -94.5t20.5 -94.5t51.5 -28.5z" />
    <glyph glyph-name="uni2074" unicode="&#x2074;" horiz-adv-x="290" 
d="M171 350v86h-155v39l149 225h70v-215h39v-49h-39v-86h-64zM87 485h84v99q0 8 0.5 17t1.5 16z" />
    <glyph glyph-name="uni2075" unicode="&#x2075;" horiz-adv-x="298" 
d="M146 343q-56 0 -88.5 32t-32.5 78h64q2 -22 18.5 -37t39.5 -15q28 0 44 17.5t16 45.5q0 27 -16 45t-44 18q-20 0 -35.5 -10t-23.5 -24h-61l18 207h213v-58h-172l16 19l-17 -130l-6 8q8 18 31 30t52 12q50 0 80 -33t30 -84q0 -34 -15.5 -61.5t-43.5 -43.5t-67 -16z" />
    <glyph glyph-name="uni2076" unicode="&#x2076;" horiz-adv-x="298" 
d="M149 343q-39 0 -67 17t-43 44.5t-15 60.5q0 38 12.5 63.5t33.5 55.5l81 116h67l-106 -150l-19 -1q14 14 32 22t41 8q46 0 77 -32t31 -83q0 -34 -15.5 -61.5t-43.5 -43.5t-66 -16zM149 397q27 0 46 18.5t19 47.5t-19 47t-46 18t-46 -18t-19 -47t19 -47.5t46 -18.5z" />
    <glyph glyph-name="uni2077" unicode="&#x2077;" horiz-adv-x="264" 
d="M68 350l118 292h-168v58h230v-53l-116 -297h-64z" />
    <glyph glyph-name="uni2078" unicode="&#x2078;" horiz-adv-x="290" 
d="M145 343q-55 0 -88 31t-33 75q0 31 17.5 53.5t39.5 32.5q-17 11 -31.5 29.5t-14.5 46.5q0 41 31 68.5t79 27.5t79 -27.5t31 -68.5q0 -28 -14.5 -46.5t-31.5 -29.5q23 -10 40 -32.5t17 -53.5q0 -44 -32.5 -75t-88.5 -31zM145 399q26 0 41.5 15t15.5 40t-15.5 40t-41.5 15
q-25 0 -41 -15t-16 -40t16 -40t41 -15zM145 561q21 0 35.5 13t14.5 34t-14.5 34t-35.5 13t-35.5 -13t-14.5 -34t14.5 -34t35.5 -13z" />
    <glyph glyph-name="uni2079" unicode="&#x2079;" horiz-adv-x="298" 
d="M80 350l106 150l19 1q-14 -14 -32 -22t-41 -8q-46 0 -77 32t-31 83q0 35 15.5 62t44 43t65.5 16q39 0 67 -17t43 -44.5t15 -60.5q0 -38 -12.5 -63.5t-33.5 -55.5l-81 -116h-67zM149 522q27 0 46 18t19 47t-19 47.5t-46 18.5t-46 -18.5t-19 -47.5t19 -47t46 -18z" />
    <glyph glyph-name="Euro" unicode="&#x20ac;" horiz-adv-x="772" 
d="M442 -14q-61 0 -120.5 24t-108.5 71t-78 114.5t-29 154.5t29 154.5t78 114.5t108.5 71t120.5 24q114 0 192 -55.5t98 -156.5h-84q-16 59 -71 96.5t-135 37.5q-46 0 -91 -18.5t-80.5 -54.5t-57 -89.5t-21.5 -123.5t21.5 -123.5t57 -89.5t80.5 -54.5t91 -18.5
q80 0 135 37.5t71 96.5h84q-13 -67 -53 -114.5t-100.5 -72.5t-136.5 -25zM10 244l15 72h462l-14 -72h-463zM36 384l14 72h463l-14 -72h-463z" />
    <glyph glyph-name="uni20BA" unicode="&#x20ba;" horiz-adv-x="564" 
d="M118 0v700h86v-622h73q88 0 128 43t40 131v24h82v-23q0 -123 -61.5 -188t-177.5 -65h-170zM27 95v84l334 210v-84zM27 251v84l334 210v-84z" />
    <glyph glyph-name="uni20BD" unicode="&#x20bd;" horiz-adv-x="591" 
d="M112 0v700h212q63 0 113 -26t79 -73.5t29 -112.5t-29 -112.5t-79 -73.5t-113 -26h-126v-276h-86zM27 117v72h394v-72h-394zM198 352h121q61 0 100.5 36t39.5 100t-39.5 100t-100.5 36h-121v-272z" />
    <glyph glyph-name="uni2113" unicode="&#x2113;" horiz-adv-x="530" 
d="M246 -14q-48 0 -83.5 25t-55 72t-19.5 114q0 75 15.5 149.5t43 140.5t64.5 117t81.5 80.5t92.5 29.5q56 0 83 -35.5t27 -89.5q0 -57 -30.5 -117t-90 -116t-146.5 -101t-200 -72v74q90 23 161.5 58.5t122.5 79t78 91.5t27 96q0 23 -11.5 39.5t-36.5 16.5t-53 -24.5
t-54.5 -67t-49 -98t-35.5 -118.5t-13 -127q0 -70 22 -108.5t61 -38.5q33 0 59.5 15t53.5 49t61 91l53 -38q-49 -92 -101.5 -139.5t-126.5 -47.5z" />
    <glyph glyph-name="trademark" unicode="&#x2122;" horiz-adv-x="549" 
d="M392 420v76l75 204h60v-280h-48v186l-69 -186h-18zM92 420v280h50v-280h-50zM12 654v46h210v-46h-210zM257 420v280h60l75 -204v-76h-18l-69 186v-186h-48z" />
    <glyph glyph-name="Omega" unicode="&#x2126;" horiz-adv-x="744" 
d="M78 0v78h152v29q-51 23 -93.5 66.5t-68.5 101.5t-26 123q0 95 43.5 166t118.5 110.5t168 39.5q94 0 168.5 -39.5t118 -110.5t43.5 -166q0 -65 -25.5 -123t-68.5 -101.5t-94 -66.5v-29h152v-78h-238v151q53 16 95.5 49t67.5 82.5t25 114.5q0 75 -33.5 128.5t-89 82
t-121.5 28.5t-121.5 -28.5t-89 -82t-33.5 -128.5q0 -65 25 -114.5t67.5 -82.5t95.5 -49v-151h-238z" />
    <glyph glyph-name="estimated" unicode="&#x212e;" horiz-adv-x="798" 
d="M399 -14q-72 0 -136.5 26.5t-115 75.5t-79 115.5t-28.5 146.5t28.5 146.5t79 115.5t115 75.5t136.5 26.5q75 0 140 -26.5t114 -75.5t77 -115.5t28 -146.5v-19h-553v-215q21 -22 54 -38.5t70.5 -25t69.5 -8.5q81 0 148 37t107 102h67q-44 -91 -129.5 -144t-192.5 -53z
M205 385h407v169q-37 46 -93 74t-120 28q-57 0 -107 -20.5t-87 -55.5v-195z" />
    <glyph glyph-name="oneeighth" unicode="&#x215b;" horiz-adv-x="691" 
d="M89 350v290h-67v60h131v-350h-64zM56 53l-42 42l552 552l42 -42zM546 -7q-55 0 -88 31t-33 75q0 31 17.5 53.5t39.5 32.5q-17 11 -31.5 29.5t-14.5 46.5q0 41 31 68.5t79 27.5t79 -27.5t31 -68.5q0 -28 -14.5 -46.5t-31.5 -29.5q23 -10 40 -32.5t17 -53.5
q0 -44 -32.5 -75t-88.5 -31zM546 49q26 0 41.5 15t15.5 40t-15.5 40t-41.5 15q-25 0 -41 -15t-16 -40t16 -40t41 -15zM546 211q21 0 35.5 13t14.5 34t-14.5 34t-35.5 13t-35.5 -13t-14.5 -34t14.5 -34t35.5 -13z" />
    <glyph glyph-name="threeeighths" unicode="&#x215c;" horiz-adv-x="760" 
d="M141 343q-59 0 -90 34.5t-31 80.5h63q2 -25 17 -40.5t41 -15.5q27 0 42.5 14t15.5 39q0 24 -16.5 37.5t-42.5 13.5h-19v51h19q23 0 37.5 12.5t14.5 33.5q0 20 -13 33t-39 13q-22 0 -37 -13.5t-17 -33.5h-61q2 43 32.5 74t82.5 31q54 0 84 -27.5t30 -69.5q0 -25 -13.5 -45
t-31.5 -31q23 -8 39 -28.5t16 -52.5t-15.5 -57t-43 -39t-64.5 -14zM125 53l-42 42l552 552l42 -42zM615 -7q-55 0 -88 31t-33 75q0 31 17.5 53.5t39.5 32.5q-17 11 -31.5 29.5t-14.5 46.5q0 41 31 68.5t79 27.5t79 -27.5t31 -68.5q0 -28 -14.5 -46.5t-31.5 -29.5
q23 -10 40 -32.5t17 -53.5q0 -44 -32.5 -75t-88.5 -31zM615 49q26 0 41.5 15t15.5 40t-15.5 40t-41.5 15q-25 0 -41 -15t-16 -40t16 -40t41 -15zM615 211q21 0 35.5 13t14.5 34t-14.5 34t-35.5 13t-35.5 -13t-14.5 -34t14.5 -34t35.5 -13z" />
    <glyph glyph-name="fiveeighths" unicode="&#x215d;" horiz-adv-x="768" 
d="M146 343q-56 0 -88.5 32t-32.5 78h64q2 -22 18.5 -37t39.5 -15q28 0 44 17.5t16 45.5q0 27 -16 45t-44 18q-20 0 -35.5 -10t-23.5 -24h-61l18 207h213v-58h-172l16 19l-17 -130l-6 8q8 18 31 30t52 12q50 0 80 -33t30 -84q0 -34 -15.5 -61.5t-43.5 -43.5t-67 -16zM133 53
l-42 42l552 552l42 -42zM623 -7q-55 0 -88 31t-33 75q0 31 17.5 53.5t39.5 32.5q-17 11 -31.5 29.5t-14.5 46.5q0 41 31 68.5t79 27.5t79 -27.5t31 -68.5q0 -28 -14.5 -46.5t-31.5 -29.5q23 -10 40 -32.5t17 -53.5q0 -44 -32.5 -75t-88.5 -31zM623 49q26 0 41.5 15t15.5 40
t-15.5 40t-41.5 15q-25 0 -41 -15t-16 -40t16 -40t41 -15zM623 211q21 0 35.5 13t14.5 34t-14.5 34t-35.5 13t-35.5 -13t-14.5 -34t14.5 -34t35.5 -13z" />
    <glyph glyph-name="seveneighths" unicode="&#x215e;" horiz-adv-x="704" 
d="M68 350l118 292h-168v58h230v-53l-116 -297h-64zM69 53l-42 42l552 552l42 -42zM559 -7q-55 0 -88 31t-33 75q0 31 17.5 53.5t39.5 32.5q-17 11 -31.5 29.5t-14.5 46.5q0 41 31 68.5t79 27.5t79 -27.5t31 -68.5q0 -28 -14.5 -46.5t-31.5 -29.5q23 -10 40 -32.5t17 -53.5
q0 -44 -32.5 -75t-88.5 -31zM559 49q26 0 41.5 15t15.5 40t-15.5 40t-41.5 15q-25 0 -41 -15t-16 -40t16 -40t41 -15zM559 211q21 0 35.5 13t14.5 34t-14.5 34t-35.5 13t-35.5 -13t-14.5 -34t14.5 -34t35.5 -13z" />
    <glyph glyph-name="arrowleft" unicode="&#x2190;" horiz-adv-x="676" 
d="M30 350l228 226l51 -51l-176 -175h-103zM258 124l-228 226v0h103l176 -175zM102 312v76h544v-76h-544z" />
    <glyph glyph-name="arrowup" unicode="&#x2191;" horiz-adv-x="512" 
d="M431 379l-175 176v103v0l226 -228zM216 42v544h80v-544h-80zM81 379l-51 51l226 228v0v-103z" />
    <glyph glyph-name="arrowright" unicode="&#x2192;" horiz-adv-x="676" 
d="M543 350l-176 175l51 51l228 -226v0h-103zM30 312v76h544v-76h-544zM418 124l-51 51l176 175h103v0z" />
    <glyph glyph-name="arrowdown" unicode="&#x2193;" horiz-adv-x="512" 
d="M256 42v103l175 176l51 -51zM256 42l-226 228l51 51l175 -176v-103zM216 114v544h80v-544h-80z" />
    <glyph glyph-name="uni2196" unicode="&#x2196;" horiz-adv-x="524" 
d="M438 118l-385 385l56 56l385 -385zM30 261v321v0l73 -73v-248h-73zM103 509l-73 73v0h321v-73h-248z" />
    <glyph glyph-name="uni2197" unicode="&#x2197;" horiz-adv-x="524" 
d="M86 118l-56 56l385 385l56 -56zM421 261v248l73 73v0v-321h-73zM173 509v73h321v0l-73 -73h-248z" />
    <glyph glyph-name="uni2198" unicode="&#x2198;" horiz-adv-x="524" 
d="M415 141l-385 385l56 56l385 -385zM173 118v73h248l73 -73v0h-321zM494 118l-73 73v248h73v-321z" />
    <glyph glyph-name="uni2199" unicode="&#x2199;" horiz-adv-x="524" 
d="M109 141l-56 56l385 385l56 -56zM30 118l73 73h248v-73h-321zM30 118v321h73v-248z" />
    <glyph glyph-name="uni21B0" unicode="&#x21b0;" horiz-adv-x="676" 
d="M258 124l-228 226l228 226l51 -51l-138 -137h475v-264h-80v188h-395l138 -137z" />
    <glyph glyph-name="uni21B1" unicode="&#x21b1;" horiz-adv-x="676" 
d="M30 124v264h475l-138 137l51 51l228 -226l-228 -226l-51 51l138 137h-395v-188h-80z" />
    <glyph glyph-name="uni21B2" unicode="&#x21b2;" horiz-adv-x="676" 
d="M258 124l-228 226l228 226l51 -51l-138 -137h395v188h80v-264h-475l138 -137z" />
    <glyph glyph-name="uni21B3" unicode="&#x21b3;" horiz-adv-x="676" 
d="M418 124l-51 51l138 137h-475v264h80v-188h395l-138 137l51 51l228 -226z" />
    <glyph glyph-name="partialdiff" unicode="&#x2202;" horiz-adv-x="570" 
d="M284 -14q-68 0 -123 31t-87 85t-32 123q0 68 33 120t85 81.5t109 29.5q68 0 116 -29.5t69 -70.5l-4 -22q-18 75 -59.5 136.5t-100 107.5t-128.5 72l36 64q69 -25 129 -68t105 -101.5t70.5 -130t25.5 -152.5q0 -86 -29.5 -148t-84 -95t-130.5 -33zM284 60q45 0 81.5 20
t58.5 56t22 85t-22 85t-58.5 56t-81.5 20q-44 0 -80.5 -20t-58 -56t-21.5 -85t21.5 -85t58 -56t80.5 -20z" />
    <glyph glyph-name="Delta" unicode="&#x2206;" horiz-adv-x="635" 
d="M89 0l-59 78l238 622h99l238 -622l-59 -78l-210 557q-5 14 -9.5 24.5t-9.5 23.5q-4 -13 -8.5 -23.5t-9.5 -24.5zM30 0v78h575v-78h-575z" />
    <glyph glyph-name="product" unicode="&#x220f;" horiz-adv-x="640" 
d="M112 -120v820h86v-820h-86zM20 622v78h600v-78h-600zM442 -120v820h86v-820h-86z" />
    <glyph glyph-name="summation" unicode="&#x2211;" horiz-adv-x="565" 
d="M49 -120v78l259 353l-246 311v78h443v-78h-335l216 -269v-76l-239 -319h371v-78h-469z" />
    <glyph glyph-name="minus" unicode="&#x2212;" horiz-adv-x="482" 
d="M35 315v70h412v-70h-412z" />
    <glyph glyph-name="uni2215" unicode="&#x2215;" horiz-adv-x="482" 
d="M16 0l368 700h82l-368 -700h-82z" />
    <glyph glyph-name="uni2219" unicode="&#x2219;" horiz-adv-x="482" 
d="M241 240q-30 0 -55 15t-40 40t-15 55q0 31 15 55.5t40 39.5t55 15q31 0 55.5 -15t39.5 -39.5t15 -55.5q0 -30 -15 -55t-39.5 -40t-55.5 -15z" />
    <glyph glyph-name="radical" unicode="&#x221a;" horiz-adv-x="639" 
d="M174 0l-149 410h90l91 -266q5 -14 10 -27t9 -27q5 14 9.5 27t9.5 27l201 556h174v-78h-110l-235 -622h-100z" />
    <glyph glyph-name="infinity" unicode="&#x221e;" horiz-adv-x="726" 
d="M532 147q-49 0 -84 18t-60 47.5t-43 63.5v60q18 34 43 63.5t60 47.5t84 18q40 0 75 -18.5t57 -54t22 -86.5t-22 -86.5t-57 -54t-75 -18.5zM194 147q-39 0 -74.5 18.5t-57.5 54t-22 86.5t22 86.5t57.5 54t74.5 18.5q49 0 84 -18t60 -47.5t43 -63.5v-60q-18 -34 -43 -63.5
t-60 -47.5t-84 -18zM200 211q39 0 70 29t56 66q-25 38 -56 66.5t-70 28.5q-32 0 -61 -24.5t-29 -70.5t29 -70.5t61 -24.5zM526 211q32 0 61 24.5t29 70.5t-29 70.5t-61 24.5q-39 0 -70 -28.5t-56 -66.5q25 -37 56 -66t70 -29z" />
    <glyph glyph-name="integral" unicode="&#x222b;" horiz-adv-x="508" 
d="M23 -108v78h65q50 0 70 20.5t26 69.5l58 486q8 68 46.5 111t112.5 43h81v-78h-75q-35 0 -57 -23t-27 -67l-59 -496q-9 -73 -48.5 -108.5t-117.5 -35.5h-75z" />
    <glyph glyph-name="approxequal" unicode="&#x2248;" horiz-adv-x="482" 
d="M329 398q-34 0 -64 13.5t-56 27t-49 13.5q-22 0 -34 -14t-12 -36h-72q0 62 32.5 91t78.5 29q35 0 64.5 -13.5t56 -27t48.5 -13.5q23 0 34.5 14t11.5 36h72q0 -61 -32.5 -90.5t-78.5 -29.5zM329 178q-34 0 -64 13.5t-56 27t-49 13.5q-22 0 -34 -14t-12 -36h-72
q0 62 32.5 91t78.5 29q35 0 64.5 -13.5t56 -27t48.5 -13.5q23 0 34.5 14t11.5 36h72q0 -61 -32.5 -90.5t-78.5 -29.5z" />
    <glyph glyph-name="notequal" unicode="&#x2260;" horiz-adv-x="482" 
d="M108 50l-60 35l326 565l60 -35zM35 429v70h412v-70h-412zM35 201v70h412v-70h-412z" />
    <glyph glyph-name="lessequal" unicode="&#x2264;" horiz-adv-x="482" 
d="M447 117l-412 194v78l412 194v-76l-341 -157l341 -157v-76zM35 0v70h412v-70h-412z" />
    <glyph glyph-name="greaterequal" unicode="&#x2265;" horiz-adv-x="482" 
d="M35 117v76l341 157l-341 157v76l412 -194v-78zM35 0v70h412v-70h-412z" />
    <glyph glyph-name="lozenge" unicode="&#x25ca;" horiz-adv-x="574" 
d="M38 350l200 350h98l200 -350h-89l-160 285l-160 -285h-89zM238 0l-200 350h89l160 -285l160 285h89l-200 -350h-98z" />
    <glyph glyph-name="circle" unicode="&#x25cb;" horiz-adv-x="780" 
d="M390 0q-72 0 -135.5 27t-112 75.5t-75.5 112t-27 135.5t27 135.5t75.5 112t112 75.5t135.5 27t135.5 -27t112 -75.5t75.5 -112t27 -135.5t-27 -135.5t-75.5 -112t-112 -75.5t-135.5 -27zM390 88q73 0 132.5 35.5t95 95t35.5 131.5q0 54 -20.5 102t-56.5 84t-84 56.5
t-102 20.5t-102 -20.5t-84 -56.5t-56.5 -84t-20.5 -102q0 -72 35.5 -131.5t95.5 -95t132 -35.5z" />
    <glyph glyph-name="uni25D0" unicode="&#x25d0;" horiz-adv-x="780" 
d="M390 0q-72 0 -135.5 27t-112 75.5t-75.5 112t-27 135.5t27 135.5t75.5 112t112 75.5t135.5 27t135.5 -27t112 -75.5t75.5 -112t27 -135.5t-27 -135.5t-75.5 -112t-112 -75.5t-135.5 -27zM390 88q73 0 132.5 35.5t95 95t35.5 131.5q0 54 -20.5 102t-56.5 84t-84 56.5
t-102 20.5v-525z" />
    <glyph glyph-name="uni2B24" unicode="&#x2b24;" horiz-adv-x="780" 
d="M390 0q-72 0 -135.5 27t-112 75.5t-75.5 112t-27 135.5t27 135.5t75.5 112t112 75.5t135.5 27t135.5 -27t112 -75.5t75.5 -112t27 -135.5t-27 -135.5t-75.5 -112t-112 -75.5t-135.5 -27z" />
    <glyph glyph-name="u1F989" unicode="&#x1f989;" horiz-adv-x="808" 
d="M404 -14q-75 0 -141 28.5t-116 78.5t-78.5 116t-28.5 141t28.5 141t78.5 116t116 78.5t141 28.5t141 -28.5t116 -78.5t78.5 -116t28.5 -141t-28.5 -141t-78.5 -116t-116 -78.5t-141 -28.5zM278 247q35 0 60 25t25 60t-25 60t-60 25t-60 -25t-25 -60t25 -60t60 -25z
M278 287q-18 0 -31 13t-13 32q0 18 13 31t31 13q19 0 32 -13t13 -31q0 -19 -13 -32t-32 -13zM404 27q67 0 125.5 25t103 69.5t69.5 103t25 125.5t-25 125.5t-69.5 103t-103 69.5t-125.5 25t-125.5 -25t-103 -69.5t-69.5 -103t-25 -125.5t25 -125.5t69.5 -103t103 -69.5
t125.5 -25zM404 196l-40 44q-17 -16 -39 -25t-47 -9q-34 0 -62.5 17t-45.5 45.5t-17 63.5q0 27 11 51t30 41l-41 45h91q35 23 75 36t85 13t85.5 -13t74.5 -36h91l-41 -45q19 -17 30 -41t11 -51q0 -35 -17 -63.5t-45 -45.5t-63 -17q-25 0 -47 9t-39 24zM404 334q0 42 27 75.5
t67 48.5q-42 19 -94 19t-94 -19q40 -15 67 -48.5t27 -75.5zM530 247q35 0 60 25t25 60t-25 60t-60 25t-60 -25t-25 -60t25 -60t60 -25zM530 287q-19 0 -32 13t-13 32q0 18 13 31t32 13q18 0 31 -13t13 -31q0 -19 -13 -32t-31 -13z" />
    <glyph glyph-name="ogonekcomb" horiz-adv-x="786" 
d="M393 199l-41 45q-36 -34 -88 -34q-35 0 -64 17t-46.5 46.5t-17.5 64.5q0 54 42 96l-42 45h93q35 24 76.5 37t87.5 13t87.5 -13t76.5 -37h93l-42 -45q41 -43 41 -96q0 -35 -17 -64.5t-46 -46.5t-65 -17q-51 0 -87 34zM264 251q36 0 61.5 25.5t25.5 61.5t-25.5 61.5
t-61.5 25.5q-35 0 -60.5 -25.5t-25.5 -61.5t25.5 -61.5t60.5 -25.5zM264 293q-19 0 -32 13t-13 32t13 32.5t32 13.5q20 0 33 -13.5t13 -32.5t-13 -32t-33 -13zM393 341q0 43 27.5 77t68.5 50q-42 19 -96 19t-96 -19q41 -16 68.5 -50t27.5 -77zM521 251q36 0 61.5 25.5
t25.5 61.5t-25.5 61.5t-61.5 25.5q-35 0 -61 -25.5t-26 -61.5t26 -61.5t61 -25.5zM521 293q-19 0 -32 13t-13 32t13 32.5t32 13.5q20 0 32.5 -13.5t12.5 -32.5t-12.5 -32t-32.5 -13z" />
    <glyph glyph-name="a.ss01" horiz-adv-x="516" 
d="M195 -14q-44 0 -78.5 20t-54 54t-19.5 75q0 65 49.5 106.5t132.5 41.5h178v-64h-177q-50 0 -76 -24t-26 -59q0 -36 25 -58t65 -22q47 0 79 22.5t48 57.5t16 71v125q0 53 -29 79t-77 26q-45 0 -73.5 -21.5t-34.5 -58.5h-82q3 37 26 71.5t65 57t99 22.5q61 0 102.5 -21.5
t63.5 -59.5t22 -89v-338h-76v89q-17 -43 -57 -73t-111 -30z" />
    <glyph glyph-name="aacute.ss01" horiz-adv-x="516" 
d="M195 -14q-44 0 -78.5 20t-54 54t-19.5 75q0 65 49.5 106.5t132.5 41.5h178v-64h-177q-50 0 -76 -24t-26 -59q0 -36 25 -58t65 -22q47 0 79 22.5t48 57.5t16 71v125q0 53 -29 79t-77 26q-45 0 -73.5 -21.5t-34.5 -58.5h-82q3 37 26 71.5t65 57t99 22.5q61 0 102.5 -21.5
t63.5 -59.5t22 -89v-338h-76v89q-17 -43 -57 -73t-111 -30zM215 567l56 133h118l-102 -133h-72z" />
    <glyph glyph-name="abreve.ss01" horiz-adv-x="516" 
d="M195 -14q-44 0 -78.5 20t-54 54t-19.5 75q0 65 49.5 106.5t132.5 41.5h178v-64h-177q-50 0 -76 -24t-26 -59q0 -36 25 -58t65 -22q47 0 79 22.5t48 57.5t16 71v125q0 53 -29 79t-77 26q-45 0 -73.5 -21.5t-34.5 -58.5h-82q3 37 26 71.5t65 57t99 22.5q61 0 102.5 -21.5
t63.5 -59.5t22 -89v-338h-76v89q-17 -43 -57 -73t-111 -30zM251 574q-38 0 -66.5 17t-44 46t-15.5 63h58q0 -32 18.5 -52t49.5 -20t49.5 20t18.5 52h58q0 -34 -15.5 -63t-44 -46t-66.5 -17z" />
    <glyph glyph-name="acircumflex.ss01" horiz-adv-x="516" 
d="M195 -14q-44 0 -78.5 20t-54 54t-19.5 75q0 65 49.5 106.5t132.5 41.5h178v-64h-177q-50 0 -76 -24t-26 -59q0 -36 25 -58t65 -22q47 0 79 22.5t48 57.5t16 71v125q0 53 -29 79t-77 26q-45 0 -73.5 -21.5t-34.5 -58.5h-82q3 37 26 71.5t65 57t99 22.5q61 0 102.5 -21.5
t63.5 -59.5t22 -89v-338h-76v89q-17 -43 -57 -73t-111 -30zM117 567l99 133h70l99 -133h-70l-64 69l-64 -69h-70z" />
    <glyph glyph-name="adieresis.ss01" horiz-adv-x="516" 
d="M195 -14q-44 0 -78.5 20t-54 54t-19.5 75q0 65 49.5 106.5t132.5 41.5h178v-64h-177q-50 0 -76 -24t-26 -59q0 -36 25 -58t65 -22q47 0 79 22.5t48 57.5t16 71v125q0 53 -29 79t-77 26q-45 0 -73.5 -21.5t-34.5 -58.5h-82q3 37 26 71.5t65 57t99 22.5q61 0 102.5 -21.5
t63.5 -59.5t22 -89v-338h-76v89q-17 -43 -57 -73t-111 -30zM171 584q-22 0 -38.5 16t-16.5 39q0 24 16.5 39.5t38.5 15.5q24 0 39.5 -15.5t15.5 -39.5q0 -23 -15.5 -39t-39.5 -16zM331 584q-23 0 -39 16t-16 39q0 24 16 39.5t39 15.5t39 -15.5t16 -39.5q0 -23 -16 -39
t-39 -16z" />
    <glyph glyph-name="agrave.ss01" horiz-adv-x="516" 
d="M195 -14q-44 0 -78.5 20t-54 54t-19.5 75q0 65 49.5 106.5t132.5 41.5h178v-64h-177q-50 0 -76 -24t-26 -59q0 -36 25 -58t65 -22q47 0 79 22.5t48 57.5t16 71v125q0 53 -29 79t-77 26q-45 0 -73.5 -21.5t-34.5 -58.5h-82q3 37 26 71.5t65 57t99 22.5q61 0 102.5 -21.5
t63.5 -59.5t22 -89v-338h-76v89q-17 -43 -57 -73t-111 -30zM215 567l-102 133h118l56 -133h-72z" />
    <glyph glyph-name="amacron.ss01" horiz-adv-x="516" 
d="M195 -14q-44 0 -78.5 20t-54 54t-19.5 75q0 65 49.5 106.5t132.5 41.5h178v-64h-177q-50 0 -76 -24t-26 -59q0 -36 25 -58t65 -22q47 0 79 22.5t48 57.5t16 71v125q0 53 -29 79t-77 26q-45 0 -73.5 -21.5t-34.5 -58.5h-82q3 37 26 71.5t65 57t99 22.5q61 0 102.5 -21.5
t63.5 -59.5t22 -89v-338h-76v89q-17 -43 -57 -73t-111 -30zM130 604v66h242v-66h-242z" />
    <glyph glyph-name="aogonek.ss01" horiz-adv-x="516" 
d="M195 -14q-44 0 -78.5 20t-54 54t-19.5 75q0 65 49.5 106.5t132.5 41.5h178v-64h-177q-50 0 -76 -24t-26 -59q0 -36 25 -58t65 -22q47 0 79 22.5t48 57.5t16 71v125q0 53 -29 79t-77 26q-45 0 -73.5 -21.5t-34.5 -58.5h-82q3 37 26 71.5t65 57t99 22.5q61 0 102.5 -21.5
t63.5 -59.5t22 -89v-338h-76v89q-17 -43 -57 -73t-111 -30zM384 -200q-40 0 -67 25.5t-27 67.5q0 41 23.5 72t54.5 43l71 -8q-28 -16 -49.5 -36.5t-21.5 -47.5q0 -21 12 -33t31 -12q14 0 23.5 2.5t19.5 6.5v-67q-15 -6 -31 -9.5t-39 -3.5z" />
    <glyph glyph-name="aring.ss01" horiz-adv-x="516" 
d="M195 -14q-44 0 -78.5 20t-54 54t-19.5 75q0 65 49.5 106.5t132.5 41.5h178v-64h-177q-50 0 -76 -24t-26 -59q0 -36 25 -58t65 -22q47 0 79 22.5t48 57.5t16 71v125q0 53 -29 79t-77 26q-45 0 -73.5 -21.5t-34.5 -58.5h-82q3 37 26 71.5t65 57t99 22.5q61 0 102.5 -21.5
t63.5 -59.5t22 -89v-338h-76v89q-17 -43 -57 -73t-111 -30zM251 560q-33 0 -60 16.5t-43.5 43.5t-16.5 60t16.5 60.5t43.5 43.5t60 16t60 -16t43.5 -43.5t16.5 -60.5t-16.5 -60t-43.5 -43.5t-60 -16.5zM251 610q29 0 49.5 20.5t20.5 49.5t-20.5 49.5t-49.5 20.5t-49.5 -20.5
t-20.5 -49.5t20.5 -49.5t49.5 -20.5z" />
    <glyph glyph-name="atilde.ss01" horiz-adv-x="516" 
d="M195 -14q-44 0 -78.5 20t-54 54t-19.5 75q0 65 49.5 106.5t132.5 41.5h178v-64h-177q-50 0 -76 -24t-26 -59q0 -36 25 -58t65 -22q47 0 79 22.5t48 57.5t16 71v125q0 53 -29 79t-77 26q-45 0 -73.5 -21.5t-34.5 -58.5h-82q3 37 26 71.5t65 57t99 22.5q61 0 102.5 -21.5
t63.5 -59.5t22 -89v-338h-76v89q-17 -43 -57 -73t-111 -30zM327 571q-26 0 -45.5 9t-35 20t-29.5 20t-30 9q-21 0 -33.5 -14.5t-12.5 -35.5h-72q0 51 27.5 86t78.5 35q26 0 45.5 -9t35 -20t29.5 -20t30 -9q21 0 33.5 14.5t12.5 35.5h72q0 -51 -27.5 -86t-78.5 -35z" />
    <glyph glyph-name="ae.ss01" horiz-adv-x="892" 
d="M195 -14q-44 0 -78.5 20t-54 54t-19.5 75q0 71 49.5 115.5t132.5 44.5h132v37q0 53 -29 79t-77 26q-45 0 -73.5 -21.5t-34.5 -58.5h-82q3 37 26 71.5t65 57t99 22.5q62 0 104.5 -23t63.5 -67q29 41 79.5 65.5t106.5 24.5q74 0 128.5 -30.5t84.5 -86t30 -131.5v-29h-409v0
v0q1 -54 23.5 -93t60 -59.5t83.5 -20.5q62 0 101 30t54 75h78q-14 -52 -46 -91.5t-79 -62.5t-108 -23q-50 0 -95.5 21t-71.5 59v-66h-76v89q-17 -43 -57 -73t-111 -30zM214 56q47 0 79 22.5t48 57.5t16 71v24h-131q-50 0 -76 -27t-26 -68q0 -36 25 -58t65 -22zM443 295h326
q-7 67 -51 105t-114 38q-61 0 -104.5 -37.5t-56.5 -105.5z" />
    <glyph glyph-name="t.ss02" horiz-adv-x="342" 
d="M130 0v620h82v-620h-82zM35 426v68h272v-68h-272z" />
    <glyph glyph-name="tcaron.ss02" horiz-adv-x="342" 
d="M130 0v620h82v-620h-82zM35 426v68h272v-68h-272zM266 548v48h8q28 0 44 12t19 43q-6 -4 -19 -4q-22 0 -38.5 16.5t-16.5 41.5t16.5 42t41.5 17q30 0 49 -21t19 -68q0 -62 -31 -94.5t-80 -32.5h-12z" />
    <glyph glyph-name="uni0163.ss02" horiz-adv-x="342" 
d="M130 0v620h82v-620h-82zM35 426v68h272v-68h-272zM179 -228q-21 0 -39 3t-30 7v52q11 -4 25.5 -7t31.5 -3q29 0 42.5 10.5t13.5 29.5q0 18 -13.5 28.5t-35.5 10.5h-64v20l35 102h57l-29 -93l-31 4q17 5 32 8t31 3q35 0 58 -23t23 -61q0 -50 -33 -70.5t-74 -20.5z" />
    <glyph glyph-name="uni021B.aalt" horiz-adv-x="342" 
d="M130 0v620h82v-620h-82zM35 426v68h272v-68h-272zM113 -256v44h11q27 0 41 12t16 43q-1 -1 -6 -2t-10 -1q-21 0 -34.5 14.5t-13.5 36.5q0 21 14.5 36t35.5 15q29 0 45.5 -20.5t16.5 -60.5q0 -59 -26 -88t-76 -29h-14z" />
    <glyph glyph-name="u.ss03" horiz-adv-x="552" 
d="M276 -14q-87 0 -143 51.5t-56 151.5v305h82v-313q0 -58 33 -90.5t84 -32.5t84 32.5t33 90.5v313h82v-305q0 -100 -56 -151.5t-143 -51.5z" />
    <glyph glyph-name="uacute.ss03" horiz-adv-x="552" 
d="M276 -14q-87 0 -143 51.5t-56 151.5v305h82v-313q0 -58 33 -90.5t84 -32.5t84 32.5t33 90.5v313h82v-305q0 -100 -56 -151.5t-143 -51.5zM240 567l56 133h118l-102 -133h-72z" />
    <glyph glyph-name="ucircumflex.ss03" horiz-adv-x="552" 
d="M276 -14q-87 0 -143 51.5t-56 151.5v305h82v-313q0 -58 33 -90.5t84 -32.5t84 32.5t33 90.5v313h82v-305q0 -100 -56 -151.5t-143 -51.5zM142 567l99 133h70l99 -133h-70l-64 69l-64 -69h-70z" />
    <glyph glyph-name="udieresis.ss03" horiz-adv-x="552" 
d="M276 -14q-87 0 -143 51.5t-56 151.5v305h82v-313q0 -58 33 -90.5t84 -32.5t84 32.5t33 90.5v313h82v-305q0 -100 -56 -151.5t-143 -51.5zM196 584q-22 0 -38.5 16t-16.5 39q0 24 16.5 39.5t38.5 15.5q24 0 39.5 -15.5t15.5 -39.5q0 -23 -15.5 -39t-39.5 -16zM356 584
q-23 0 -39 16t-16 39q0 24 16 39.5t39 15.5t39 -15.5t16 -39.5q0 -23 -16 -39t-39 -16z" />
    <glyph glyph-name="ugrave.ss03" horiz-adv-x="552" 
d="M276 -14q-87 0 -143 51.5t-56 151.5v305h82v-313q0 -58 33 -90.5t84 -32.5t84 32.5t33 90.5v313h82v-305q0 -100 -56 -151.5t-143 -51.5zM240 567l-102 133h118l56 -133h-72z" />
    <glyph glyph-name="uhungarumlaut.ss03" horiz-adv-x="552" 
d="M276 -14q-87 0 -143 51.5t-56 151.5v305h82v-313q0 -58 33 -90.5t84 -32.5t84 32.5t33 90.5v313h82v-305q0 -100 -56 -151.5t-143 -51.5zM322 567l36 133h110l-78 -133h-68zM162 567l36 133h110l-78 -133h-68z" />
    <glyph glyph-name="umacron.ss03" horiz-adv-x="552" 
d="M276 -14q-87 0 -143 51.5t-56 151.5v305h82v-313q0 -58 33 -90.5t84 -32.5t84 32.5t33 90.5v313h82v-305q0 -100 -56 -151.5t-143 -51.5zM155 604v66h242v-66h-242z" />
    <glyph glyph-name="uogonek.ss03" horiz-adv-x="552" 
d="M276 -14q-87 0 -143 51.5t-56 151.5v305h82v-313q0 -58 33 -90.5t84 -32.5t84 32.5t33 90.5v313h82v-305q0 -100 -56 -151.5t-143 -51.5zM304 -200q-40 0 -67 25.5t-27 67.5q0 41 23.5 72t54.5 43l71 -8q-28 -16 -49.5 -36.5t-21.5 -47.5q0 -21 12 -33t31 -12
q14 0 23.5 2.5t19.5 6.5v-67q-15 -6 -31 -9.5t-39 -3.5z" />
    <glyph glyph-name="uring.ss03" horiz-adv-x="552" 
d="M276 -14q-87 0 -143 51.5t-56 151.5v305h82v-313q0 -58 33 -90.5t84 -32.5t84 32.5t33 90.5v313h82v-305q0 -100 -56 -151.5t-143 -51.5zM276 560q-33 0 -60 16.5t-43.5 43.5t-16.5 60t16.5 60.5t43.5 43.5t60 16t60 -16t43.5 -43.5t16.5 -60.5t-16.5 -60t-43.5 -43.5
t-60 -16.5zM276 610q29 0 49.5 20.5t20.5 49.5t-20.5 49.5t-49.5 20.5t-49.5 -20.5t-20.5 -49.5t20.5 -49.5t49.5 -20.5z" />
    <glyph glyph-name="y.ss04" horiz-adv-x="501" 
d="M114 -200l82 200l-184 494h91l120 -331q5 -15 9.5 -30.5t8.5 -36.5v0v0l154 398h89l-277 -694h-93z" />
    <glyph glyph-name="yacute.ss04" horiz-adv-x="501" 
d="M114 -200l82 200l-184 494h91l120 -331q5 -15 9.5 -30.5t8.5 -36.5v0v0l154 398h89l-277 -694h-93zM215 567l56 133h118l-102 -133h-72z" />
    <glyph glyph-name="ydieresis.ss04" horiz-adv-x="501" 
d="M114 -200l82 200l-184 494h91l120 -331q5 -15 9.5 -30.5t8.5 -36.5v0v0l154 398h89l-277 -694h-93zM171 584q-22 0 -38.5 16t-16.5 39q0 24 16.5 39.5t38.5 15.5q24 0 39.5 -15.5t15.5 -39.5q0 -23 -15.5 -39t-39.5 -16zM331 584q-23 0 -39 16t-16 39q0 24 16 39.5
t39 15.5t39 -15.5t16 -39.5q0 -23 -16 -39t-39 -16z" />
    <glyph glyph-name="t_t" horiz-adv-x="684" 
d="M221 0q-59 0 -91 35t-32 95v490h82v-483q0 -61 59 -61h58v-76h-76zM25 426v68h272v-68h-272zM563 0q-59 0 -91 35t-32 95v490h82v-483q0 -61 59 -61h58v-76h-76zM367 426v68h272v-68h-272z" />
    <glyph glyph-name="zero.osf" horiz-adv-x="633" 
d="M317 -14q-79 0 -141.5 37t-98 101t-35.5 143q0 80 35.5 143.5t98 100.5t141.5 37q80 0 142 -37t97.5 -100.5t35.5 -143.5q0 -79 -35.5 -143t-97.5 -101t-142 -37zM317 60q53 0 96.5 25t70 71.5t26.5 110.5t-26.5 110.5t-70 71.5t-96.5 25q-52 0 -96 -25t-70.5 -71.5
t-26.5 -110.5t26.5 -110.5t70.5 -71.5t96 -25z" />
    <glyph glyph-name="one.osf" horiz-adv-x="330" 
d="M170 0v458h-139v76h221v-534h-82z" />
    <glyph glyph-name="two.osf" horiz-adv-x="467" 
d="M49 0v63l205 193q40 37 58.5 63t18.5 65q0 41 -28 65.5t-72 24.5q-49 0 -76 -26.5t-31 -67.5h-78q2 47 24.5 85t64 60.5t98.5 22.5q84 0 131 -45t47 -115q0 -33 -10.5 -61.5t-32 -56.5t-55.5 -58l-150 -136h253v-76h-367z" />
    <glyph glyph-name="three.osf" horiz-adv-x="504" 
d="M245 -136q-70 0 -119 30t-74 77.5t-25 99.5h82q3 -35 19.5 -65t46 -48.5t71.5 -18.5q61 0 97.5 34.5t36.5 94.5q0 52 -36 84.5t-95 32.5h-37v72h37q53 0 85 28.5t32 77.5t-33 80t-90 31q-52 0 -86.5 -32t-39.5 -81h-77q2 52 28 94.5t71 67.5t104 25q64 0 109.5 -23.5
t69.5 -63.5t24 -90q0 -55 -28 -93t-63 -55q47 -16 78 -55t31 -101q0 -58 -27 -104t-76 -72.5t-116 -26.5z" />
    <glyph glyph-name="four.osf" horiz-adv-x="512" 
d="M337 -123v170h-305v48l298 440h89v-416h71v-72h-71v-170h-82zM134 119h203v234q0 15 0.5 33t1.5 37z" />
    <glyph glyph-name="five.osf" horiz-adv-x="530" 
d="M263 -136q-67 0 -116 29t-75 75t-26 98h81q2 -55 41 -92t97 -37q68 0 104.5 43.5t36.5 107.5t-36 108t-105 44q-46 0 -81 -24t-55 -63h-78l36 382h376v-73h-332l29 36l-33 -299l-14 17q15 39 61.5 67t107.5 28q64 0 110.5 -29t71.5 -79t25 -115t-29 -115.5t-80 -79.5
t-117 -29z" />
    <glyph glyph-name="six.osf" horiz-adv-x="572" 
d="M283 -13q-70 0 -121.5 30.5t-80 81.5t-28.5 113q0 50 14 90.5t35.5 76.5t46.5 70l148 209h92l-202 -285l-33 -14q31 34 64.5 51.5t89.5 17.5t102 -28t73.5 -76.5t27.5 -112.5q0 -65 -31 -115.5t-82.5 -79.5t-114.5 -29zM283 60q40 0 73 18.5t53 51.5t20 78t-20 78t-53 51
t-73 18q-39 0 -72.5 -18t-54 -51t-20.5 -78t20.5 -78t54 -51.5t72.5 -18.5z" />
    <glyph glyph-name="seven.osf" horiz-adv-x="489" 
d="M136 -123l238 585h-336v73h421v-66l-238 -592h-85z" />
    <glyph glyph-name="eight.osf" horiz-adv-x="506" 
d="M253 -13q-68 0 -115.5 27t-72 71.5t-24.5 96.5q0 57 29 102.5t76 65.5q-34 20 -60 57t-26 92q0 50 26 88.5t69.5 61t97.5 22.5t98 -22.5t69.5 -61t25.5 -88.5q0 -55 -25.5 -92t-60.5 -57q47 -20 76 -65.5t29 -102.5q0 -52 -24.5 -96.5t-72 -71.5t-115.5 -27zM253 62
q59 0 93.5 36t34.5 89q0 54 -34.5 90t-93.5 36q-58 0 -93 -35.5t-35 -90.5q0 -53 35 -89t93 -36zM253 383q50 0 82 30.5t32 77.5t-32 77.5t-82 30.5t-82 -30t-32 -78q0 -47 32 -77.5t82 -30.5z" />
    <glyph glyph-name="nine.osf" horiz-adv-x="572" 
d="M182 -123l203 285l33 14q-31 -34 -64.5 -51.5t-85.5 -17.5q-55 0 -102.5 28t-76 77t-28.5 112q0 65 30.5 115.5t82.5 79.5t115 29q72 0 123.5 -30t79 -81t27.5 -114q0 -73 -29.5 -128t-67.5 -109l-147 -209h-93zM289 180q40 0 73 18t53.5 51.5t20.5 77.5q0 45 -20.5 78.5
t-53.5 51.5t-73 18q-39 0 -72 -18t-53 -51.5t-20 -78.5q0 -44 20 -77.5t53 -51.5t72 -18z" />
    <glyph glyph-name="zero.tf" 
d="M305 -14q-52 0 -100.5 22t-87 67t-61.5 113.5t-23 161.5t23 161.5t61.5 113.5t87 67t100.5 22q69 0 128.5 -39.5t96.5 -120t37 -204.5t-37 -204.5t-96.5 -120t-128.5 -39.5zM305 64q46 0 85.5 28t64 91t24.5 167t-24.5 167t-64 91t-85.5 28t-88 -28t-69 -91t-27 -167
t27 -167t69 -91t88 -28z" />
    <glyph glyph-name="one.tf" 
d="M258 0v619h-162v81h182h67v-700h-87zM88 0v78h425v-78h-425z" />
    <glyph glyph-name="two.tf" 
d="M80 0v69l253 257q48 49 71.5 91.5t23.5 88.5q0 62 -37 96t-92 34q-59 0 -94.5 -35.5t-40.5 -89.5h-83q3 58 30.5 103.5t75.5 72.5t114 27q63 0 111 -26t74.5 -71.5t26.5 -104.5q0 -44 -14 -83t-40 -75.5t-63 -74.5l-194 -198h319v-81h-441z" />
    <glyph glyph-name="three.tf" 
d="M297 -14q-75 0 -125 32t-75.5 82t-25.5 104h83q3 -37 19.5 -69t48 -51.5t76.5 -19.5q64 0 104 36t40 103q0 56 -38.5 90.5t-101.5 34.5h-40v73h40q56 0 90.5 32t34.5 85t-35 86t-97 33q-57 0 -94 -34.5t-42 -86.5h-79q2 55 29 100t75 71.5t111 26.5q65 0 113 -25
t75 -67.5t27 -95.5q0 -37 -14.5 -68.5t-37 -54.5t-45.5 -35q48 -18 82 -60.5t34 -105.5q0 -60 -28.5 -109t-80.5 -78t-123 -29z" />
    <glyph glyph-name="four.tf" 
d="M382 0v183h-320v48l313 469h93v-445h71v-72h-71v-183h-86zM170 255h212v259q0 15 1.5 33t2.5 34z" />
    <glyph glyph-name="five.tf" 
d="M295 -14q-72 0 -123.5 30.5t-79 79.5t-27.5 105h84q1 -39 20.5 -70.5t52.5 -50t75 -18.5q74 0 113 47t39 116q0 68 -38.5 115.5t-113.5 47.5q-45 0 -84.5 -26t-60.5 -68h-81l38 406h399v-76h-354l31 39l-36 -322l-14 18q16 42 65 72.5t115 30.5q70 0 119 -30.5t75 -84
t26 -122.5t-31 -123t-85 -85t-124 -31z" />
    <glyph glyph-name="six.tf" 
d="M301 -14q-74 0 -129 32.5t-85 86.5t-30 120q0 51 13.5 92.5t37 80t52.5 79.5l157 223h96l-216 -304l-36 -15q34 37 73.5 56t92.5 19q60 0 109 -29.5t78 -81.5t29 -120q0 -69 -32.5 -123t-87.5 -85t-122 -31zM301 62q43 0 78 19.5t56.5 55.5t21.5 84q0 49 -21.5 84.5
t-56.5 55t-78 19.5q-42 0 -78 -19.5t-58 -55t-22 -84.5q0 -48 22 -84t58 -55.5t78 -19.5z" />
    <glyph glyph-name="seven.tf" 
d="M174 0l268 624h-373v76h462v-68l-269 -632h-88z" />
    <glyph glyph-name="eight.tf" 
d="M300 -14q-72 0 -122.5 29t-76.5 76t-26 102q0 62 31.5 110t80.5 69q-37 21 -64.5 59.5t-27.5 99.5q0 53 27.5 94.5t74 65t103.5 23.5q58 0 104 -23.5t73.5 -65t27.5 -94.5q0 -61 -27.5 -99.5t-64.5 -59.5q50 -21 81 -69t31 -110q0 -55 -26 -102t-76 -76t-123 -29zM300 64
q63 0 101 38.5t38 95.5q0 59 -37.5 97.5t-101.5 38.5q-63 0 -100.5 -38.5t-37.5 -97.5q0 -57 37.5 -95.5t100.5 -38.5zM300 407q55 0 89.5 32.5t34.5 83.5t-34.5 83.5t-89.5 32.5q-54 0 -88.5 -32.5t-34.5 -83.5t34 -83.5t89 -32.5z" />
    <glyph glyph-name="nine.tf" 
d="M187 0l216 304l36 15q-34 -37 -69.5 -56t-91.5 -19q-59 0 -109.5 29.5t-81 82t-30.5 119.5q0 70 32.5 123.5t87.5 84.5t122 31q77 0 131.5 -32t83.5 -86t29 -121q0 -50 -13.5 -91.5t-36.5 -80t-53 -80.5l-157 -223h-96zM299 320q43 0 78.5 19.5t57.5 55.5t22 84
q0 49 -22 84.5t-57.5 55t-78.5 19.5q-42 0 -77.5 -19.5t-57 -55t-21.5 -84.5q0 -48 21.5 -84t57 -55.5t77.5 -19.5z" />
    <glyph glyph-name="zero.tosf" 
d="M300 -14q-79 0 -141.5 37t-98 101t-35.5 143q0 80 35.5 143.5t98 100.5t141.5 37q80 0 142 -37t97.5 -100.5t35.5 -143.5q0 -79 -35.5 -143t-97.5 -101t-142 -37zM300 60q53 0 96.5 25t70 71.5t26.5 110.5t-26.5 110.5t-70 71.5t-96.5 25q-52 0 -96 -25t-70.5 -71.5
t-26.5 -110.5t26.5 -110.5t70.5 -71.5t96 -25z" />
    <glyph glyph-name="one.tosf" 
d="M273 0v458h-139v76h159h62v-534h-82zM96 0v76h408v-76h-408z" />
    <glyph glyph-name="two.tosf" 
d="M104 0v63l230 181q41 32 59 60.5t18 67.5q0 47 -30.5 74.5t-81.5 27.5q-52 0 -84 -30t-36 -74h-78q2 45 26 86t68 66.5t106 25.5q90 0 140 -49t50 -123q0 -35 -10.5 -65t-32 -57.5t-55.5 -53.5l-160 -124h266v-76h-395z" />
    <glyph glyph-name="three.tosf" 
d="M300 -136q-70 0 -119 30t-74 77.5t-25 99.5h82q3 -35 19.5 -65t46 -48.5t71.5 -18.5q61 0 97.5 34.5t36.5 94.5q0 52 -36 84.5t-95 32.5h-37v72h37q53 0 85 28.5t32 77.5t-33 80t-90 31q-52 0 -86.5 -32t-39.5 -81h-77q2 52 28 94.5t71 67.5t104 25q64 0 109.5 -23.5
t69.5 -63.5t24 -90q0 -55 -28 -93t-63 -55q47 -16 78 -55t31 -101q0 -58 -27 -104t-76 -72.5t-116 -26.5z" />
    <glyph glyph-name="four.tosf" 
d="M373 -123v170h-316v48l309 440h89v-416h88v-72h-88v-170h-82zM159 119h214v237q0 15 0.5 33t1.5 37z" />
    <glyph glyph-name="five.tosf" 
d="M296 -136q-67 0 -116 29t-75 75t-26 98h81q2 -55 41 -92t97 -37q68 0 104.5 43.5t36.5 107.5t-36 108t-105 44q-46 0 -81 -24t-55 -63h-78l36 382h376v-73h-332l29 36l-33 -299l-14 17q15 39 61.5 67t107.5 28q64 0 110.5 -29t71.5 -79t25 -115t-29 -115.5t-80 -79.5
t-117 -29z" />
    <glyph glyph-name="six.tosf" 
d="M301 -13q-70 0 -121.5 30.5t-80 81.5t-28.5 113q0 50 14 90.5t36 76.5t46 70l148 209h92l-202 -285l-33 -14q31 34 64.5 51.5t89.5 17.5t102 -28t73.5 -76.5t27.5 -112.5q0 -65 -31 -115.5t-82.5 -79.5t-114.5 -29zM301 60q40 0 73 18.5t53 51.5t20 78t-20 78t-53 51
t-73 18q-39 0 -72.5 -18t-54 -51t-20.5 -78t20.5 -78t54 -51.5t72.5 -18.5z" />
    <glyph glyph-name="seven.tosf" 
d="M184 -123l258 585h-368v73h453v-66l-258 -592h-85z" />
    <glyph glyph-name="eight.tosf" 
d="M300 -13q-68 0 -115.5 27t-72 71.5t-24.5 96.5q0 57 29 102.5t76 65.5q-34 20 -60 57t-26 92q0 50 26 88.5t69.5 61t97.5 22.5t98 -22.5t69.5 -61t25.5 -88.5q0 -55 -25.5 -92t-60.5 -57q47 -20 76 -65.5t29 -102.5q0 -52 -24.5 -96.5t-72 -71.5t-115.5 -27zM300 62
q59 0 93.5 36t34.5 89q0 54 -34.5 90t-93.5 36q-58 0 -93 -35.5t-35 -90.5q0 -53 35 -89t93 -36zM300 383q50 0 82 30.5t32 77.5t-32 77.5t-82 30.5t-82 -30t-32 -78q0 -47 32 -77.5t82 -30.5z" />
    <glyph glyph-name="nine.tosf" 
d="M192 -123l203 285l33 14q-31 -34 -64.5 -51.5t-85.5 -17.5q-55 0 -102.5 28t-76 77t-28.5 112q0 65 30.5 115.5t82.5 79.5t115 29q72 0 123.5 -30t79 -81t27.5 -114q0 -73 -29.5 -128t-67.5 -109l-147 -209h-93zM299 180q40 0 73 18t53.5 51.5t20.5 77.5q0 45 -20.5 78.5
t-53.5 51.5t-73 18q-39 0 -72 -18t-53 -51.5t-20 -78.5q0 -44 20 -77.5t53 -51.5t72 -18z" />
    <glyph glyph-name="zero.dnom" horiz-adv-x="324" 
d="M162 -7q-58 0 -97 46.5t-39 135.5t39 135.5t97 46.5q59 0 97.5 -46.5t38.5 -135.5t-38.5 -135.5t-97.5 -46.5zM162 52q31 0 51.5 28.5t20.5 94.5t-20.5 94.5t-51.5 28.5t-51.5 -28.5t-20.5 -94.5t20.5 -94.5t51.5 -28.5z" />
    <glyph glyph-name="one.dnom" horiz-adv-x="191" 
d="M89 0v290h-67v60h131v-350h-64z" />
    <glyph glyph-name="two.dnom" horiz-adv-x="282" 
d="M23 0v47l122 125q20 20 29.5 37.5t9.5 38.5q0 23 -13.5 36.5t-34.5 13.5q-24 0 -37 -14t-15 -37h-61q2 48 32 79t82 31t81.5 -29.5t29.5 -76.5q0 -33 -14.5 -59.5t-43.5 -56.5l-74 -77h136v-58h-229z" />
    <glyph glyph-name="three.dnom" horiz-adv-x="290" 
d="M141 -7q-59 0 -90 34.5t-31 80.5h63q2 -25 17 -40.5t41 -15.5q27 0 42.5 14t15.5 39q0 24 -16.5 37.5t-42.5 13.5h-19v51h19q23 0 37.5 12.5t14.5 33.5q0 20 -13 33t-39 13q-22 0 -37 -13.5t-17 -33.5h-61q2 43 32.5 74t82.5 31q54 0 84 -27.5t30 -69.5q0 -25 -13.5 -45
t-31.5 -31q23 -8 39 -28.5t16 -52.5t-15.5 -57t-43 -39t-64.5 -14z" />
    <glyph glyph-name="four.dnom" horiz-adv-x="290" 
d="M171 0v86h-155v39l149 225h70v-215h39v-49h-39v-86h-64zM87 135h84v99q0 8 0.5 17t1.5 16z" />
    <glyph glyph-name="five.dnom" horiz-adv-x="298" 
d="M146 -7q-56 0 -88.5 32t-32.5 78h64q2 -22 18.5 -37t39.5 -15q28 0 44 17.5t16 45.5q0 27 -16 45t-44 18q-20 0 -35.5 -10t-23.5 -24h-61l18 207h213v-58h-172l16 19l-17 -130l-6 8q8 18 31 30t52 12q50 0 80 -33t30 -84q0 -34 -15.5 -61.5t-43.5 -43.5t-67 -16z" />
    <glyph glyph-name="six.dnom" horiz-adv-x="298" 
d="M149 -7q-39 0 -67 17t-43 44.5t-15 60.5q0 38 12.5 63.5t33.5 55.5l81 116h67l-106 -150l-19 -1q14 14 32 22t41 8q46 0 77 -32t31 -83q0 -34 -15.5 -61.5t-43.5 -43.5t-66 -16zM149 47q27 0 46 18.5t19 47.5t-19 47t-46 18t-46 -18t-19 -47t19 -47.5t46 -18.5z" />
    <glyph glyph-name="seven.dnom" horiz-adv-x="264" 
d="M68 0l118 292h-168v58h230v-53l-116 -297h-64z" />
    <glyph glyph-name="eight.dnom" horiz-adv-x="290" 
d="M145 -7q-55 0 -88 31t-33 75q0 31 17.5 53.5t39.5 32.5q-17 11 -31.5 29.5t-14.5 46.5q0 41 31 68.5t79 27.5t79 -27.5t31 -68.5q0 -28 -14.5 -46.5t-31.5 -29.5q23 -10 40 -32.5t17 -53.5q0 -44 -32.5 -75t-88.5 -31zM145 49q26 0 41.5 15t15.5 40t-15.5 40t-41.5 15
q-25 0 -41 -15t-16 -40t16 -40t41 -15zM145 211q21 0 35.5 13t14.5 34t-14.5 34t-35.5 13t-35.5 -13t-14.5 -34t14.5 -34t35.5 -13z" />
    <glyph glyph-name="nine.dnom" horiz-adv-x="298" 
d="M80 0l106 150l19 1q-14 -14 -32 -22t-41 -8q-46 0 -77 32t-31 83q0 35 15.5 62t44 43t65.5 16q39 0 67 -17t43 -44.5t15 -60.5q0 -38 -12.5 -63.5t-33.5 -55.5l-81 -116h-67zM149 172q27 0 46 18t19 47t-19 47.5t-46 18.5t-46 -18.5t-19 -47.5t19 -47t46 -18z" />
    <glyph glyph-name="zero.numr" horiz-adv-x="324" 
d="M162 343q-58 0 -97 46.5t-39 135.5t39 135.5t97 46.5q59 0 97.5 -46.5t38.5 -135.5t-38.5 -135.5t-97.5 -46.5zM162 402q31 0 51.5 28.5t20.5 94.5t-20.5 94.5t-51.5 28.5t-51.5 -28.5t-20.5 -94.5t20.5 -94.5t51.5 -28.5z" />
    <glyph glyph-name="one.numr" horiz-adv-x="191" 
d="M89 350v290h-67v60h131v-350h-64z" />
    <glyph glyph-name="two.numr" horiz-adv-x="282" 
d="M23 350v47l122 125q20 20 29.5 37.5t9.5 38.5q0 23 -13.5 36.5t-34.5 13.5q-24 0 -37 -14t-15 -37h-61q2 48 32 79t82 31t81.5 -29.5t29.5 -76.5q0 -33 -14.5 -59.5t-43.5 -56.5l-74 -77h136v-58h-229z" />
    <glyph glyph-name="three.numr" horiz-adv-x="290" 
d="M141 343q-59 0 -90 34.5t-31 80.5h63q2 -25 17 -40.5t41 -15.5q27 0 42.5 14t15.5 39q0 24 -16.5 37.5t-42.5 13.5h-19v51h19q23 0 37.5 12.5t14.5 33.5q0 20 -13 33t-39 13q-22 0 -37 -13.5t-17 -33.5h-61q2 43 32.5 74t82.5 31q54 0 84 -27.5t30 -69.5q0 -25 -13.5 -45
t-31.5 -31q23 -8 39 -28.5t16 -52.5t-15.5 -57t-43 -39t-64.5 -14z" />
    <glyph glyph-name="four.numr" horiz-adv-x="290" 
d="M171 350v86h-155v39l149 225h70v-215h39v-49h-39v-86h-64zM87 485h84v99q0 8 0.5 17t1.5 16z" />
    <glyph glyph-name="five.numr" horiz-adv-x="298" 
d="M146 343q-56 0 -88.5 32t-32.5 78h64q2 -22 18.5 -37t39.5 -15q28 0 44 17.5t16 45.5q0 27 -16 45t-44 18q-20 0 -35.5 -10t-23.5 -24h-61l18 207h213v-58h-172l16 19l-17 -130l-6 8q8 18 31 30t52 12q50 0 80 -33t30 -84q0 -34 -15.5 -61.5t-43.5 -43.5t-67 -16z" />
    <glyph glyph-name="six.numr" horiz-adv-x="298" 
d="M149 343q-39 0 -67 17t-43 44.5t-15 60.5q0 38 12.5 63.5t33.5 55.5l81 116h67l-106 -150l-19 -1q14 14 32 22t41 8q46 0 77 -32t31 -83q0 -34 -15.5 -61.5t-43.5 -43.5t-66 -16zM149 397q27 0 46 18.5t19 47.5t-19 47t-46 18t-46 -18t-19 -47t19 -47.5t46 -18.5z" />
    <glyph glyph-name="seven.numr" horiz-adv-x="264" 
d="M68 350l118 292h-168v58h230v-53l-116 -297h-64z" />
    <glyph glyph-name="eight.numr" horiz-adv-x="290" 
d="M145 343q-55 0 -88 31t-33 75q0 31 17.5 53.5t39.5 32.5q-17 11 -31.5 29.5t-14.5 46.5q0 41 31 68.5t79 27.5t79 -27.5t31 -68.5q0 -28 -14.5 -46.5t-31.5 -29.5q23 -10 40 -32.5t17 -53.5q0 -44 -32.5 -75t-88.5 -31zM145 399q26 0 41.5 15t15.5 40t-15.5 40t-41.5 15
q-25 0 -41 -15t-16 -40t16 -40t41 -15zM145 561q21 0 35.5 13t14.5 34t-14.5 34t-35.5 13t-35.5 -13t-14.5 -34t14.5 -34t35.5 -13z" />
    <glyph glyph-name="nine.numr" horiz-adv-x="298" 
d="M80 350l106 150l19 1q-14 -14 -32 -22t-41 -8q-46 0 -77 32t-31 83q0 35 15.5 62t44 43t65.5 16q39 0 67 -17t43 -44.5t15 -60.5q0 -38 -12.5 -63.5t-33.5 -55.5l-81 -116h-67zM149 522q27 0 46 18t19 47t-19 47.5t-46 18.5t-46 -18.5t-19 -47.5t19 -47t46 -18z" />
    <glyph glyph-name="cent.ss05" horiz-adv-x="304" 
d="M155 394q-55 0 -92 38t-37 93q0 37 17 66.5t46 47t66 17.5q56 0 86.5 -27t36.5 -67h-56q-6 18 -22 31t-45 13q-30 0 -52 -22t-22 -59t22 -59t52 -22q28 0 44 12.5t23 31.5h56q-8 -40 -38 -67t-85 -27zM133 350v68h46v-68h-46zM133 619v81h46v-81h-46z" />
    <glyph glyph-name="currency.ss05" horiz-adv-x="342" 
d="M171 404q-34 0 -61 16.5t-43 44t-16 60.5q0 34 16 61.5t43 44t61 16.5q35 0 62 -16.5t42.5 -44t15.5 -61.5q0 -50 -34 -85.5t-86 -35.5zM52 376l-30 30l72 72l31 -30zM94 572l-72 72l30 30l72 -72zM171 454q29 0 48.5 20t19.5 51q0 32 -19.5 51.5t-48.5 19.5
q-28 0 -47.5 -19.5t-19.5 -51.5q0 -31 19.5 -51t47.5 -20zM290 376l-72 72l30 30l72 -72zM248 572l-30 30l72 72l30 -30z" />
    <glyph glyph-name="dollar.ss05" horiz-adv-x="298" 
d="M150 343q-58 0 -92 32.5t-34 82.5h59q0 -28 19 -45t48 -17q65 0 65 52q0 26 -18 37.5t-43 18.5l-38 11q-40 11 -62.5 36.5t-22.5 59.5q0 43 33.5 69.5t83.5 26.5q58 0 88 -30t30 -74h-56q-1 26 -18.5 39.5t-43.5 13.5q-29 0 -44.5 -11.5t-15.5 -30.5q0 -18 13 -29.5
t44 -21.5l46 -14q36 -11 59 -34.5t23 -61.5q0 -45 -32 -77.5t-91 -32.5zM125 296v75h50v-75h-50zM125 677v76h50v-76h-50z" />
    <glyph glyph-name="Euro.aalt" horiz-adv-x="403" 
d="M232 343q-45 0 -84.5 22.5t-63.5 63.5t-24 96q0 56 24 97t63.5 63t84.5 22q59 0 98 -28.5t49 -80.5h-58q-7 27 -32 42t-57 15q-48 0 -81.5 -35t-33.5 -95t33.5 -95t81.5 -35q30 0 55.5 15t33.5 42h58q-10 -49 -50 -79t-97 -30zM12 471l7 39h241l-7 -39h-241zM24 540l7 39
h241l-7 -39h-241z" />
    <glyph glyph-name="florin.ss05" horiz-adv-x="262" 
d="M14 296v51h36q18 0 27.5 6.5t12.5 31.5l29 233q5 38 26 60t61 22h42v-51h-37q-16 0 -25.5 -9.5t-11.5 -28.5l-30 -236q-5 -40 -23.5 -59.5t-65.5 -19.5h-41zM49 518v46h189v-46h-189z" />
    <glyph glyph-name="uni20BA.aalt" horiz-adv-x="305" 
d="M56 350v350h58v-297h38q34 0 55 17t21 61v10h56v-10q0 -63 -32.5 -97t-92.5 -34h-103zM15 398v48l179 113v-48zM15 487v48l179 113v-48z" />
    <glyph glyph-name="uni20BD.aalt" horiz-adv-x="299" 
d="M51 350v350h110q50 0 83 -29t33 -80t-33 -79.5t-83 -28.5h-52v-133h-58zM12 402v45h202v-45h-202zM109 534h50q26 0 43 14t17 43t-17 43.5t-43 14.5h-50v-115z" />
    <glyph glyph-name="sterling.ss05" horiz-adv-x="301" 
d="M20 350v53h8q34 0 34 41v154q0 49 28 79t78 30q52 0 79.5 -29t28.5 -71h-55q-1 21 -15.5 34.5t-37.5 13.5q-21 0 -35 -14t-14 -41v-151q0 -17 -4.5 -27.5t-13.5 -18.5h176v-53h-257zM20 495v47h191v-47h-191z" />
    <glyph glyph-name="yen.ss05" horiz-adv-x="304" 
d="M123 350v141l-113 209h66l76 -150l75 150h67l-113 -209v-141h-58zM34 421v39h236v-39h-236zM34 491v39h236v-39h-236z" />
    <glyph glyph-name="glyph439" horiz-adv-x="0" 
d="M21 498v48h8q28 0 44 12t19 43q-6 -4 -19 -4q-22 0 -38.5 16.5t-16.5 41.5t16.5 42t41.5 17q30 0 49 -21t19 -68q0 -62 -31 -94.5t-80 -32.5h-12z" />
    <glyph glyph-name="t.BRACKET.701" horiz-adv-x="342" 
d="M130 0v620h82v-620h-82zM35 426v68h272v-68h-272z" />
    <glyph glyph-name="y.BRACKET.701" horiz-adv-x="501" 
d="M114 -200l82 200l-184 494h91l120 -331q5 -15 9.5 -30.5t8.5 -36.5v0v0l154 398h89l-277 -694h-93z" />
    <glyph glyph-name="t.ss02.BRACKET.701" horiz-adv-x="342" 
d="M221 0q-59 0 -91 35t-32 95v490h82v-483q0 -61 59 -61h58v-76h-76zM25 426v68h272v-68h-272z" />
    <glyph glyph-name="y.ss04.BRACKET.701" horiz-adv-x="501" 
d="M48 -200v76h58q24 0 36.5 8.5t21.5 30.5l34 85l-186 494h91l122 -328q5 -15 9 -30.5t8 -36.5v0v0l152 395h90l-241 -605q-17 -43 -46.5 -66t-79.5 -23h-69z" />
    <glyph glyph-name="cent.BRACKET.701" horiz-adv-x="571" 
d="M294 89q-72 0 -129 34t-90 93t-33 134t33 134t90.5 93t128.5 34q65 0 114.5 -21.5t80 -61.5t39.5 -94h-82q-13 44 -52 73.5t-100 29.5q-46 0 -85 -22.5t-62 -64.5t-23 -100t23.5 -100t62.5 -64.5t84 -22.5q62 0 99 28.5t53 74.5h82q-12 -54 -43 -93.5t-79 -61.5t-112 -22
zM259 0v124h74v-124h-74zM259 570v130h74v-130h-74z" />
    <glyph glyph-name="dollar.BRACKET.701" horiz-adv-x="567" 
d="M284 -14q-75 0 -129.5 28.5t-84.5 79t-30 115.5h86q0 -67 45.5 -106t112.5 -39q73 0 113 32.5t40 96.5q0 50 -36 78.5t-98 47.5l-70 21q-79 23 -126 71t-47 124q0 52 30 92.5t80.5 63.5t111.5 23q71 0 121 -26.5t76.5 -72t26.5 -101.5h-85q0 56 -38.5 90t-100.5 34
q-64 0 -101 -27.5t-37 -73.5q0 -43 28 -72.5t95 -50.5l88 -28q50 -15 87.5 -41t59 -62.5t21.5 -84.5q0 -58 -28 -106.5t-81.5 -77t-129.5 -28.5zM322 27v-135h-74v135h74zM248 667v139h74v-139h-74z" />
    </font>
</defs>
</svg>
